SplineFontDB: 3.1
FontName: Quassatio
FullName: Quassatio
FamilyName: Quassatio
Weight: Regular
Copyright: Copyright (c) 2019, J Hudson\nLicensed under the SIL Open Font License version 1.1
UComments: "2019-6-20: Created with FontForge (http://fontforge.org)"
Version: 001.000
ItalicAngle: 0
UnderlinePosition: -10
UnderlineWidth: 0
Ascent: 280
Descent: 80
InvalidEm: 0
LayerCount: 2
Layer: 0 0 "Back" 1
Layer: 1 0 "Fore" 0
XUID: [1021 221 1603365728 8205982]
OS2Version: 0
OS2_WeightWidthSlopeOnly: 0
OS2_UseTypoMetrics: 1
CreationTime: 1561075253
ModificationTime: 1562370234
OS2TypoAscent: 0
OS2TypoAOffset: 1
OS2TypoDescent: 0
OS2TypoDOffset: 1
OS2TypoLinegap: 0
OS2WinAscent: 0
OS2WinAOffset: 1
OS2WinDescent: 0
OS2WinDOffset: 1
HheadAscent: 0
HheadAOffset: 1
HheadDescent: 0
HheadDOffset: 1
OS2Vendor: 'PfEd'
MarkAttachClasses: 1
DEI: 91125
Encoding: ISO8859-1
UnicodeInterp: none
NameList: AGL For New Fonts
DisplaySize: -48
AntiAlias: 1
FitToEm: 0
WinInfo: 0 16 10
BeginPrivate: 0
EndPrivate
BeginChars: 256 256

StartChar: A
Encoding: 65 65 0
Width: 200
VWidth: 0
Flags: HW
LayerCount: 2
UndoRedoHistory
Layer: 0
Undoes
UndoOperation
Index: 0
Type: 1
WasModified: 0
WasOrder2: 0
Layer: 2
Width: 20
VWidth: 0
LBearingChange: 0
UnicodeEnc: 0
InstructionsLength: 0
EndUndoOperation
EndUndoes
Redoes
EndRedoes
EndUndoRedoHistory
UndoRedoHistory
Layer: 1
Undoes
UndoOperation
Index: 0
Type: 3
WasModified: 0
WasOrder2: 0
Layer: 2
EndUndoOperation
UndoOperation
Index: 1
Type: 1
WasModified: 1
WasOrder2: 0
Layer: 2
Width: 20
VWidth: 0
LBearingChange: 0
UnicodeEnc: 0
InstructionsLength: 0
SplineSet
8 28 m 4
 8.3544921875 28 8.7021484375 27.9052734375 9.0078125 27.7265625 c 4
 9.30859375 27.90234375 9.6513671875 27.9970703125 10 28 c 4
 10.3544921875 28 10.7021484375 27.9052734375 11.0078125 27.7265625 c 4
 11.30859375 27.90234375 11.6513671875 27.9970703125 12 28 c 4
 12.3544921875 28 12.7021484375 27.9052734375 13.0078125 27.7265625 c 4
 13.30859375 27.90234375 13.6513671875 27.9970703125 14 28 c 4
 15.1044921875 28 16 27.1044921875 16 26 c 4
 16 24.8955078125 15.1044921875 24 14 24 c 4
 13.6455078125 24 13.2978515625 24.0947265625 12.9921875 24.2734375 c 4
 12.69140625 24.09765625 12.3486328125 24.0029296875 12 24 c 4
 11.6455078125 24 11.2978515625 24.0947265625 10.9921875 24.2734375 c 4
 10.69140625 24.09765625 10.3486328125 24.0029296875 10 24 c 4
 9.6455078125 24 9.2978515625 24.0947265625 8.9921875 24.2734375 c 4
 8.69140625 24.09765625 8.3486328125 24.0029296875 8 24 c 4
 6.8955078125 24 6 24.8955078125 6 26 c 4
 6 27.1044921875 6.8955078125 28 8 28 c 4
6 24 m 4
 7.1044921875 24 8 23.1044921875 8 22 c 4
 8 20.8955078125 7.1044921875 20 6 20 c 4
 4.8955078125 20 4 20.8955078125 4 22 c 4
 4 23.1044921875 4.8955078125 24 6 24 c 4
16 24 m 4
 17.1044921875 24 18 23.1044921875 18 22 c 4
 18 20.8955078125 17.1044921875 20 16 20 c 4
 14.8955078125 20 14 20.8955078125 14 22 c 4
 14 23.1044921875 14.8955078125 24 16 24 c 4
4 20 m 4
 5.1044921875 20 6 19.1044921875 6 18 c 4
 6 16.8955078125 5.1044921875 16 4 16 c 4
 2.8955078125 16 2 16.8955078125 2 18 c 4
 2 19.1044921875 2.8955078125 20 4 20 c 4
4 15.9892578125 m 4
 5.1044921875 15.9892578125 6 15.1044921875 6 14 c 4
 6 12.8955078125 5.1044921875 12 4 12 c 4
 2.8955078125 12 2 12.8955078125 2 14 c 4
 2 15.1044921875 2.8955078125 15.9892578125 4 15.9892578125 c 4
4 11.978515625 m 4
 4.3544921875 11.978515625 4.7021484375 11.9052734375 5.0078125 11.7265625 c 4
 5.30859375 11.90234375 5.6513671875 11.9970703125 6 12 c 4
 6.3544921875 12 6.7021484375 11.9052734375 7.0078125 11.7265625 c 4
 7.30859375 11.90234375 7.6513671875 11.9970703125 8 12 c 4
 8.3544921875 12 8.7021484375 11.9052734375 9.0078125 11.7265625 c 4
 9.30859375 11.90234375 9.6513671875 11.9970703125 10 12 c 4
 10.3544921875 12 10.7021484375 11.9052734375 11.0078125 11.7265625 c 4
 11.30859375 11.90234375 11.6513671875 11.9970703125 12 12 c 4
 12.3544921875 12 12.7021484375 11.9052734375 13.0078125 11.7265625 c 4
 13.30859375 11.90234375 13.6513671875 11.9970703125 14 12 c 4
 14.3544921875 12 14.7021484375 11.9052734375 15.0078125 11.7265625 c 4
 15.30859375 11.90234375 15.6513671875 11.9970703125 16 12 c 4
 16.3544921875 12 16.7021484375 11.9052734375 17.0078125 11.7265625 c 4
 17.30859375 11.90234375 17.6513671875 11.9970703125 18 12 c 4
 19.1044921875 12 20 11.1044921875 20 10 c 4
 20 8.8955078125 19.1044921875 8 18 8 c 4
 17.6455078125 8 17.2978515625 8.0947265625 16.9921875 8.2734375 c 4
 16.69140625 8.09765625 16.3486328125 8.0029296875 16 8 c 4
 15.6455078125 8 15.2978515625 8.0947265625 14.9921875 8.2734375 c 4
 14.69140625 8.09765625 14.3486328125 8.0029296875 14 8 c 4
 13.6455078125 8 13.2978515625 8.0947265625 12.9921875 8.2734375 c 4
 12.69140625 8.09765625 12.3486328125 8.0029296875 12 8 c 4
 11.6455078125 8 11.2978515625 8.0947265625 10.9921875 8.2734375 c 4
 10.69140625 8.09765625 10.3486328125 8.0029296875 10 8 c 4
 9.6455078125 8 9.2978515625 8.0947265625 8.9921875 8.2734375 c 4
 8.69140625 8.09765625 8.3486328125 8.0029296875 8 8 c 4
 7.6455078125 8 7.2978515625 8.0947265625 6.9921875 8.2734375 c 4
 6.69140625 8.09765625 6.3486328125 8.0029296875 6 8 c 4
 5.6455078125 8 5.2978515625 8.0947265625 4.9921875 8.2734375 c 4
 4.69140625 8.09765625 4.3486328125 8.0029296875 4 8 c 4
 2.8955078125 8 2 8.8955078125 2 10 c 4
 2 11.1044921875 2.8955078125 11.978515625 4 11.978515625 c 4
18 12.021484375 m 4
 16.8955078125 12.021484375 16 12.8955078125 16 14 c 4
 16 15.1044921875 16.8955078125 16 18 16 c 4
 19.1044921875 16 20 15.1044921875 20 14 c 4
 20 12.8955078125 19.1044921875 12.021484375 18 12.021484375 c 4
18 16.04296875 m 4
 16.8955078125 16.04296875 16 16.8955078125 16 18 c 4
 16 19.1044921875 16.8955078125 20 18 20 c 4
 19.1044921875 20 20 19.1044921875 20 18 c 4
 20 16.8955078125 19.1044921875 16.04296875 18 16.04296875 c 4
18 7.978515625 m 4
 19.1044921875 7.978515625 20 7.1044921875 20 6 c 4
 20 4.8955078125 19.1044921875 4 18 4 c 4
 16.8955078125 4 16 4.8955078125 16 6 c 4
 16 7.1044921875 16.8955078125 7.978515625 18 7.978515625 c 4
18 3.95703125 m 4
 19.1044921875 3.95703125 20 3.1044921875 20 2 c 4
 20 0.8955078125 19.1044921875 0 18 0 c 4
 16.8955078125 0 16 0.8955078125 16 2 c 4
 16 3.1044921875 16.8955078125 3.95703125 18 3.95703125 c 4
4 7.978515625 m 4
 5.1044921875 7.978515625 6 7.1044921875 6 6 c 4
 6 4.8955078125 5.1044921875 4 4 4 c 4
 2.8955078125 4 2 4.8955078125 2 6 c 4
 2 7.1044921875 2.8955078125 7.978515625 4 7.978515625 c 4
4 3.95703125 m 4
 5.1044921875 3.95703125 6 3.1044921875 6 2 c 4
 6 0.8955078125 5.1044921875 0 4 0 c 4
 2.8955078125 0 2 0.8955078125 2 2 c 4
 2 3.1044921875 2.8955078125 3.95703125 4 3.95703125 c 4
EndSplineSet
EndUndoOperation
UndoOperation
Index: 2
Type: 1
WasModified: 1
WasOrder2: 0
Layer: 2
Width: 20
VWidth: 0
LBearingChange: 0
UnicodeEnc: 0
InstructionsLength: 0
SplineSet
7 28 m 4
 7.3544921875 28 7.7021484375 27.9052734375 8.0078125 27.7265625 c 4
 8.30859375 27.90234375 8.6513671875 27.9970703125 9 28 c 4
 9.3544921875 28 9.7021484375 27.9052734375 10.0078125 27.7265625 c 4
 10.30859375 27.90234375 10.6513671875 27.9970703125 11 28 c 4
 11.3544921875 28 11.7021484375 27.9052734375 12.0078125 27.7265625 c 4
 12.30859375 27.90234375 12.6513671875 27.9970703125 13 28 c 4
 14.1044921875 28 15 27.1044921875 15 26 c 4
 15 24.8955078125 14.1044921875 24 13 24 c 4
 12.6455078125 24 12.2978515625 24.0947265625 11.9921875 24.2734375 c 4
 11.69140625 24.09765625 11.3486328125 24.0029296875 11 24 c 4
 10.6455078125 24 10.2978515625 24.0947265625 9.9921875 24.2734375 c 4
 9.69140625 24.09765625 9.3486328125 24.0029296875 9 24 c 4
 8.6455078125 24 8.2978515625 24.0947265625 7.9921875 24.2734375 c 4
 7.69140625 24.09765625 7.3486328125 24.0029296875 7 24 c 4
 5.8955078125 24 5 24.8955078125 5 26 c 4
 5 27.1044921875 5.8955078125 28 7 28 c 4
5 24 m 4
 6.1044921875 24 7 23.1044921875 7 22 c 4
 7 20.8955078125 6.1044921875 20 5 20 c 4
 3.8955078125 20 3 20.8955078125 3 22 c 4
 3 23.1044921875 3.8955078125 24 5 24 c 4
15 24 m 4
 16.1044921875 24 17 23.1044921875 17 22 c 4
 17 20.8955078125 16.1044921875 20 15 20 c 4
 13.8955078125 20 13 20.8955078125 13 22 c 4
 13 23.1044921875 13.8955078125 24 15 24 c 4
3 20 m 4
 4.1044921875 20 5 19.1044921875 5 18 c 4
 5 16.8955078125 4.1044921875 16 3 16 c 4
 1.8955078125 16 1 16.8955078125 1 18 c 4
 1 19.1044921875 1.8955078125 20 3 20 c 4
3 15.9892578125 m 4
 4.1044921875 15.9892578125 5 15.1044921875 5 14 c 4
 5 12.8955078125 4.1044921875 12 3 12 c 4
 1.8955078125 12 1 12.8955078125 1 14 c 4
 1 15.1044921875 1.8955078125 15.9892578125 3 15.9892578125 c 4
3 11.978515625 m 4
 3.3544921875 11.978515625 3.7021484375 11.9052734375 4.0078125 11.7265625 c 4
 4.30859375 11.90234375 4.6513671875 11.9970703125 5 12 c 4
 5.3544921875 12 5.7021484375 11.9052734375 6.0078125 11.7265625 c 4
 6.30859375 11.90234375 6.6513671875 11.9970703125 7 12 c 4
 7.3544921875 12 7.7021484375 11.9052734375 8.0078125 11.7265625 c 4
 8.30859375 11.90234375 8.6513671875 11.9970703125 9 12 c 4
 9.3544921875 12 9.7021484375 11.9052734375 10.0078125 11.7265625 c 4
 10.30859375 11.90234375 10.6513671875 11.9970703125 11 12 c 4
 11.3544921875 12 11.7021484375 11.9052734375 12.0078125 11.7265625 c 4
 12.30859375 11.90234375 12.6513671875 11.9970703125 13 12 c 4
 13.3544921875 12 13.7021484375 11.9052734375 14.0078125 11.7265625 c 4
 14.30859375 11.90234375 14.6513671875 11.9970703125 15 12 c 4
 15.3544921875 12 15.7021484375 11.9052734375 16.0078125 11.7265625 c 4
 16.30859375 11.90234375 16.6513671875 11.9970703125 17 12 c 4
 18.1044921875 12 19 11.1044921875 19 10 c 4
 19 8.8955078125 18.1044921875 8 17 8 c 4
 16.6455078125 8 16.2978515625 8.0947265625 15.9921875 8.2734375 c 4
 15.69140625 8.09765625 15.3486328125 8.0029296875 15 8 c 4
 14.6455078125 8 14.2978515625 8.0947265625 13.9921875 8.2734375 c 4
 13.69140625 8.09765625 13.3486328125 8.0029296875 13 8 c 4
 12.6455078125 8 12.2978515625 8.0947265625 11.9921875 8.2734375 c 4
 11.69140625 8.09765625 11.3486328125 8.0029296875 11 8 c 4
 10.6455078125 8 10.2978515625 8.0947265625 9.9921875 8.2734375 c 4
 9.69140625 8.09765625 9.3486328125 8.0029296875 9 8 c 4
 8.6455078125 8 8.2978515625 8.0947265625 7.9921875 8.2734375 c 4
 7.69140625 8.09765625 7.3486328125 8.0029296875 7 8 c 4
 6.6455078125 8 6.2978515625 8.0947265625 5.9921875 8.2734375 c 4
 5.69140625 8.09765625 5.3486328125 8.0029296875 5 8 c 4
 4.6455078125 8 4.2978515625 8.0947265625 3.9921875 8.2734375 c 4
 3.69140625 8.09765625 3.3486328125 8.0029296875 3 8 c 4
 1.8955078125 8 1 8.8955078125 1 10 c 4
 1 11.1044921875 1.8955078125 11.978515625 3 11.978515625 c 4
17 12.021484375 m 4
 15.8955078125 12.021484375 15 12.8955078125 15 14 c 4
 15 15.1044921875 15.8955078125 16 17 16 c 4
 18.1044921875 16 19 15.1044921875 19 14 c 4
 19 12.8955078125 18.1044921875 12.021484375 17 12.021484375 c 4
17 16.04296875 m 4
 15.8955078125 16.04296875 15 16.8955078125 15 18 c 4
 15 19.1044921875 15.8955078125 20 17 20 c 4
 18.1044921875 20 19 19.1044921875 19 18 c 4
 19 16.8955078125 18.1044921875 16.04296875 17 16.04296875 c 4
17 7.978515625 m 4
 18.1044921875 7.978515625 19 7.1044921875 19 6 c 4
 19 4.8955078125 18.1044921875 4 17 4 c 4
 15.8955078125 4 15 4.8955078125 15 6 c 4
 15 7.1044921875 15.8955078125 7.978515625 17 7.978515625 c 4
17 3.95703125 m 4
 18.1044921875 3.95703125 19 3.1044921875 19 2 c 4
 19 0.8955078125 18.1044921875 0 17 0 c 4
 15.8955078125 0 15 0.8955078125 15 2 c 4
 15 3.1044921875 15.8955078125 3.95703125 17 3.95703125 c 4
3 7.978515625 m 4
 4.1044921875 7.978515625 5 7.1044921875 5 6 c 4
 5 4.8955078125 4.1044921875 4 3 4 c 4
 1.8955078125 4 1 4.8955078125 1 6 c 4
 1 7.1044921875 1.8955078125 7.978515625 3 7.978515625 c 4
3 3.95703125 m 4
 4.1044921875 3.95703125 5 3.1044921875 5 2 c 4
 5 0.8955078125 4.1044921875 0 3 0 c 4
 1.8955078125 0 1 0.8955078125 1 2 c 4
 1 3.1044921875 1.8955078125 3.95703125 3 3.95703125 c 4
EndSplineSet
EndUndoOperation
UndoOperation
Index: 3
Type: 1
WasModified: 1
WasOrder2: 0
Layer: 2
Width: 20
VWidth: 0
LBearingChange: 0
UnicodeEnc: 0
InstructionsLength: 0
SplineSet
6 28 m 4
 6.3544921875 28 6.7021484375 27.9052734375 7.0078125 27.7265625 c 4
 7.30859375 27.90234375 7.6513671875 27.9970703125 8 28 c 4
 8.3544921875 28 8.7021484375 27.9052734375 9.0078125 27.7265625 c 4
 9.30859375 27.90234375 9.6513671875 27.9970703125 10 28 c 4
 10.3544921875 28 10.7021484375 27.9052734375 11.0078125 27.7265625 c 4
 11.30859375 27.90234375 11.6513671875 27.9970703125 12 28 c 4
 13.1044921875 28 14 27.1044921875 14 26 c 4
 14 24.8955078125 13.1044921875 24 12 24 c 4
 11.6455078125 24 11.2978515625 24.0947265625 10.9921875 24.2734375 c 4
 10.69140625 24.09765625 10.3486328125 24.0029296875 10 24 c 4
 9.6455078125 24 9.2978515625 24.0947265625 8.9921875 24.2734375 c 4
 8.69140625 24.09765625 8.3486328125 24.0029296875 8 24 c 4
 7.6455078125 24 7.2978515625 24.0947265625 6.9921875 24.2734375 c 4
 6.69140625 24.09765625 6.3486328125 24.0029296875 6 24 c 4
 4.8955078125 24 4 24.8955078125 4 26 c 4
 4 27.1044921875 4.8955078125 28 6 28 c 4
4 24 m 4
 5.1044921875 24 6 23.1044921875 6 22 c 4
 6 20.8955078125 5.1044921875 20 4 20 c 4
 2.8955078125 20 2 20.8955078125 2 22 c 4
 2 23.1044921875 2.8955078125 24 4 24 c 4
14 24 m 4
 15.1044921875 24 16 23.1044921875 16 22 c 4
 16 20.8955078125 15.1044921875 20 14 20 c 4
 12.8955078125 20 12 20.8955078125 12 22 c 4
 12 23.1044921875 12.8955078125 24 14 24 c 4
2 20 m 4
 3.1044921875 20 4 19.1044921875 4 18 c 4
 4 16.8955078125 3.1044921875 16 2 16 c 4
 0.8955078125 16 0 16.8955078125 0 18 c 4
 0 19.1044921875 0.8955078125 20 2 20 c 4
2 15.9892578125 m 4
 3.1044921875 15.9892578125 4 15.1044921875 4 14 c 4
 4 12.8955078125 3.1044921875 12 2 12 c 4
 0.8955078125 12 0 12.8955078125 0 14 c 4
 0 15.1044921875 0.8955078125 15.9892578125 2 15.9892578125 c 4
2 11.978515625 m 4
 2.3544921875 11.978515625 2.7021484375 11.9052734375 3.0078125 11.7265625 c 4
 3.30859375 11.90234375 3.6513671875 11.9970703125 4 12 c 4
 4.3544921875 12 4.7021484375 11.9052734375 5.0078125 11.7265625 c 4
 5.30859375 11.90234375 5.6513671875 11.9970703125 6 12 c 4
 6.3544921875 12 6.7021484375 11.9052734375 7.0078125 11.7265625 c 4
 7.30859375 11.90234375 7.6513671875 11.9970703125 8 12 c 4
 8.3544921875 12 8.7021484375 11.9052734375 9.0078125 11.7265625 c 4
 9.30859375 11.90234375 9.6513671875 11.9970703125 10 12 c 4
 10.3544921875 12 10.7021484375 11.9052734375 11.0078125 11.7265625 c 4
 11.30859375 11.90234375 11.6513671875 11.9970703125 12 12 c 4
 12.3544921875 12 12.7021484375 11.9052734375 13.0078125 11.7265625 c 4
 13.30859375 11.90234375 13.6513671875 11.9970703125 14 12 c 4
 14.3544921875 12 14.7021484375 11.9052734375 15.0078125 11.7265625 c 4
 15.30859375 11.90234375 15.6513671875 11.9970703125 16 12 c 4
 17.1044921875 12 18 11.1044921875 18 10 c 4
 18 8.8955078125 17.1044921875 8 16 8 c 4
 15.6455078125 8 15.2978515625 8.0947265625 14.9921875 8.2734375 c 4
 14.69140625 8.09765625 14.3486328125 8.0029296875 14 8 c 4
 13.6455078125 8 13.2978515625 8.0947265625 12.9921875 8.2734375 c 4
 12.69140625 8.09765625 12.3486328125 8.0029296875 12 8 c 4
 11.6455078125 8 11.2978515625 8.0947265625 10.9921875 8.2734375 c 4
 10.69140625 8.09765625 10.3486328125 8.0029296875 10 8 c 4
 9.6455078125 8 9.2978515625 8.0947265625 8.9921875 8.2734375 c 4
 8.69140625 8.09765625 8.3486328125 8.0029296875 8 8 c 4
 7.6455078125 8 7.2978515625 8.0947265625 6.9921875 8.2734375 c 4
 6.69140625 8.09765625 6.3486328125 8.0029296875 6 8 c 4
 5.6455078125 8 5.2978515625 8.0947265625 4.9921875 8.2734375 c 4
 4.69140625 8.09765625 4.3486328125 8.0029296875 4 8 c 4
 3.6455078125 8 3.2978515625 8.0947265625 2.9921875 8.2734375 c 4
 2.69140625 8.09765625 2.3486328125 8.0029296875 2 8 c 4
 0.8955078125 8 0 8.8955078125 0 10 c 4
 0 11.1044921875 0.8955078125 11.978515625 2 11.978515625 c 4
16 12.021484375 m 4
 14.8955078125 12.021484375 14 12.8955078125 14 14 c 4
 14 15.1044921875 14.8955078125 16 16 16 c 4
 17.1044921875 16 18 15.1044921875 18 14 c 4
 18 12.8955078125 17.1044921875 12.021484375 16 12.021484375 c 4
16 16.04296875 m 4
 14.8955078125 16.04296875 14 16.8955078125 14 18 c 4
 14 19.1044921875 14.8955078125 20 16 20 c 4
 17.1044921875 20 18 19.1044921875 18 18 c 4
 18 16.8955078125 17.1044921875 16.04296875 16 16.04296875 c 4
16 7.978515625 m 4
 17.1044921875 7.978515625 18 7.1044921875 18 6 c 4
 18 4.8955078125 17.1044921875 4 16 4 c 4
 14.8955078125 4 14 4.8955078125 14 6 c 4
 14 7.1044921875 14.8955078125 7.978515625 16 7.978515625 c 4
16 3.95703125 m 4
 17.1044921875 3.95703125 18 3.1044921875 18 2 c 4
 18 0.8955078125 17.1044921875 -0 16 -0 c 4
 14.8955078125 -0 14 0.8955078125 14 2 c 4
 14 3.1044921875 14.8955078125 3.95703125 16 3.95703125 c 4
2 7.978515625 m 4
 3.1044921875 7.978515625 4 7.1044921875 4 6 c 4
 4 4.8955078125 3.1044921875 4 2 4 c 4
 0.8955078125 4 0 4.8955078125 0 6 c 4
 0 7.1044921875 0.8955078125 7.978515625 2 7.978515625 c 4
2 3.95703125 m 4
 3.1044921875 3.95703125 4 3.1044921875 4 2 c 4
 4 0.8955078125 3.1044921875 -0 2 -0 c 4
 0.8955078125 -0 0 0.8955078125 0 2 c 4
 0 3.1044921875 0.8955078125 3.95703125 2 3.95703125 c 4
EndSplineSet
EndUndoOperation
UndoOperation
Index: 4
Type: 1
WasModified: 1
WasOrder2: 0
Layer: 2
Width: 20
VWidth: 0
LBearingChange: 0
UnicodeEnc: 0
InstructionsLength: 0
EndUndoOperation
UndoOperation
Index: 5
Type: 3
WasModified: 1
WasOrder2: 0
Layer: 2
EndUndoOperation
UndoOperation
Index: 6
Type: 1
WasModified: 0
WasOrder2: 0
Layer: 2
Width: 20
VWidth: 0
LBearingChange: 0
UnicodeEnc: 0
InstructionsLength: 0
SplineSet
7 28 m 4
 7.298828125 28 7.75 27.876953125 8.0078125 27.7265625 c 4
 8.26171875 27.875 8.7060546875 27.9970703125 9 28 c 4
 9.298828125 28 9.75 27.876953125 10.0078125 27.7265625 c 4
 10.26171875 27.875 10.7060546875 27.9970703125 11 28 c 4
 11.298828125 28 11.75 27.876953125 12.0078125 27.7265625 c 4
 12.26171875 27.875 12.7060546875 27.9970703125 13 28 c 4
 14.103515625 28 15 27.103515625 15 26 c 4
 15 24.896484375 14.103515625 24 13 24 c 4
 12.701171875 24 12.25 24.123046875 11.9921875 24.2734375 c 4
 11.73828125 24.125 11.2939453125 24.0029296875 11 24 c 4
 10.701171875 24 10.25 24.123046875 9.9921875 24.2734375 c 4
 9.73828125 24.125 9.2939453125 24.0029296875 9 24 c 4
 8.701171875 24 8.25 24.123046875 7.9921875 24.2734375 c 4
 7.73828125 24.125 7.2939453125 24.0029296875 7 24 c 4
 5.896484375 24 5 24.896484375 5 26 c 4
 5 27.103515625 5.896484375 28 7 28 c 4
5 24 m 4
 6.103515625 24 7 23.103515625 7 22 c 4
 7 20.896484375 6.103515625 20 5 20 c 4
 3.896484375 20 3 20.896484375 3 22 c 4
 3 23.103515625 3.896484375 24 5 24 c 4
15 24 m 4
 16.103515625 24 17 23.103515625 17 22 c 4
 17 20.896484375 16.103515625 20 15 20 c 4
 13.896484375 20 13 20.896484375 13 22 c 4
 13 23.103515625 13.896484375 24 15 24 c 4
3 20 m 4
 4.103515625 20 5 19.103515625 5 18 c 4
 5 16.896484375 4.103515625 16 3 16 c 4
 1.896484375 16 1 16.896484375 1 18 c 4
 1 19.103515625 1.896484375 20 3 20 c 4
3 16 m 4
 4.103515625 16 5 15.103515625 5 14 c 4
 5 12.896484375 4.103515625 12 3 12 c 4
 1.896484375 12 1 12.896484375 1 14 c 4
 1 15.103515625 1.896484375 16 3 16 c 4
3 12 m 4
 3.298828125 12 3.75 11.876953125 4.0078125 11.7265625 c 4
 4.26171875 11.875 4.7060546875 11.9970703125 5 12 c 4
 5.298828125 12 5.75 11.876953125 6.0078125 11.7265625 c 4
 6.26171875 11.875 6.7060546875 11.9970703125 7 12 c 4
 7.298828125 12 7.75 11.876953125 8.0078125 11.7265625 c 4
 8.26171875 11.875 8.7060546875 11.9970703125 9 12 c 4
 9.298828125 12 9.75 11.876953125 10.0078125 11.7265625 c 4
 10.26171875 11.875 10.7060546875 11.9970703125 11 12 c 4
 11.298828125 12 11.75 11.876953125 12.0078125 11.7265625 c 4
 12.26171875 11.875 12.7060546875 11.9970703125 13 12 c 4
 13.298828125 12 13.75 11.876953125 14.0078125 11.7265625 c 4
 14.26171875 11.875 14.7060546875 11.9970703125 15 12 c 4
 15.298828125 12 15.75 11.876953125 16.0078125 11.7265625 c 4
 16.26171875 11.875 16.7060546875 11.9970703125 17 12 c 4
 18.103515625 12 19 11.103515625 19 10 c 4
 19 8.896484375 18.103515625 8 17 8 c 4
 16.701171875 8 16.25 8.123046875 15.9921875 8.2734375 c 4
 15.73828125 8.125 15.2939453125 8.0029296875 15 8 c 4
 14.701171875 8 14.25 8.123046875 13.9921875 8.2734375 c 4
 13.73828125 8.125 13.2939453125 8.0029296875 13 8 c 4
 12.701171875 8 12.25 8.123046875 11.9921875 8.2734375 c 4
 11.73828125 8.125 11.2939453125 8.0029296875 11 8 c 4
 10.701171875 8 10.25 8.123046875 9.9921875 8.2734375 c 4
 9.73828125 8.125 9.2939453125 8.0029296875 9 8 c 4
 8.701171875 8 8.25 8.123046875 7.9921875 8.2734375 c 4
 7.73828125 8.125 7.2939453125 8.0029296875 7 8 c 4
 6.701171875 8 6.25 8.123046875 5.9921875 8.2734375 c 4
 5.73828125 8.125 5.2939453125 8.0029296875 5 8 c 4
 4.701171875 8 4.25 8.123046875 3.9921875 8.2734375 c 4
 3.73828125 8.125 3.2939453125 8.0029296875 3 8 c 4
 1.896484375 8 1 8.896484375 1 10 c 4
 1 11.103515625 1.896484375 12 3 12 c 4
17 12 m 4
 15.896484375 12 15 12.896484375 15 14 c 4
 15 15.103515625 15.896484375 16 17 16 c 4
 18.103515625 16 19 15.103515625 19 14 c 4
 19 12.896484375 18.103515625 12 17 12 c 4
17 16 m 4
 15.896484375 16 15 16.896484375 15 18 c 4
 15 19.103515625 15.896484375 20 17 20 c 4
 18.103515625 20 19 19.103515625 19 18 c 4
 19 16.896484375 18.103515625 16 17 16 c 4
17 8 m 4
 18.103515625 8 19 7.103515625 19 6 c 4
 19 4.896484375 18.103515625 4 17 4 c 4
 15.896484375 4 15 4.896484375 15 6 c 4
 15 7.103515625 15.896484375 8 17 8 c 4
17 4 m 4
 18.103515625 4 19 3.103515625 19 2 c 4
 19 0.896484375 18.103515625 0 17 0 c 4
 15.896484375 0 15 0.896484375 15 2 c 4
 15 3.103515625 15.896484375 4 17 4 c 4
3 8 m 4
 4.103515625 8 5 7.103515625 5 6 c 4
 5 4.896484375 4.103515625 4 3 4 c 4
 1.896484375 4 1 4.896484375 1 6 c 4
 1 7.103515625 1.896484375 8 3 8 c 4
3 4 m 4
 4.103515625 4 5 3.103515625 5 2 c 4
 5 0.896484375 4.103515625 0 3 0 c 4
 1.896484375 0 1 0.896484375 1 2 c 4
 1 3.103515625 1.896484375 4 3 4 c 4
EndSplineSet
EndUndoOperation
UndoOperation
Index: 7
Type: 1
WasModified: 0
WasOrder2: 0
Layer: 2
Width: 20
VWidth: 0
LBearingChange: 0
UnicodeEnc: 0
InstructionsLength: 0
SplineSet
6 28 m 4
 6.298828125 28 6.75 27.876953125 7.0078125 27.7265625 c 4
 7.26171875 27.875 7.7060546875 27.9970703125 8 28 c 4
 8.298828125 28 8.75 27.876953125 9.0078125 27.7265625 c 4
 9.26171875 27.875 9.7060546875 27.9970703125 10 28 c 4
 10.298828125 28 10.75 27.876953125 11.0078125 27.7265625 c 4
 11.26171875 27.875 11.7060546875 27.9970703125 12 28 c 4
 13.103515625 28 14 27.103515625 14 26 c 4
 14 24.896484375 13.103515625 24 12 24 c 4
 11.701171875 24 11.25 24.123046875 10.9921875 24.2734375 c 4
 10.73828125 24.125 10.2939453125 24.0029296875 10 24 c 4
 9.701171875 24 9.25 24.123046875 8.9921875 24.2734375 c 4
 8.73828125 24.125 8.2939453125 24.0029296875 8 24 c 4
 7.701171875 24 7.25 24.123046875 6.9921875 24.2734375 c 4
 6.73828125 24.125 6.2939453125 24.0029296875 6 24 c 4
 4.896484375 24 4 24.896484375 4 26 c 4
 4 27.103515625 4.896484375 28 6 28 c 4
4 24 m 4
 5.103515625 24 6 23.103515625 6 22 c 4
 6 20.896484375 5.103515625 20 4 20 c 4
 2.896484375 20 2 20.896484375 2 22 c 4
 2 23.103515625 2.896484375 24 4 24 c 4
14 24 m 4
 15.103515625 24 16 23.103515625 16 22 c 4
 16 20.896484375 15.103515625 20 14 20 c 4
 12.896484375 20 12 20.896484375 12 22 c 4
 12 23.103515625 12.896484375 24 14 24 c 4
2 20 m 4
 3.103515625 20 4 19.103515625 4 18 c 4
 4 16.896484375 3.103515625 16 2 16 c 4
 0.896484375 16 0 16.896484375 0 18 c 4
 0 19.103515625 0.896484375 20 2 20 c 4
2 16 m 4
 3.103515625 16 4 15.103515625 4 14 c 4
 4 12.896484375 3.103515625 12 2 12 c 4
 0.896484375 12 0 12.896484375 0 14 c 4
 0 15.103515625 0.896484375 16 2 16 c 4
2 12 m 4
 2.298828125 12 2.75 11.876953125 3.0078125 11.7265625 c 4
 3.26171875 11.875 3.7060546875 11.9970703125 4 12 c 4
 4.298828125 12 4.75 11.876953125 5.0078125 11.7265625 c 4
 5.26171875 11.875 5.7060546875 11.9970703125 6 12 c 4
 6.298828125 12 6.75 11.876953125 7.0078125 11.7265625 c 4
 7.26171875 11.875 7.7060546875 11.9970703125 8 12 c 4
 8.298828125 12 8.75 11.876953125 9.0078125 11.7265625 c 4
 9.26171875 11.875 9.7060546875 11.9970703125 10 12 c 4
 10.298828125 12 10.75 11.876953125 11.0078125 11.7265625 c 4
 11.26171875 11.875 11.7060546875 11.9970703125 12 12 c 4
 12.298828125 12 12.75 11.876953125 13.0078125 11.7265625 c 4
 13.26171875 11.875 13.7060546875 11.9970703125 14 12 c 4
 14.298828125 12 14.75 11.876953125 15.0078125 11.7265625 c 4
 15.26171875 11.875 15.7060546875 11.9970703125 16 12 c 4
 17.103515625 12 18 11.103515625 18 10 c 4
 18 8.896484375 17.103515625 8 16 8 c 4
 15.701171875 8 15.25 8.123046875 14.9921875 8.2734375 c 4
 14.73828125 8.125 14.2939453125 8.0029296875 14 8 c 4
 13.701171875 8 13.25 8.123046875 12.9921875 8.2734375 c 4
 12.73828125 8.125 12.2939453125 8.0029296875 12 8 c 4
 11.701171875 8 11.25 8.123046875 10.9921875 8.2734375 c 4
 10.73828125 8.125 10.2939453125 8.0029296875 10 8 c 4
 9.701171875 8 9.25 8.123046875 8.9921875 8.2734375 c 4
 8.73828125 8.125 8.2939453125 8.0029296875 8 8 c 4
 7.701171875 8 7.25 8.123046875 6.9921875 8.2734375 c 4
 6.73828125 8.125 6.2939453125 8.0029296875 6 8 c 4
 5.701171875 8 5.25 8.123046875 4.9921875 8.2734375 c 4
 4.73828125 8.125 4.2939453125 8.0029296875 4 8 c 4
 3.701171875 8 3.25 8.123046875 2.9921875 8.2734375 c 4
 2.73828125 8.125 2.2939453125 8.0029296875 2 8 c 4
 0.896484375 8 0 8.896484375 0 10 c 4
 0 11.103515625 0.896484375 12 2 12 c 4
16 12 m 4
 14.896484375 12 14 12.896484375 14 14 c 4
 14 15.103515625 14.896484375 16 16 16 c 4
 17.103515625 16 18 15.103515625 18 14 c 4
 18 12.896484375 17.103515625 12 16 12 c 4
16 16 m 4
 14.896484375 16 14 16.896484375 14 18 c 4
 14 19.103515625 14.896484375 20 16 20 c 4
 17.103515625 20 18 19.103515625 18 18 c 4
 18 16.896484375 17.103515625 16 16 16 c 4
16 8 m 4
 17.103515625 8 18 7.103515625 18 6 c 4
 18 4.896484375 17.103515625 4 16 4 c 4
 14.896484375 4 14 4.896484375 14 6 c 4
 14 7.103515625 14.896484375 8 16 8 c 4
16 4 m 4
 17.103515625 4 18 3.103515625 18 2 c 4
 18 0.896484375 17.103515625 0 16 0 c 4
 14.896484375 0 14 0.896484375 14 2 c 4
 14 3.103515625 14.896484375 4 16 4 c 4
2 8 m 4
 3.103515625 8 4 7.103515625 4 6 c 4
 4 4.896484375 3.103515625 4 2 4 c 4
 0.896484375 4 0 4.896484375 0 6 c 4
 0 7.103515625 0.896484375 8 2 8 c 4
2 4 m 4
 3.103515625 4 4 3.103515625 4 2 c 4
 4 0.896484375 3.103515625 0 2 0 c 4
 0.896484375 0 0 0.896484375 0 2 c 4
 0 3.103515625 0.896484375 4 2 4 c 4
EndSplineSet
EndUndoOperation
EndUndoes
Redoes
EndRedoes
EndUndoRedoHistory
Fore
SplineSet
70 280 m 4
 74 280 77 279 80 277 c 4
 83 279 87 280 90 280 c 4
 94 280 97 279 100 277 c 4
 103 279 107 280 110 280 c 4
 114 280 117 279 120 277 c 4
 123 279 127 280 130 280 c 4
 141 280 150 271 150 260 c 4
 150 249 141 240 130 240 c 4
 126 240 123 241 120 243 c 4
 117 241 113 240 110 240 c 4
 106 240 103 241 100 243 c 4
 97 241 93 240 90 240 c 4
 86 240 83 241 80 243 c 4
 77 241 73 240 70 240 c 4
 59 240 50 249 50 260 c 4
 50 271 59 280 70 280 c 4
50 240 m 4
 61 240 70 231 70 220 c 4
 70 209 61 200 50 200 c 4
 39 200 30 209 30 220 c 4
 30 231 39 240 50 240 c 4
150 240 m 4
 161 240 170 231 170 220 c 4
 170 209 161 200 150 200 c 4
 139 200 130 209 130 220 c 4
 130 231 139 240 150 240 c 4
30 200 m 4
 41 200 50 191 50 180 c 4
 50 169 41 160 30 160 c 4
 19 160 10 169 10 180 c 4
 10 191 19 200 30 200 c 4
30 160 m 4
 41 160 50 151 50 140 c 4
 50 129 41 120 30 120 c 4
 19 120 10 129 10 140 c 4
 10 151 19 160 30 160 c 4
30 120 m 4
 34 120 37 119 40 117 c 4
 43 119 47 120 50 120 c 4
 54 120 57 119 60 117 c 4
 63 119 67 120 70 120 c 4
 74 120 77 119 80 117 c 4
 83 119 87 120 90 120 c 4
 94 120 97 119 100 117 c 4
 103 119 107 120 110 120 c 4
 114 120 117 119 120 117 c 4
 123 119 127 120 130 120 c 4
 134 120 137 119 140 117 c 4
 143 119 147 120 150 120 c 4
 154 120 157 119 160 117 c 4
 163 119 167 120 170 120 c 4
 181 120 190 111 190 100 c 4
 190 89 181 80 170 80 c 4
 166 80 163 81 160 83 c 4
 157 81 153 80 150 80 c 4
 146 80 143 81 140 83 c 4
 137 81 133 80 130 80 c 4
 126 80 123 81 120 83 c 4
 117 81 113 80 110 80 c 4
 106 80 103 81 100 83 c 4
 97 81 93 80 90 80 c 4
 86 80 83 81 80 83 c 4
 77 81 73 80 70 80 c 4
 66 80 63 81 60 83 c 4
 57 81 53 80 50 80 c 4
 46 80 43 81 40 83 c 4
 37 81 33 80 30 80 c 4
 19 80 10 89 10 100 c 4
 10 111 19 120 30 120 c 4
170 120 m 4
 159 120 150 129 150 140 c 4
 150 151 159 160 170 160 c 4
 181 160 190 151 190 140 c 4
 190 129 181 120 170 120 c 4
170 160 m 4
 159 160 150 169 150 180 c 4
 150 191 159 200 170 200 c 4
 181 200 190 191 190 180 c 4
 190 169 181 160 170 160 c 4
170 80 m 4
 181 80 190 71 190 60 c 4
 190 49 181 40 170 40 c 4
 159 40 150 49 150 60 c 4
 150 71 159 80 170 80 c 4
170 40 m 4
 181 40 190 31 190 20 c 4
 190 9 181 0 170 0 c 4
 159 0 150 9 150 20 c 4
 150 31 159 40 170 40 c 4
30 80 m 4
 41 80 50 71 50 60 c 4
 50 49 41 40 30 40 c 4
 19 40 10 49 10 60 c 4
 10 71 19 80 30 80 c 4
30 40 m 4
 41 40 50 31 50 20 c 4
 50 9 41 0 30 0 c 4
 19 0 10 9 10 20 c 4
 10 31 19 40 30 40 c 4
EndSplineSet
EndChar

StartChar: g
Encoding: 103 103 1
Width: 200
VWidth: 0
Flags: HW
LayerCount: 2
UndoRedoHistory
Layer: 0
Undoes
UndoOperation
Index: 0
Type: 1
WasModified: 0
WasOrder2: 0
Layer: 2
Width: 20
VWidth: 0
LBearingChange: 0
UnicodeEnc: 0
InstructionsLength: 0
EndUndoOperation
EndUndoes
Redoes
EndRedoes
EndUndoRedoHistory
UndoRedoHistory
Layer: 1
Undoes
UndoOperation
Index: 0
Type: 3
WasModified: 0
WasOrder2: 0
Layer: 2
EndUndoOperation
UndoOperation
Index: 1
Type: 1
WasModified: 1
WasOrder2: 0
Layer: 2
Width: 20
VWidth: 0
LBearingChange: 0
UnicodeEnc: 0
InstructionsLength: 0
SplineSet
5 19.73046875 m 4
 5.2958984375 19.73046875 5.744140625 19.609375 6 19.4609375 c 4
 6.255859375 19.609375 6.7041015625 19.73046875 7 19.73046875 c 4
 7.2958984375 19.73046875 7.744140625 19.609375 8 19.4609375 c 4
 8.255859375 19.609375 8.7041015625 19.73046875 9 19.73046875 c 4
 9.2958984375 19.73046875 9.744140625 19.609375 10 19.4609375 c 4
 10.255859375 19.609375 10.7041015625 19.73046875 11 19.73046875 c 4
 11.2958984375 19.73046875 11.744140625 19.609375 12 19.4609375 c 4
 12.255859375 19.609375 12.7041015625 19.73046875 13 19.73046875 c 4
 14.103515625 19.73046875 15 18.833984375 15 17.73046875 c 4
 15 16.626953125 14.103515625 15.73046875 13 15.73046875 c 4
 12.7041015625 15.73046875 12.255859375 15.8515625 12 16 c 4
 11.744140625 15.8515625 11.2958984375 15.73046875 11 15.73046875 c 4
 10.7041015625 15.73046875 10.255859375 15.8515625 10 16 c 4
 9.744140625 15.8515625 9.2958984375 15.73046875 9 15.73046875 c 4
 8.7041015625 15.73046875 8.255859375 15.8515625 8 16 c 4
 7.744140625 15.8515625 7.2958984375 15.73046875 7 15.73046875 c 4
 6.7041015625 15.73046875 6.255859375 15.8515625 6 16 c 4
 5.744140625 15.8515625 5.2958984375 15.73046875 5 15.73046875 c 4
 3.896484375 15.73046875 3 16.626953125 3 17.73046875 c 4
 3 18.833984375 3.896484375 19.73046875 5 19.73046875 c 4
3 15.73046875 m 4
 4.103515625 15.73046875 5 14.833984375 5 13.73046875 c 4
 5 12.626953125 4.103515625 11.73046875 3 11.73046875 c 4
 1.896484375 11.73046875 1 12.626953125 1 13.73046875 c 4
 1 14.833984375 1.896484375 15.73046875 3 15.73046875 c 4
3 11.73046875 m 4
 4.103515625 11.73046875 5 10.833984375 5 9.73046875 c 4
 5 8.626953125 4.103515625 7.73046875 3 7.73046875 c 4
 1.896484375 7.73046875 1 8.626953125 1 9.73046875 c 4
 1 10.833984375 1.896484375 11.73046875 3 11.73046875 c 4
3 7.73046875 m 4
 4.103515625 7.73046875 5 6.833984375 5 5.73046875 c 4
 5 4.626953125 4.103515625 3.73046875 3 3.73046875 c 4
 1.896484375 3.73046875 1 4.626953125 1 5.73046875 c 4
 1 6.833984375 1.896484375 7.73046875 3 7.73046875 c 4
15 15.73046875 m 4
 16.103515625 15.73046875 17 14.833984375 17 13.73046875 c 4
 17 12.626953125 16.103515625 11.73046875 15 11.73046875 c 4
 13.896484375 11.73046875 13 12.626953125 13 13.73046875 c 4
 13 14.833984375 13.896484375 15.73046875 15 15.73046875 c 4
15 11.73046875 m 4
 16.103515625 11.73046875 17 10.833984375 17 9.73046875 c 4
 17 8.626953125 16.103515625 7.73046875 15 7.73046875 c 4
 13.896484375 7.73046875 13 8.626953125 13 9.73046875 c 4
 13 10.833984375 13.896484375 11.73046875 15 11.73046875 c 4
15 7.73046875 m 4
 16.103515625 7.73046875 17 6.833984375 17 5.73046875 c 4
 17 4.626953125 16.103515625 3.73046875 15 3.73046875 c 4
 13.896484375 3.73046875 13 4.626953125 13 5.73046875 c 4
 13 6.833984375 13.896484375 7.73046875 15 7.73046875 c 4
15 3.73046875 m 4
 16.103515625 3.73046875 17 2.833984375 17 1.73046875 c 4
 17 0.626953125 16.103515625 -0.26953125 15 -0.26953125 c 4
 14.7041015625 -0.26953125 14.255859375 -0.1484375 14 0 c 4
 13.744140625 -0.1484375 13.2958984375 -0.26953125 13 -0.26953125 c 4
 12.7041015625 -0.26953125 12.255859375 -0.1484375 12 0 c 4
 11.744140625 -0.1484375 11.2958984375 -0.26953125 11 -0.26953125 c 4
 10.7041015625 -0.26953125 10.255859375 -0.1484375 10 0 c 4
 9.744140625 -0.1484375 9.2958984375 -0.26953125 9 -0.26953125 c 4
 8.7041015625 -0.26953125 8.255859375 -0.1484375 8 0 c 4
 7.744140625 -0.1484375 7.2958984375 -0.26953125 7 -0.26953125 c 4
 6.7041015625 -0.26953125 6.255859375 -0.1484375 6 0 c 4
 5.744140625 -0.1484375 5.2958984375 -0.26953125 5 -0.26953125 c 4
 3.896484375 -0.26953125 3 0.626953125 3 1.73046875 c 4
 3 2.833984375 3.896484375 3.73046875 5 3.73046875 c 4
 5.2958984375 3.73046875 5.744140625 3.609375 6 3.4609375 c 4
 6.255859375 3.609375 6.7041015625 3.73046875 7 3.73046875 c 4
 7.2958984375 3.73046875 7.744140625 3.609375 8 3.4609375 c 4
 8.255859375 3.609375 8.7041015625 3.73046875 9 3.73046875 c 4
 9.2958984375 3.73046875 9.744140625 3.609375 10 3.4609375 c 4
 10.255859375 3.609375 10.7041015625 3.73046875 11 3.73046875 c 4
 11.2958984375 3.73046875 11.744140625 3.609375 12 3.4609375 c 4
 12.255859375 3.609375 12.7041015625 3.73046875 13 3.73046875 c 4
 13.2958984375 3.73046875 13.744140625 3.609375 14 3.4609375 c 4
 14.255859375 3.609375 14.7041015625 3.73046875 15 3.73046875 c 4
15 -0.26953125 m 4
 16.103515625 -0.26953125 17 -1.166015625 17 -2.26953125 c 4
 17 -3.373046875 16.103515625 -4.26953125 15 -4.26953125 c 4
 13.896484375 -4.26953125 13 -3.373046875 13 -2.26953125 c 4
 13 -1.166015625 13.896484375 -0.26953125 15 -0.26953125 c 4
5 -4.26953125 m 4
 5.2958984375 -4.26953125 5.744140625 -4.390625 6 -4.5390625 c 4
 6.255859375 -4.390625 6.7041015625 -4.26953125 7 -4.26953125 c 4
 7.2958984375 -4.26953125 7.744140625 -4.390625 8 -4.5390625 c 4
 8.255859375 -4.390625 8.7041015625 -4.26953125 9 -4.26953125 c 4
 9.2958984375 -4.26953125 9.744140625 -4.390625 10 -4.5390625 c 4
 10.255859375 -4.390625 10.7041015625 -4.26953125 11 -4.26953125 c 4
 11.2958984375 -4.26953125 11.744140625 -4.390625 12 -4.5390625 c 4
 12.255859375 -4.390625 12.7041015625 -4.26953125 13 -4.26953125 c 4
 14.103515625 -4.26953125 15 -5.166015625 15 -6.26953125 c 4
 15 -7.373046875 14.103515625 -8.26953125 13 -8.26953125 c 4
 12.7041015625 -8.26953125 12.255859375 -8.1484375 12 -8 c 4
 11.744140625 -8.1484375 11.2958984375 -8.26953125 11 -8.26953125 c 4
 10.7041015625 -8.26953125 10.255859375 -8.1484375 10 -8 c 4
 9.744140625 -8.1484375 9.2958984375 -8.26953125 9 -8.26953125 c 4
 8.7041015625 -8.26953125 8.255859375 -8.1484375 8 -8 c 4
 7.744140625 -8.1484375 7.2958984375 -8.26953125 7 -8.26953125 c 4
 6.7041015625 -8.26953125 6.255859375 -8.1484375 6 -8 c 4
 5.744140625 -8.1484375 5.2958984375 -8.26953125 5 -8.26953125 c 4
 3.896484375 -8.26953125 3 -7.373046875 3 -6.26953125 c 4
 3 -5.166015625 3.896484375 -4.26953125 5 -4.26953125 c 4
EndSplineSet
EndUndoOperation
EndUndoes
Redoes
EndRedoes
EndUndoRedoHistory
Fore
SplineSet
60 197 m 4
 63 197 67 196 70 195 c 4
 73 196 77 197 80 197 c 4
 83 197 87 196 90 195 c 4
 93 196 97 197 100 197 c 4
 103 197 107 196 110 195 c 4
 113 196 117 197 120 197 c 4
 123 197 127 196 130 195 c 4
 133 196 137 197 140 197 c 4
 151 197 160 188 160 177 c 4
 160 166 151 157 140 157 c 4
 137 157 133 159 130 160 c 4
 127 159 123 157 120 157 c 4
 117 157 113 159 110 160 c 4
 107 159 103 157 100 157 c 4
 97 157 93 159 90 160 c 4
 87 159 83 157 80 157 c 4
 77 157 73 159 70 160 c 4
 67 159 63 157 60 157 c 4
 49 157 40 166 40 177 c 4
 40 188 49 197 60 197 c 4
40 157 m 4
 51 157 60 148 60 137 c 4
 60 126 51 117 40 117 c 4
 29 117 20 126 20 137 c 4
 20 148 29 157 40 157 c 4
40 117 m 4
 51 117 60 108 60 97 c 4
 60 86 51 77 40 77 c 4
 29 77 20 86 20 97 c 4
 20 108 29 117 40 117 c 4
40 77 m 4
 51 77 60 68 60 57 c 4
 60 46 51 37 40 37 c 4
 29 37 20 46 20 57 c 4
 20 68 29 77 40 77 c 4
160 157 m 4
 171 157 180 148 180 137 c 4
 180 126 171 117 160 117 c 4
 149 117 140 126 140 137 c 4
 140 148 149 157 160 157 c 4
160 117 m 4
 171 117 180 108 180 97 c 4
 180 86 171 77 160 77 c 4
 149 77 140 86 140 97 c 4
 140 108 149 117 160 117 c 4
160 77 m 4
 171 77 180 68 180 57 c 4
 180 46 171 37 160 37 c 4
 149 37 140 46 140 57 c 4
 140 68 149 77 160 77 c 4
160 37 m 4
 171 37 180 28 180 17 c 4
 180 6 171 -3 160 -3 c 4
 157 -3 153 -1 150 0 c 4
 147 -1 143 -3 140 -3 c 4
 137 -3 133 -1 130 0 c 4
 127 -1 123 -3 120 -3 c 4
 117 -3 113 -1 110 0 c 4
 107 -1 103 -3 100 -3 c 4
 97 -3 93 -1 90 0 c 4
 87 -1 83 -3 80 -3 c 4
 77 -3 73 -1 70 0 c 4
 67 -1 63 -3 60 -3 c 4
 49 -3 40 6 40 17 c 4
 40 28 49 37 60 37 c 4
 63 37 67 36 70 35 c 4
 73 36 77 37 80 37 c 4
 83 37 87 36 90 35 c 4
 93 36 97 37 100 37 c 4
 103 37 107 36 110 35 c 4
 113 36 117 37 120 37 c 4
 123 37 127 36 130 35 c 4
 133 36 137 37 140 37 c 4
 143 37 147 36 150 35 c 4
 153 36 157 37 160 37 c 4
160 -3 m 4
 171 -3 180 -12 180 -23 c 4
 180 -34 171 -43 160 -43 c 4
 149 -43 140 -34 140 -23 c 4
 140 -12 149 -3 160 -3 c 4
60 -43 m 4
 63 -43 67 -44 70 -45 c 4
 73 -44 77 -43 80 -43 c 4
 83 -43 87 -44 90 -45 c 4
 93 -44 97 -43 100 -43 c 4
 103 -43 107 -44 110 -45 c 4
 113 -44 117 -43 120 -43 c 4
 123 -43 127 -44 130 -45 c 4
 133 -44 137 -43 140 -43 c 4
 151 -43 160 -52 160 -63 c 4
 160 -74 151 -83 140 -83 c 4
 137 -83 133 -81 130 -80 c 4
 127 -81 123 -83 120 -83 c 4
 117 -83 113 -81 110 -80 c 4
 107 -81 103 -83 100 -83 c 4
 97 -83 93 -81 90 -80 c 4
 87 -81 83 -83 80 -83 c 4
 77 -83 73 -81 70 -80 c 4
 67 -81 63 -83 60 -83 c 4
 49 -83 40 -74 40 -63 c 4
 40 -52 49 -43 60 -43 c 4
EndSplineSet
EndChar

StartChar: uni0000
Encoding: 0 0 2
Width: 200
VWidth: 0
Flags: HW
LayerCount: 2
UndoRedoHistory
Layer: 0
Undoes
UndoOperation
Index: 0
Type: 1
WasModified: 0
WasOrder2: 0
Layer: 2
Width: 20
VWidth: 0
LBearingChange: 0
UnicodeEnc: 0
InstructionsLength: 0
EndUndoOperation
EndUndoes
Redoes
EndRedoes
EndUndoRedoHistory
UndoRedoHistory
Layer: 1
Undoes
UndoOperation
Index: 0
Type: 3
WasModified: 0
WasOrder2: 0
Layer: 2
EndUndoOperation
UndoOperation
Index: 1
Type: 1
WasModified: 1
WasOrder2: 0
Layer: 2
Width: 20
VWidth: 0
LBearingChange: 0
UnicodeEnc: 0
InstructionsLength: 0
SplineSet
5 20 m 25
 13 20 l 25
 13 13 l 25
 5 13 l 1053
EndSplineSet
EndUndoOperation
EndUndoes
Redoes
EndRedoes
EndUndoRedoHistory
Fore
SplineSet
50 200 m 29
 130 200 l 25
 130 130 l 25
 50 130 l 25
 50 200 l 29
EndSplineSet
EndChar

StartChar: exclam
Encoding: 33 33 35
Width: 200
VWidth: 0
Flags: HW
LayerCount: 2
UndoRedoHistory
Layer: 0
Undoes
UndoOperation
Index: 0
Type: 1
WasModified: 0
WasOrder2: 0
Layer: 2
Width: 20
VWidth: 0
LBearingChange: 0
UnicodeEnc: 0
InstructionsLength: 0
EndUndoOperation
EndUndoes
Redoes
EndRedoes
EndUndoRedoHistory
UndoRedoHistory
Layer: 1
Undoes
UndoOperation
Index: 0
Type: 3
WasModified: 0
WasOrder2: 0
Layer: 2
EndUndoOperation
UndoOperation
Index: 1
Type: 1
WasModified: 1
WasOrder2: 0
Layer: 2
Width: 20
VWidth: 0
LBearingChange: 0
UnicodeEnc: 0
InstructionsLength: 0
SplineSet
9 28 m 4
 10.103515625 28 11 27.103515625 11 26 c 4
 11 24.896484375 10.103515625 24 9 24 c 4
 7.896484375 24 7 24.896484375 7 26 c 4
 7 27.103515625 7.896484375 28 9 28 c 4
9 24 m 4
 10.103515625 24 11 23.103515625 11 22 c 4
 11 20.896484375 10.103515625 20 9 20 c 4
 7.896484375 20 7 20.896484375 7 22 c 4
 7 23.103515625 7.896484375 24 9 24 c 4
9 20 m 4
 10.103515625 20 11 19.103515625 11 18 c 4
 11 16.896484375 10.103515625 16 9 16 c 4
 7.896484375 16 7 16.896484375 7 18 c 4
 7 19.103515625 7.896484375 20 9 20 c 4
9 16 m 4
 10.103515625 16 11 15.103515625 11 14 c 4
 11 12.896484375 10.103515625 12 9 12 c 4
 7.896484375 12 7 12.896484375 7 14 c 4
 7 15.103515625 7.896484375 16 9 16 c 4
9 12 m 4
 10.103515625 12 11 11.103515625 11 10 c 4
 11 8.896484375 10.103515625 8 9 8 c 4
 7.896484375 8 7 8.896484375 7 10 c 4
 7 11.103515625 7.896484375 12 9 12 c 4
9 4 m 4
 10.103515625 4 11 3.103515625 11 2 c 4
 11 0.896484375 10.103515625 0 9 0 c 4
 7.896484375 0 7 0.896484375 7 2 c 4
 7 3.103515625 7.896484375 4 9 4 c 4
EndSplineSet
EndUndoOperation
EndUndoes
Redoes
EndRedoes
EndUndoRedoHistory
Fore
SplineSet
100 280 m 4
 111 280 120 271 120 260 c 4
 120 249 111 240 100 240 c 4
 89 240 80 249 80 260 c 4
 80 271 89 280 100 280 c 4
100 240 m 4
 111 240 120 231 120 220 c 4
 120 209 111 200 100 200 c 4
 89 200 80 209 80 220 c 4
 80 231 89 240 100 240 c 4
100 200 m 4
 111 200 120 191 120 180 c 4
 120 169 111 160 100 160 c 4
 89 160 80 169 80 180 c 4
 80 191 89 200 100 200 c 4
100 160 m 4
 111 160 120 151 120 140 c 4
 120 129 111 120 100 120 c 4
 89 120 80 129 80 140 c 4
 80 151 89 160 100 160 c 4
100 120 m 4
 111 120 120 111 120 100 c 4
 120 89 111 80 100 80 c 4
 89 80 80 89 80 100 c 4
 80 111 89 120 100 120 c 4
100 40 m 4
 111 40 120 31 120 20 c 4
 120 9 111 0 100 0 c 4
 89 0 80 9 80 20 c 4
 80 31 89 40 100 40 c 4
EndSplineSet
EndChar

StartChar: quotedbl
Encoding: 34 34 36
Width: 200
VWidth: 0
Flags: HW
LayerCount: 2
UndoRedoHistory
Layer: 0
Undoes
UndoOperation
Index: 0
Type: 1
WasModified: 0
WasOrder2: 0
Layer: 2
Width: 20
VWidth: 0
LBearingChange: 0
UnicodeEnc: 0
InstructionsLength: 0
EndUndoOperation
EndUndoes
Redoes
EndRedoes
EndUndoRedoHistory
UndoRedoHistory
Layer: 1
Undoes
UndoOperation
Index: 0
Type: 3
WasModified: 0
WasOrder2: 0
Layer: 2
EndUndoOperation
UndoOperation
Index: 1
Type: 1
WasModified: 1
WasOrder2: 0
Layer: 2
Width: 20
VWidth: 0
LBearingChange: 0
UnicodeEnc: 0
InstructionsLength: 0
SplineSet
6 28 m 4
 7.103515625 28 8 27.103515625 8 26 c 4
 8 24.896484375 7.103515625 24 6 24 c 4
 4.896484375 24 4 24.896484375 4 26 c 4
 4 27.103515625 4.896484375 28 6 28 c 4
6 24 m 4
 7.103515625 24 8 23.103515625 8 22 c 4
 8 20.896484375 7.103515625 20 6 20 c 4
 4.896484375 20 4 20.896484375 4 22 c 4
 4 23.103515625 4.896484375 24 6 24 c 4
6 20 m 4
 7.103515625 20 8 19.103515625 8 18 c 4
 8 16.896484375 7.103515625 16 6 16 c 4
 4.896484375 16 4 16.896484375 4 18 c 4
 4 19.103515625 4.896484375 20 6 20 c 4
12 28 m 4
 13.103515625 28 14 27.103515625 14 26 c 4
 14 24.896484375 13.103515625 24 12 24 c 4
 10.896484375 24 10 24.896484375 10 26 c 4
 10 27.103515625 10.896484375 28 12 28 c 4
12 24 m 4
 13.103515625 24 14 23.103515625 14 22 c 4
 14 20.896484375 13.103515625 20 12 20 c 4
 10.896484375 20 10 20.896484375 10 22 c 4
 10 23.103515625 10.896484375 24 12 24 c 4
12 20 m 4
 13.103515625 20 14 19.103515625 14 18 c 4
 14 16.896484375 13.103515625 16 12 16 c 4
 10.896484375 16 10 16.896484375 10 18 c 4
 10 19.103515625 10.896484375 20 12 20 c 4
EndSplineSet
EndUndoOperation
EndUndoes
Redoes
EndRedoes
EndUndoRedoHistory
Fore
SplineSet
70 280 m 4
 81 280 90 271 90 260 c 4
 90 249 81 240 70 240 c 4
 59 240 50 249 50 260 c 4
 50 271 59 280 70 280 c 4
70 240 m 4
 81 240 90 231 90 220 c 4
 90 209 81 200 70 200 c 4
 59 200 50 209 50 220 c 4
 50 231 59 240 70 240 c 4
70 200 m 4
 81 200 90 191 90 180 c 4
 90 169 81 160 70 160 c 4
 59 160 50 169 50 180 c 4
 50 191 59 200 70 200 c 4
130 280 m 4
 141 280 150 271 150 260 c 4
 150 249 141 240 130 240 c 4
 119 240 110 249 110 260 c 4
 110 271 119 280 130 280 c 4
130 240 m 4
 141 240 150 231 150 220 c 4
 150 209 141 200 130 200 c 4
 119 200 110 209 110 220 c 4
 110 231 119 240 130 240 c 4
130 200 m 4
 141 200 150 191 150 180 c 4
 150 169 141 160 130 160 c 4
 119 160 110 169 110 180 c 4
 110 191 119 200 130 200 c 4
EndSplineSet
EndChar

StartChar: numbersign
Encoding: 35 35 37
Width: 200
VWidth: 0
Flags: HW
LayerCount: 2
UndoRedoHistory
Layer: 0
Undoes
UndoOperation
Index: 0
Type: 1
WasModified: 0
WasOrder2: 0
Layer: 2
Width: 20
VWidth: 0
LBearingChange: 0
UnicodeEnc: 0
InstructionsLength: 0
EndUndoOperation
EndUndoes
Redoes
EndRedoes
EndUndoRedoHistory
UndoRedoHistory
Layer: 1
Undoes
UndoOperation
Index: 0
Type: 3
WasModified: 0
WasOrder2: 0
Layer: 2
EndUndoOperation
UndoOperation
Index: 1
Type: 1
WasModified: 1
WasOrder2: 0
Layer: 2
Width: 20
VWidth: 0
LBearingChange: 0
UnicodeEnc: 0
InstructionsLength: 0
SplineSet
6 23 m 4
 7.103515625 23 8 22.103515625 8 21 c 4
 8 19.896484375 7.103515625 19 6 19 c 4
 4.896484375 19 4 19.896484375 4 21 c 4
 4 22.103515625 4.896484375 23 6 23 c 4
6 19 m 4
 6.2958984375 19 6.744140625 18.87890625 7 18.73046875 c 4
 7.255859375 18.87890625 7.7041015625 19 8 19 c 4
 8.2958984375 19 8.744140625 18.87890625 9 18.73046875 c 4
 9.255859375 18.87890625 9.7041015625 19 10 19 c 4
 10.2958984375 19 10.744140625 18.87890625 11 18.73046875 c 4
 11.255859375 18.87890625 11.7041015625 19 12 19 c 4
 12.2958984375 19 12.744140625 18.87890625 13 18.73046875 c 4
 13.255859375 18.87890625 13.7041015625 19 14 19 c 4
 14.2958984375 19 14.744140625 18.87890625 15 18.73046875 c 4
 15.255859375 18.87890625 15.7041015625 19 16 19 c 4
 17.103515625 19 18 18.103515625 18 17 c 4
 18 15.896484375 17.103515625 15 16 15 c 4
 15.7041015625 15 15.255859375 15.12109375 15 15.26953125 c 4
 14.744140625 15.12109375 14.2958984375 15 14 15 c 4
 13.7041015625 15 13.255859375 15.12109375 13 15.26953125 c 4
 12.744140625 15.12109375 12.2958984375 15 12 15 c 4
 11.7041015625 15 11.255859375 15.12109375 11 15.26953125 c 4
 10.744140625 15.12109375 10.2958984375 15 10 15 c 4
 9.7041015625 15 9.255859375 15.12109375 9 15.26953125 c 4
 8.744140625 15.12109375 8.2958984375 15 8 15 c 4
 7.7041015625 15 7.255859375 15.12109375 7 15.26953125 c 4
 6.744140625 15.12109375 6.2958984375 15 6 15 c 4
 5.7041015625 15 5.255859375 15.12109375 5 15.26953125 c 4
 4.744140625 15.12109375 4.2958984375 15 4 15 c 4
 2.896484375 15 2 15.896484375 2 17 c 4
 2 18.103515625 2.896484375 19 4 19 c 4
 4.2958984375 19 4.744140625 18.87890625 5 18.73046875 c 4
 5.255859375 18.87890625 5.7041015625 19 6 19 c 4
14 19 m 4
 12.896484375 19 12 19.896484375 12 21 c 4
 12 22.103515625 12.896484375 23 14 23 c 4
 15.103515625 23 16 22.103515625 16 21 c 4
 16 19.896484375 15.103515625 19 14 19 c 4
14 15 m 4
 15.103515625 15 16 14.103515625 16 13 c 4
 16 11.896484375 15.103515625 11 14 11 c 4
 12.896484375 11 12 11.896484375 12 13 c 4
 12 14.103515625 12.896484375 15 14 15 c 4
14 11 m 4
 14.2958984375 11 14.744140625 10.87890625 15 10.73046875 c 4
 15.255859375 10.87890625 15.7041015625 11 16 11 c 4
 17.103515625 11 18 10.103515625 18 9 c 4
 18 7.896484375 17.103515625 7 16 7 c 4
 15.7041015625 7 15.255859375 7.12109375 15 7.26953125 c 4
 14.744140625 7.12109375 14.2958984375 7 14 7 c 4
 13.7041015625 7 13.255859375 7.12109375 13 7.26953125 c 4
 12.744140625 7.12109375 12.2958984375 7 12 7 c 4
 11.7041015625 7 11.255859375 7.12109375 11 7.26953125 c 4
 10.744140625 7.12109375 10.2958984375 7 10 7 c 4
 9.7041015625 7 9.255859375 7.12109375 9 7.26953125 c 4
 8.744140625 7.12109375 8.2958984375 7 8 7 c 4
 7.7041015625 7 7.255859375 7.12109375 7 7.26953125 c 4
 6.744140625 7.12109375 6.2958984375 7 6 7 c 4
 5.7041015625 7 5.255859375 7.12109375 5 7.26953125 c 4
 4.744140625 7.12109375 4.2958984375 7 4 7 c 4
 2.896484375 7 2 7.896484375 2 9 c 4
 2 10.103515625 2.896484375 11 4 11 c 4
 4.2958984375 11 4.744140625 10.87890625 5 10.73046875 c 4
 5.255859375 10.87890625 5.7041015625 11 6 11 c 4
 6.2958984375 11 6.744140625 10.87890625 7 10.73046875 c 4
 7.255859375 10.87890625 7.7041015625 11 8 11 c 4
 8.2958984375 11 8.744140625 10.87890625 9 10.73046875 c 4
 9.255859375 10.87890625 9.7041015625 11 10 11 c 4
 10.2958984375 11 10.744140625 10.87890625 11 10.73046875 c 4
 11.255859375 10.87890625 11.7041015625 11 12 11 c 4
 12.2958984375 11 12.744140625 10.87890625 13 10.73046875 c 4
 13.255859375 10.87890625 13.7041015625 11 14 11 c 4
14 7 m 4
 15.103515625 7 16 6.103515625 16 5 c 4
 16 3.896484375 15.103515625 3 14 3 c 4
 12.896484375 3 12 3.896484375 12 5 c 4
 12 6.103515625 12.896484375 7 14 7 c 4
6 7 m 4
 7.103515625 7 8 6.103515625 8 5 c 4
 8 3.896484375 7.103515625 3 6 3 c 4
 4.896484375 3 4 3.896484375 4 5 c 4
 4 6.103515625 4.896484375 7 6 7 c 4
6 11 m 4
 4.896484375 11 4 11.896484375 4 13 c 4
 4 14.103515625 4.896484375 15 6 15 c 4
 7.103515625 15 8 14.103515625 8 13 c 4
 8 11.896484375 7.103515625 11 6 11 c 4
EndSplineSet
EndUndoOperation
EndUndoes
Redoes
EndRedoes
EndUndoRedoHistory
Fore
SplineSet
60 240 m 4
 71 240 80 231 80 220 c 4
 80 209 71 200 60 200 c 4
 49 200 40 209 40 220 c 4
 40 231 49 240 60 240 c 4
60 200 m 4
 63 200 67 198 70 197 c 4
 73 198 77 200 80 200 c 4
 83 200 87 198 90 197 c 4
 93 198 97 200 100 200 c 4
 103 200 107 198 110 197 c 4
 113 198 117 200 120 200 c 4
 123 200 127 198 130 197 c 4
 133 198 137 200 140 200 c 4
 143 200 147 198 150 197 c 4
 153 198 157 200 160 200 c 4
 171 200 180 191 180 180 c 4
 180 169 171 160 160 160 c 4
 157 160 153 162 150 163 c 4
 147 162 143 160 140 160 c 4
 137 160 133 162 130 163 c 4
 127 162 123 160 120 160 c 4
 117 160 113 162 110 163 c 4
 107 162 103 160 100 160 c 4
 97 160 93 162 90 163 c 4
 87 162 83 160 80 160 c 4
 77 160 73 162 70 163 c 4
 67 162 63 160 60 160 c 4
 57 160 53 162 50 163 c 4
 47 162 43 160 40 160 c 4
 29 160 20 169 20 180 c 4
 20 191 29 200 40 200 c 4
 43 200 47 198 50 197 c 4
 53 198 57 200 60 200 c 4
140 200 m 4
 129 200 120 209 120 220 c 4
 120 231 129 240 140 240 c 4
 151 240 160 231 160 220 c 4
 160 209 151 200 140 200 c 4
140 160 m 4
 151 160 160 151 160 140 c 4
 160 129 151 120 140 120 c 4
 129 120 120 129 120 140 c 4
 120 151 129 160 140 160 c 4
140 120 m 4
 143 120 147 118 150 117 c 4
 153 118 157 120 160 120 c 4
 171 120 180 111 180 100 c 4
 180 89 171 80 160 80 c 4
 157 80 153 82 150 83 c 4
 147 82 143 80 140 80 c 4
 137 80 133 82 130 83 c 4
 127 82 123 80 120 80 c 4
 117 80 113 82 110 83 c 4
 107 82 103 80 100 80 c 4
 97 80 93 82 90 83 c 4
 87 82 83 80 80 80 c 4
 77 80 73 82 70 83 c 4
 67 82 63 80 60 80 c 4
 57 80 53 82 50 83 c 4
 47 82 43 80 40 80 c 4
 29 80 20 89 20 100 c 4
 20 111 29 120 40 120 c 4
 43 120 47 118 50 117 c 4
 53 118 57 120 60 120 c 4
 63 120 67 118 70 117 c 4
 73 118 77 120 80 120 c 4
 83 120 87 118 90 117 c 4
 93 118 97 120 100 120 c 4
 103 120 107 118 110 117 c 4
 113 118 117 120 120 120 c 4
 123 120 127 118 130 117 c 4
 133 118 137 120 140 120 c 4
140 80 m 4
 151 80 160 71 160 60 c 4
 160 49 151 40 140 40 c 4
 129 40 120 49 120 60 c 4
 120 71 129 80 140 80 c 4
60 80 m 4
 71 80 80 71 80 60 c 4
 80 49 71 40 60 40 c 4
 49 40 40 49 40 60 c 4
 40 71 49 80 60 80 c 4
60 120 m 4
 49 120 40 129 40 140 c 4
 40 151 49 160 60 160 c 4
 71 160 80 151 80 140 c 4
 80 129 71 120 60 120 c 4
EndSplineSet
EndChar

StartChar: dollar
Encoding: 36 36 38
Width: 200
VWidth: 0
Flags: HW
LayerCount: 2
UndoRedoHistory
Layer: 0
Undoes
UndoOperation
Index: 0
Type: 1
WasModified: 0
WasOrder2: 0
Layer: 2
Width: 20
VWidth: 0
LBearingChange: 0
UnicodeEnc: 0
InstructionsLength: 0
EndUndoOperation
EndUndoes
Redoes
EndRedoes
EndUndoRedoHistory
UndoRedoHistory
Layer: 1
Undoes
UndoOperation
Index: 0
Type: 3
WasModified: 0
WasOrder2: 0
Layer: 2
EndUndoOperation
UndoOperation
Index: 1
Type: 1
WasModified: 1
WasOrder2: 0
Layer: 2
Width: 20
VWidth: 0
LBearingChange: 0
UnicodeEnc: 0
InstructionsLength: 0
SplineSet
9 28 m 4
 10.103515625 28 11 27.103515625 11 26 c 4
 11 24.896484375 10.103515625 24 9 24 c 4
 7.896484375 24 7 24.896484375 7 26 c 4
 7 27.103515625 7.896484375 28 9 28 c 4
9 24 m 4
 9.2958984375 24 9.744140625 23.87890625 10 23.73046875 c 4
 10.255859375 23.87890625 10.7041015625 24 11 24 c 4
 11.2958984375 24 11.744140625 23.87890625 12 23.73046875 c 4
 12.255859375 23.87890625 12.7041015625 24 13 24 c 4
 14.103515625 24 15 23.103515625 15 22 c 4
 15 20.896484375 14.103515625 20 13 20 c 4
 12.7041015625 20 12.255859375 20.12109375 12 20.26953125 c 4
 11.744140625 20.12109375 11.2958984375 20 11 20 c 4
 10.7041015625 20 10.255859375 20.12109375 10 20.26953125 c 4
 9.744140625 20.12109375 9.2958984375 20 9 20 c 4
 8.7041015625 20 8.255859375 20.12109375 8 20.26953125 c 4
 7.744140625 20.12109375 7.2958984375 20 7 20 c 4
 6.7041015625 20 6.255859375 20.12109375 6 20.26953125 c 4
 5.744140625 20.12109375 5.2958984375 20 5 20 c 4
 3.896484375 20 3 20.896484375 3 22 c 4
 3 23.103515625 3.896484375 24 5 24 c 4
 5.2958984375 24 5.744140625 23.87890625 6 23.73046875 c 4
 6.255859375 23.87890625 6.7041015625 24 7 24 c 4
 7.2958984375 24 7.744140625 23.87890625 8 23.73046875 c 4
 8.255859375 23.87890625 8.7041015625 24 9 24 c 4
3 20 m 4
 4.103515625 20 5 19.103515625 5 18 c 4
 5 16.896484375 4.103515625 16 3 16 c 4
 1.896484375 16 1 16.896484375 1 18 c 4
 1 19.103515625 1.896484375 20 3 20 c 4
5 16 m 4
 5.2958984375 16 5.744140625 15.87890625 6 15.73046875 c 4
 6.255859375 15.87890625 6.7041015625 16 7 16 c 4
 7.2958984375 16 7.744140625 15.87890625 8 15.73046875 c 4
 8.255859375 15.87890625 8.7041015625 16 9 16 c 4
 9.2958984375 16 9.744140625 15.87890625 10 15.73046875 c 4
 10.255859375 15.87890625 10.7041015625 16 11 16 c 4
 11.2958984375 16 11.744140625 15.87890625 12 15.73046875 c 4
 12.255859375 15.87890625 12.7041015625 16 13 16 c 4
 14.103515625 16 15 15.103515625 15 14 c 4
 15 12.896484375 14.103515625 12 13 12 c 4
 12.7041015625 12 12.255859375 12.12109375 12 12.26953125 c 4
 11.744140625 12.12109375 11.2958984375 12 11 12 c 4
 10.7041015625 12 10.255859375 12.12109375 10 12.26953125 c 4
 9.744140625 12.12109375 9.2958984375 12 9 12 c 4
 8.7041015625 12 8.255859375 12.12109375 8 12.26953125 c 4
 7.744140625 12.12109375 7.2958984375 12 7 12 c 4
 6.7041015625 12 6.255859375 12.12109375 6 12.26953125 c 4
 5.744140625 12.12109375 5.2958984375 12 5 12 c 4
 3.896484375 12 3 12.896484375 3 14 c 4
 3 15.103515625 3.896484375 16 5 16 c 4
15 12 m 4
 16.103515625 12 17 11.103515625 17 10 c 4
 17 8.896484375 16.103515625 8 15 8 c 4
 13.896484375 8 13 8.896484375 13 10 c 4
 13 11.103515625 13.896484375 12 15 12 c 4
5 8 m 4
 5.2958984375 8 5.744140625 7.87890625 6 7.73046875 c 4
 6.255859375 7.87890625 6.7041015625 8 7 8 c 4
 7.2958984375 8 7.744140625 7.87890625 8 7.73046875 c 4
 8.255859375 7.87890625 8.7041015625 8 9 8 c 4
 9.2958984375 8 9.744140625 7.87890625 10 7.73046875 c 4
 10.255859375 7.87890625 10.7041015625 8 11 8 c 4
 11.2958984375 8 11.744140625 7.87890625 12 7.73046875 c 4
 12.255859375 7.87890625 12.7041015625 8 13 8 c 4
 14.103515625 8 15 7.103515625 15 6 c 4
 15 4.896484375 14.103515625 4 13 4 c 4
 12.7041015625 4 12.255859375 4.12109375 12 4.26953125 c 4
 11.744140625 4.12109375 11.2958984375 4 11 4 c 4
 10.7041015625 4 10.255859375 4.12109375 10 4.26953125 c 4
 9.744140625 4.12109375 9.2958984375 4 9 4 c 4
 8.7041015625 4 8.255859375 4.12109375 8 4.26953125 c 4
 7.744140625 4.12109375 7.2958984375 4 7 4 c 4
 6.7041015625 4 6.255859375 4.12109375 6 4.26953125 c 4
 5.744140625 4.12109375 5.2958984375 4 5 4 c 4
 3.896484375 4 3 4.896484375 3 6 c 4
 3 7.103515625 3.896484375 8 5 8 c 4
9 4 m 4
 10.103515625 4 11 3.103515625 11 2 c 4
 11 0.896484375 10.103515625 0 9 0 c 4
 7.896484375 0 7 0.896484375 7 2 c 4
 7 3.103515625 7.896484375 4 9 4 c 4
EndSplineSet
EndUndoOperation
EndUndoes
Redoes
EndRedoes
EndUndoRedoHistory
Fore
SplineSet
100 280 m 4
 111 280 120 271 120 260 c 4
 120 249 111 240 100 240 c 4
 89 240 80 249 80 260 c 4
 80 271 89 280 100 280 c 4
100 240 m 4
 103 240 107 238 110 237 c 4
 113 238 117 240 120 240 c 4
 123 240 127 238 130 237 c 4
 133 238 137 240 140 240 c 4
 151 240 160 231 160 220 c 4
 160 209 151 200 140 200 c 4
 137 200 133 202 130 203 c 4
 127 202 123 200 120 200 c 4
 117 200 113 202 110 203 c 4
 107 202 103 200 100 200 c 4
 97 200 93 202 90 203 c 4
 87 202 83 200 80 200 c 4
 77 200 73 202 70 203 c 4
 67 202 63 200 60 200 c 4
 49 200 40 209 40 220 c 4
 40 231 49 240 60 240 c 4
 63 240 67 238 70 237 c 4
 73 238 77 240 80 240 c 4
 83 240 87 238 90 237 c 4
 93 238 97 240 100 240 c 4
40 200 m 4
 51 200 60 191 60 180 c 4
 60 169 51 160 40 160 c 4
 29 160 20 169 20 180 c 4
 20 191 29 200 40 200 c 4
60 160 m 4
 63 160 67 158 70 157 c 4
 73 158 77 160 80 160 c 4
 83 160 87 158 90 157 c 4
 93 158 97 160 100 160 c 4
 103 160 107 158 110 157 c 4
 113 158 117 160 120 160 c 4
 123 160 127 158 130 157 c 4
 133 158 137 160 140 160 c 4
 151 160 160 151 160 140 c 4
 160 129 151 120 140 120 c 4
 137 120 133 122 130 123 c 4
 127 122 123 120 120 120 c 4
 117 120 113 122 110 123 c 4
 107 122 103 120 100 120 c 4
 97 120 93 122 90 123 c 4
 87 122 83 120 80 120 c 4
 77 120 73 122 70 123 c 4
 67 122 63 120 60 120 c 4
 49 120 40 129 40 140 c 4
 40 151 49 160 60 160 c 4
160 120 m 4
 171 120 180 111 180 100 c 4
 180 89 171 80 160 80 c 4
 149 80 140 89 140 100 c 4
 140 111 149 120 160 120 c 4
60 80 m 4
 63 80 67 78 70 77 c 4
 73 78 77 80 80 80 c 4
 83 80 87 78 90 77 c 4
 93 78 97 80 100 80 c 4
 103 80 107 78 110 77 c 4
 113 78 117 80 120 80 c 4
 123 80 127 78 130 77 c 4
 133 78 137 80 140 80 c 4
 151 80 160 71 160 60 c 4
 160 49 151 40 140 40 c 4
 137 40 133 42 130 43 c 4
 127 42 123 40 120 40 c 4
 117 40 113 42 110 43 c 4
 107 42 103 40 100 40 c 4
 97 40 93 42 90 43 c 4
 87 42 83 40 80 40 c 4
 77 40 73 42 70 43 c 4
 67 42 63 40 60 40 c 4
 49 40 40 49 40 60 c 4
 40 71 49 80 60 80 c 4
100 40 m 4
 111 40 120 31 120 20 c 4
 120 9 111 0 100 0 c 4
 89 0 80 9 80 20 c 4
 80 31 89 40 100 40 c 4
EndSplineSet
EndChar

StartChar: percent
Encoding: 37 37 39
Width: 200
VWidth: 0
Flags: HW
LayerCount: 2
UndoRedoHistory
Layer: 0
Undoes
UndoOperation
Index: 0
Type: 1
WasModified: 0
WasOrder2: 0
Layer: 2
Width: 20
VWidth: 0
LBearingChange: 0
UnicodeEnc: 0
InstructionsLength: 0
EndUndoOperation
EndUndoes
Redoes
EndRedoes
EndUndoRedoHistory
UndoRedoHistory
Layer: 1
Undoes
UndoOperation
Index: 0
Type: 3
WasModified: 0
WasOrder2: 0
Layer: 2
EndUndoOperation
UndoOperation
Index: 1
Type: 1
WasModified: 1
WasOrder2: 0
Layer: 2
Width: 20
VWidth: 0
LBearingChange: 0
UnicodeEnc: 0
InstructionsLength: 0
SplineSet
2 28 m 4
 2.2958984375 28 2.744140625 27.87890625 3 27.73046875 c 4
 3.255859375 27.87890625 3.7041015625 28 4 28 c 4
 5.103515625 28 6 27.103515625 6 26 c 4
 6 24.896484375 5.103515625 24 4 24 c 4
 3.7041015625 24 3.255859375 24.12109375 3 24.26953125 c 4
 2.744140625 24.12109375 2.2958984375 24 2 24 c 4
 0.896484375 24 0 24.896484375 0 26 c 4
 0 27.103515625 0.896484375 28 2 28 c 4
4 24 m 4
 5.103515625 24 6 23.103515625 6 22 c 4
 6 20.896484375 5.103515625 20 4 20 c 4
 3.7041015625 20 3.255859375 20.12109375 3 20.26953125 c 4
 2.744140625 20.12109375 2.2958984375 20 2 20 c 4
 0.896484375 20 0 20.896484375 0 22 c 4
 0 23.103515625 0.896484375 24 2 24 c 4
 2.2958984375 24 2.744140625 23.87890625 3 23.73046875 c 4
 3.255859375 23.87890625 3.7041015625 24 4 24 c 4
12 28 m 4
 13.103515625 28 14 27.103515625 14 26 c 4
 14 24.896484375 13.103515625 24 12 24 c 4
 10.896484375 24 10 24.896484375 10 26 c 4
 10 27.103515625 10.896484375 28 12 28 c 4
10 24 m 4
 11.103515625 24 12 23.103515625 12 22 c 4
 12 20.896484375 11.103515625 20 10 20 c 4
 8.896484375 20 8 20.896484375 8 22 c 4
 8 23.103515625 8.896484375 24 10 24 c 4
8 20 m 4
 9.103515625 20 10 19.103515625 10 18 c 4
 10 16.896484375 9.103515625 16 8 16 c 4
 6.896484375 16 6 16.896484375 6 18 c 4
 6 19.103515625 6.896484375 20 8 20 c 4
6 16 m 4
 7.103515625 16 8 15.103515625 8 14 c 4
 8 12.896484375 7.103515625 12 6 12 c 4
 4.896484375 12 4 12.896484375 4 14 c 4
 4 15.103515625 4.896484375 16 6 16 c 4
12 16 m 4
 12.2958984375 16 12.744140625 15.87890625 13 15.73046875 c 4
 13.255859375 15.87890625 13.7041015625 16 14 16 c 4
 15.103515625 16 16 15.103515625 16 14 c 4
 16 12.896484375 15.103515625 12 14 12 c 4
 13.7041015625 12 13.255859375 12.12109375 13 12.26953125 c 4
 12.744140625 12.12109375 12.2958984375 12 12 12 c 4
 10.896484375 12 10 12.896484375 10 14 c 4
 10 15.103515625 10.896484375 16 12 16 c 4
14 12 m 4
 15.103515625 12 16 11.103515625 16 10 c 4
 16 8.896484375 15.103515625 8 14 8 c 4
 13.7041015625 8 13.255859375 8.12109375 13 8.26953125 c 4
 12.744140625 8.12109375 12.2958984375 8 12 8 c 4
 10.896484375 8 10 8.896484375 10 10 c 4
 10 11.103515625 10.896484375 12 12 12 c 4
 12.2958984375 12 12.744140625 11.87890625 13 11.73046875 c 4
 13.255859375 11.87890625 13.7041015625 12 14 12 c 4
4 12 m 4
 5.103515625 12 6 11.103515625 6 10 c 4
 6 8.896484375 5.103515625 8 4 8 c 4
 2.896484375 8 2 8.896484375 2 10 c 4
 2 11.103515625 2.896484375 12 4 12 c 4
EndSplineSet
EndUndoOperation
EndUndoes
Redoes
EndRedoes
EndUndoRedoHistory
Fore
SplineSet
40 240 m 4
 43 240 47 238 50 237 c 4
 53 238 57 240 60 240 c 4
 71 240 80 231 80 220 c 4
 80 209 71 200 60 200 c 4
 57 200 53 202 50 203 c 4
 47 202 43 200 40 200 c 4
 29 200 20 209 20 220 c 4
 20 231 29 240 40 240 c 4
60 200 m 4
 71 200 80 191 80 180 c 4
 80 169 71 160 60 160 c 4
 57 160 53 162 50 163 c 4
 47 162 43 160 40 160 c 4
 29 160 20 169 20 180 c 4
 20 191 29 200 40 200 c 4
 43 200 47 198 50 197 c 4
 53 198 57 200 60 200 c 4
140 240 m 4
 151 240 160 231 160 220 c 4
 160 209 151 200 140 200 c 4
 129 200 120 209 120 220 c 4
 120 231 129 240 140 240 c 4
120 200 m 4
 131 200 140 191 140 180 c 4
 140 169 131 160 120 160 c 4
 109 160 100 169 100 180 c 4
 100 191 109 200 120 200 c 4
100 160 m 4
 111 160 120 151 120 140 c 4
 120 129 111 120 100 120 c 4
 89 120 80 129 80 140 c 4
 80 151 89 160 100 160 c 4
80 120 m 4
 91 120 100 111 100 100 c 4
 100 89 91 80 80 80 c 4
 69 80 60 89 60 100 c 4
 60 111 69 120 80 120 c 4
140 120 m 4
 143 120 147 118 150 117 c 4
 153 118 157 120 160 120 c 4
 171 120 180 111 180 100 c 4
 180 89 171 80 160 80 c 4
 157 80 153 82 150 83 c 4
 147 82 143 80 140 80 c 4
 129 80 120 89 120 100 c 4
 120 111 129 120 140 120 c 4
160 80 m 4
 171 80 180 71 180 60 c 4
 180 49 171 40 160 40 c 4
 157 40 153 42 150 43 c 4
 147 42 143 40 140 40 c 4
 129 40 120 49 120 60 c 4
 120 71 129 80 140 80 c 4
 143 80 147 78 150 77 c 4
 153 78 157 80 160 80 c 4
60 80 m 4
 71 80 80 71 80 60 c 4
 80 49 71 40 60 40 c 4
 49 40 40 49 40 60 c 4
 40 71 49 80 60 80 c 4
EndSplineSet
EndChar

StartChar: ampersand
Encoding: 38 38 40
Width: 200
VWidth: 0
Flags: HW
LayerCount: 2
UndoRedoHistory
Layer: 0
Undoes
UndoOperation
Index: 0
Type: 1
WasModified: 0
WasOrder2: 0
Layer: 2
Width: 20
VWidth: 0
LBearingChange: 0
UnicodeEnc: 0
InstructionsLength: 0
EndUndoOperation
EndUndoes
Redoes
EndRedoes
EndUndoRedoHistory
UndoRedoHistory
Layer: 1
Undoes
UndoOperation
Index: 0
Type: 3
WasModified: 0
WasOrder2: 0
Layer: 2
EndUndoOperation
UndoOperation
Index: 1
Type: 1
WasModified: 1
WasOrder2: 0
Layer: 2
Width: 20
VWidth: 0
LBearingChange: 0
UnicodeEnc: 0
InstructionsLength: 0
SplineSet
6 28 m 4
 6.2958984375 28 6.744140625 27.87890625 7 27.73046875 c 4
 7.255859375 27.87890625 7.7041015625 28 8 28 c 4
 9.103515625 28 10 27.103515625 10 26 c 4
 10 24.896484375 9.103515625 24 8 24 c 4
 7.7041015625 24 7.255859375 24.12109375 7 24.26953125 c 4
 6.744140625 24.12109375 6.2958984375 24 6 24 c 4
 4.896484375 24 4 24.896484375 4 26 c 4
 4 27.103515625 4.896484375 28 6 28 c 4
4 24 m 4
 5.103515625 24 6 23.103515625 6 22 c 4
 6 20.896484375 5.103515625 20 4 20 c 4
 2.896484375 20 2 20.896484375 2 22 c 4
 2 23.103515625 2.896484375 24 4 24 c 4
4 20 m 4
 5.103515625 20 6 19.103515625 6 18 c 4
 6 16.896484375 5.103515625 16 4 16 c 4
 2.896484375 16 2 16.896484375 2 18 c 4
 2 19.103515625 2.896484375 20 4 20 c 4
10 24 m 4
 11.103515625 24 12 23.103515625 12 22 c 4
 12 20.896484375 11.103515625 20 10 20 c 4
 8.896484375 20 8 20.896484375 8 22 c 4
 8 23.103515625 8.896484375 24 10 24 c 4
10 20 m 4
 11.103515625 20 12 19.103515625 12 18 c 4
 12 16.896484375 11.103515625 16 10 16 c 4
 8.896484375 16 8 16.896484375 8 18 c 4
 8 19.103515625 8.896484375 20 10 20 c 4
6 16 m 4
 6.2958984375 16 6.744140625 15.87890625 7 15.73046875 c 4
 7.255859375 15.87890625 7.7041015625 16 8 16 c 4
 9.103515625 16 10 15.103515625 10 14 c 4
 10 12.896484375 9.103515625 12 8 12 c 4
 7.7041015625 12 7.255859375 12.12109375 7 12.26953125 c 4
 6.744140625 12.12109375 6.2958984375 12 6 12 c 4
 4.896484375 12 4 12.896484375 4 14 c 4
 4 15.103515625 4.896484375 16 6 16 c 4
4 12 m 4
 5.103515625 12 6 11.103515625 6 10 c 4
 6 8.896484375 5.103515625 8 4 8 c 4
 2.896484375 8 2 8.896484375 2 10 c 4
 2 11.103515625 2.896484375 12 4 12 c 4
10 12 m 4
 11.103515625 12 12 11.103515625 12 10 c 4
 12 8.896484375 11.103515625 8 10 8 c 4
 8.896484375 8 8 8.896484375 8 10 c 4
 8 11.103515625 8.896484375 12 10 12 c 4
16 12 m 4
 17.103515625 12 18 11.103515625 18 10 c 4
 18 8.896484375 17.103515625 8 16 8 c 4
 14.896484375 8 14 8.896484375 14 10 c 4
 14 11.103515625 14.896484375 12 16 12 c 4
2 8 m 4
 3.103515625 8 4 7.103515625 4 6 c 4
 4 4.896484375 3.103515625 4 2 4 c 4
 0.896484375 4 0 4.896484375 0 6 c 4
 0 7.103515625 0.896484375 8 2 8 c 4
12 8 m 4
 12.2958984375 8 12.744140625 7.87890625 13 7.73046875 c 4
 13.255859375 7.87890625 13.7041015625 8 14 8 c 4
 15.103515625 8 16 7.103515625 16 6 c 4
 16 4.896484375 15.103515625 4 14 4 c 4
 13.7041015625 4 13.255859375 4.12109375 13 4.26953125 c 4
 12.744140625 4.12109375 12.2958984375 4 12 4 c 4
 10.896484375 4 10 4.896484375 10 6 c 4
 10 7.103515625 10.896484375 8 12 8 c 4
4 4 m 4
 4.2958984375 4 4.744140625 3.87890625 5 3.73046875 c 4
 5.255859375 3.87890625 5.7041015625 4 6 4 c 4
 6.2958984375 4 6.744140625 3.87890625 7 3.73046875 c 4
 7.255859375 3.87890625 7.7041015625 4 8 4 c 4
 8.2958984375 4 8.744140625 3.87890625 9 3.73046875 c 4
 9.255859375 3.87890625 9.7041015625 4 10 4 c 4
 11.103515625 4 12 3.103515625 12 2 c 4
 12 0.896484375 11.103515625 0 10 0 c 4
 9.7041015625 0 9.255859375 0.12109375 9 0.26953125 c 4
 8.744140625 0.12109375 8.2958984375 0 8 0 c 4
 7.7041015625 0 7.255859375 0.12109375 7 0.26953125 c 4
 6.744140625 0.12109375 6.2958984375 0 6 0 c 4
 5.7041015625 0 5.255859375 0.12109375 5 0.26953125 c 4
 4.744140625 0.12109375 4.2958984375 0 4 0 c 4
 2.896484375 0 2 0.896484375 2 2 c 4
 2 3.103515625 2.896484375 4 4 4 c 4
16 4 m 4
 17.103515625 4 18 3.103515625 18 2 c 4
 18 0.896484375 17.103515625 0 16 0 c 4
 14.896484375 0 14 0.896484375 14 2 c 4
 14 3.103515625 14.896484375 4 16 4 c 4
EndSplineSet
EndUndoOperation
EndUndoes
Redoes
EndRedoes
EndUndoRedoHistory
Fore
SplineSet
70 280 m 4
 73 280 77 278 80 277 c 4
 83 278 87 280 90 280 c 4
 101 280 110 271 110 260 c 4
 110 249 101 240 90 240 c 4
 87 240 83 242 80 243 c 4
 77 242 73 240 70 240 c 4
 59 240 50 249 50 260 c 4
 50 271 59 280 70 280 c 4
50 240 m 4
 61 240 70 231 70 220 c 4
 70 209 61 200 50 200 c 4
 39 200 30 209 30 220 c 4
 30 231 39 240 50 240 c 4
50 200 m 4
 61 200 70 191 70 180 c 4
 70 169 61 160 50 160 c 4
 39 160 30 169 30 180 c 4
 30 191 39 200 50 200 c 4
110 240 m 4
 121 240 130 231 130 220 c 4
 130 209 121 200 110 200 c 4
 99 200 90 209 90 220 c 4
 90 231 99 240 110 240 c 4
110 200 m 4
 121 200 130 191 130 180 c 4
 130 169 121 160 110 160 c 4
 99 160 90 169 90 180 c 4
 90 191 99 200 110 200 c 4
70 160 m 4
 73 160 77 158 80 157 c 4
 83 158 87 160 90 160 c 4
 101 160 110 151 110 140 c 4
 110 129 101 120 90 120 c 4
 87 120 83 122 80 123 c 4
 77 122 73 120 70 120 c 4
 59 120 50 129 50 140 c 4
 50 151 59 160 70 160 c 4
50 120 m 4
 61 120 70 111 70 100 c 4
 70 89 61 80 50 80 c 4
 39 80 30 89 30 100 c 4
 30 111 39 120 50 120 c 4
110 120 m 4
 121 120 130 111 130 100 c 4
 130 89 121 80 110 80 c 4
 99 80 90 89 90 100 c 4
 90 111 99 120 110 120 c 4
170 120 m 4
 181 120 190 111 190 100 c 4
 190 89 181 80 170 80 c 4
 159 80 150 89 150 100 c 4
 150 111 159 120 170 120 c 4
30 80 m 4
 41 80 50 71 50 60 c 4
 50 49 41 40 30 40 c 4
 19 40 10 49 10 60 c 4
 10 71 19 80 30 80 c 4
130 80 m 4
 133 80 137 78 140 77 c 4
 143 78 147 80 150 80 c 4
 161 80 170 71 170 60 c 4
 170 49 161 40 150 40 c 4
 147 40 143 42 140 43 c 4
 137 42 133 40 130 40 c 4
 119 40 110 49 110 60 c 4
 110 71 119 80 130 80 c 4
50 40 m 4
 53 40 57 38 60 37 c 4
 63 38 67 40 70 40 c 4
 73 40 77 38 80 37 c 4
 83 38 87 40 90 40 c 4
 93 40 97 38 100 37 c 4
 103 38 107 40 110 40 c 4
 121 40 130 31 130 20 c 4
 130 9 121 0 110 0 c 4
 107 0 103 2 100 3 c 4
 97 2 93 0 90 0 c 4
 87 0 83 2 80 3 c 4
 77 2 73 0 70 0 c 4
 67 0 63 2 60 3 c 4
 57 2 53 0 50 0 c 4
 39 0 30 9 30 20 c 4
 30 31 39 40 50 40 c 4
170 40 m 4
 181 40 190 31 190 20 c 4
 190 9 181 0 170 0 c 4
 159 0 150 9 150 20 c 4
 150 31 159 40 170 40 c 4
EndSplineSet
EndChar

StartChar: quotesingle
Encoding: 39 39 41
Width: 200
VWidth: 0
Flags: HW
LayerCount: 2
UndoRedoHistory
Layer: 0
Undoes
UndoOperation
Index: 0
Type: 1
WasModified: 0
WasOrder2: 0
Layer: 2
Width: 20
VWidth: 0
LBearingChange: 0
UnicodeEnc: 0
InstructionsLength: 0
EndUndoOperation
EndUndoes
Redoes
EndRedoes
EndUndoRedoHistory
UndoRedoHistory
Layer: 1
Undoes
UndoOperation
Index: 0
Type: 3
WasModified: 0
WasOrder2: 0
Layer: 2
EndUndoOperation
UndoOperation
Index: 1
Type: 1
WasModified: 1
WasOrder2: 0
Layer: 2
Width: 20
VWidth: 0
LBearingChange: 0
UnicodeEnc: 0
InstructionsLength: 0
SplineSet
9 28 m 4
 10.103515625 28 11 27.103515625 11 26 c 4
 11 24.896484375 10.103515625 24 9 24 c 4
 7.896484375 24 7 24.896484375 7 26 c 4
 7 27.103515625 7.896484375 28 9 28 c 4
9 24 m 4
 10.103515625 24 11 23.103515625 11 22 c 4
 11 20.896484375 10.103515625 20 9 20 c 4
 7.896484375 20 7 20.896484375 7 22 c 4
 7 23.103515625 7.896484375 24 9 24 c 4
9 20 m 4
 10.103515625 20 11 19.103515625 11 18 c 4
 11 16.896484375 10.103515625 16 9 16 c 4
 7.896484375 16 7 16.896484375 7 18 c 4
 7 19.103515625 7.896484375 20 9 20 c 4
EndSplineSet
EndUndoOperation
EndUndoes
Redoes
EndRedoes
EndUndoRedoHistory
Fore
SplineSet
100 280 m 4
 111 280 120 271 120 260 c 4
 120 249 111 240 100 240 c 4
 89 240 80 249 80 260 c 4
 80 271 89 280 100 280 c 4
100 240 m 4
 111 240 120 231 120 220 c 4
 120 209 111 200 100 200 c 4
 89 200 80 209 80 220 c 4
 80 231 89 240 100 240 c 4
100 200 m 4
 111 200 120 191 120 180 c 4
 120 169 111 160 100 160 c 4
 89 160 80 169 80 180 c 4
 80 191 89 200 100 200 c 4
EndSplineSet
EndChar

StartChar: parenleft
Encoding: 40 40 42
Width: 200
VWidth: 0
Flags: HW
LayerCount: 2
UndoRedoHistory
Layer: 0
Undoes
UndoOperation
Index: 0
Type: 1
WasModified: 0
WasOrder2: 0
Layer: 2
Width: 20
VWidth: 0
LBearingChange: 0
UnicodeEnc: 0
InstructionsLength: 0
EndUndoOperation
EndUndoes
Redoes
EndRedoes
EndUndoRedoHistory
UndoRedoHistory
Layer: 1
Undoes
UndoOperation
Index: 0
Type: 3
WasModified: 0
WasOrder2: 0
Layer: 2
EndUndoOperation
UndoOperation
Index: 1
Type: 1
WasModified: 1
WasOrder2: 0
Layer: 2
Width: 20
VWidth: 0
LBearingChange: 0
UnicodeEnc: 0
InstructionsLength: 0
SplineSet
10 28 m 4
 10.2958984375 28 10.744140625 27.87890625 11 27.73046875 c 4
 11.255859375 27.87890625 11.7041015625 28 12 28 c 4
 13.103515625 28 14 27.103515625 14 26 c 4
 14 24.896484375 13.103515625 24 12 24 c 4
 11.7041015625 24 11.255859375 24.12109375 11 24.26953125 c 4
 10.744140625 24.12109375 10.2958984375 24 10 24 c 4
 8.896484375 24 8 24.896484375 8 26 c 4
 8 27.103515625 8.896484375 28 10 28 c 4
8 24 m 4
 9.103515625 24 10 23.103515625 10 22 c 4
 10 20.896484375 9.103515625 20 8 20 c 4
 6.896484375 20 6 20.896484375 6 22 c 4
 6 23.103515625 6.896484375 24 8 24 c 4
6 20 m 4
 7.103515625 20 8 19.103515625 8 18 c 4
 8 16.896484375 7.103515625 16 6 16 c 4
 4.896484375 16 4 16.896484375 4 18 c 4
 4 19.103515625 4.896484375 20 6 20 c 4
6 16 m 4
 7.103515625 16 8 15.103515625 8 14 c 4
 8 12.896484375 7.103515625 12 6 12 c 4
 4.896484375 12 4 12.896484375 4 14 c 4
 4 15.103515625 4.896484375 16 6 16 c 4
6 12 m 4
 7.103515625 12 8 11.103515625 8 10 c 4
 8 8.896484375 7.103515625 8 6 8 c 4
 4.896484375 8 4 8.896484375 4 10 c 4
 4 11.103515625 4.896484375 12 6 12 c 4
8 8 m 4
 9.103515625 8 10 7.103515625 10 6 c 4
 10 4.896484375 9.103515625 4 8 4 c 4
 6.896484375 4 6 4.896484375 6 6 c 4
 6 7.103515625 6.896484375 8 8 8 c 4
10 4 m 4
 10.2958984375 4 10.744140625 3.87890625 11 3.73046875 c 4
 11.255859375 3.87890625 11.7041015625 4 12 4 c 4
 13.103515625 4 14 3.103515625 14 2 c 4
 14 0.896484375 13.103515625 0 12 0 c 4
 11.7041015625 0 11.255859375 0.12109375 11 0.26953125 c 4
 10.744140625 0.12109375 10.2958984375 0 10 0 c 4
 8.896484375 0 8 0.896484375 8 2 c 4
 8 3.103515625 8.896484375 4 10 4 c 4
EndSplineSet
EndUndoOperation
EndUndoes
Redoes
EndRedoes
EndUndoRedoHistory
Fore
SplineSet
110 280 m 4
 113 280 117 278 120 277 c 4
 123 278 127 280 130 280 c 4
 141 280 150 271 150 260 c 4
 150 249 141 240 130 240 c 4
 127 240 123 242 120 243 c 4
 117 242 113 240 110 240 c 4
 99 240 90 249 90 260 c 4
 90 271 99 280 110 280 c 4
90 240 m 4
 101 240 110 231 110 220 c 4
 110 209 101 200 90 200 c 4
 79 200 70 209 70 220 c 4
 70 231 79 240 90 240 c 4
70 200 m 4
 81 200 90 191 90 180 c 4
 90 169 81 160 70 160 c 4
 59 160 50 169 50 180 c 4
 50 191 59 200 70 200 c 4
70 160 m 4
 81 160 90 151 90 140 c 4
 90 129 81 120 70 120 c 4
 59 120 50 129 50 140 c 4
 50 151 59 160 70 160 c 4
70 120 m 4
 81 120 90 111 90 100 c 4
 90 89 81 80 70 80 c 4
 59 80 50 89 50 100 c 4
 50 111 59 120 70 120 c 4
90 80 m 4
 101 80 110 71 110 60 c 4
 110 49 101 40 90 40 c 4
 79 40 70 49 70 60 c 4
 70 71 79 80 90 80 c 4
110 40 m 4
 113 40 117 38 120 37 c 4
 123 38 127 40 130 40 c 4
 141 40 150 31 150 20 c 4
 150 9 141 0 130 0 c 4
 127 0 123 2 120 3 c 4
 117 2 113 0 110 0 c 4
 99 0 90 9 90 20 c 4
 90 31 99 40 110 40 c 4
EndSplineSet
EndChar

StartChar: parenright
Encoding: 41 41 43
Width: 200
VWidth: 0
Flags: HW
LayerCount: 2
UndoRedoHistory
Layer: 0
Undoes
UndoOperation
Index: 0
Type: 1
WasModified: 0
WasOrder2: 0
Layer: 2
Width: 20
VWidth: 0
LBearingChange: 0
UnicodeEnc: 0
InstructionsLength: 0
EndUndoOperation
EndUndoes
Redoes
EndRedoes
EndUndoRedoHistory
UndoRedoHistory
Layer: 1
Undoes
UndoOperation
Index: 0
Type: 3
WasModified: 0
WasOrder2: 0
Layer: 2
EndUndoOperation
UndoOperation
Index: 1
Type: 1
WasModified: 1
WasOrder2: 0
Layer: 2
Width: 20
VWidth: 0
LBearingChange: 0
UnicodeEnc: 0
InstructionsLength: 0
SplineSet
6 28 m 4
 6.2958984375 28 6.744140625 27.87890625 7 27.73046875 c 4
 7.255859375 27.87890625 7.7041015625 28 8 28 c 4
 9.103515625 28 10 27.103515625 10 26 c 4
 10 24.896484375 9.103515625 24 8 24 c 4
 7.7041015625 24 7.255859375 24.12109375 7 24.26953125 c 4
 6.744140625 24.12109375 6.2958984375 24 6 24 c 4
 4.896484375 24 4 24.896484375 4 26 c 4
 4 27.103515625 4.896484375 28 6 28 c 4
10 24 m 4
 11.103515625 24 12 23.103515625 12 22 c 4
 12 20.896484375 11.103515625 20 10 20 c 4
 8.896484375 20 8 20.896484375 8 22 c 4
 8 23.103515625 8.896484375 24 10 24 c 4
12 20 m 4
 13.103515625 20 14 19.103515625 14 18 c 4
 14 16.896484375 13.103515625 16 12 16 c 4
 10.896484375 16 10 16.896484375 10 18 c 4
 10 19.103515625 10.896484375 20 12 20 c 4
12 16 m 4
 13.103515625 16 14 15.103515625 14 14 c 4
 14 12.896484375 13.103515625 12 12 12 c 4
 10.896484375 12 10 12.896484375 10 14 c 4
 10 15.103515625 10.896484375 16 12 16 c 4
12 12 m 4
 13.103515625 12 14 11.103515625 14 10 c 4
 14 8.896484375 13.103515625 8 12 8 c 4
 10.896484375 8 10 8.896484375 10 10 c 4
 10 11.103515625 10.896484375 12 12 12 c 4
10 8 m 4
 11.103515625 8 12 7.103515625 12 6 c 4
 12 4.896484375 11.103515625 4 10 4 c 4
 8.896484375 4 8 4.896484375 8 6 c 4
 8 7.103515625 8.896484375 8 10 8 c 4
6 4 m 4
 6.2958984375 4 6.744140625 3.87890625 7 3.73046875 c 4
 7.255859375 3.87890625 7.7041015625 4 8 4 c 4
 9.103515625 4 10 3.103515625 10 2 c 4
 10 0.896484375 9.103515625 0 8 0 c 4
 7.7041015625 0 7.255859375 0.12109375 7 0.26953125 c 4
 6.744140625 0.12109375 6.2958984375 0 6 0 c 4
 4.896484375 0 4 0.896484375 4 2 c 4
 4 3.103515625 4.896484375 4 6 4 c 4
EndSplineSet
EndUndoOperation
EndUndoes
Redoes
EndRedoes
EndUndoRedoHistory
Fore
SplineSet
70 280 m 4
 73 280 77 278 80 277 c 4
 83 278 87 280 90 280 c 4
 101 280 110 271 110 260 c 4
 110 249 101 240 90 240 c 4
 87 240 83 242 80 243 c 4
 77 242 73 240 70 240 c 4
 59 240 50 249 50 260 c 4
 50 271 59 280 70 280 c 4
110 240 m 4
 121 240 130 231 130 220 c 4
 130 209 121 200 110 200 c 4
 99 200 90 209 90 220 c 4
 90 231 99 240 110 240 c 4
130 200 m 4
 141 200 150 191 150 180 c 4
 150 169 141 160 130 160 c 4
 119 160 110 169 110 180 c 4
 110 191 119 200 130 200 c 4
130 160 m 4
 141 160 150 151 150 140 c 4
 150 129 141 120 130 120 c 4
 119 120 110 129 110 140 c 4
 110 151 119 160 130 160 c 4
130 120 m 4
 141 120 150 111 150 100 c 4
 150 89 141 80 130 80 c 4
 119 80 110 89 110 100 c 4
 110 111 119 120 130 120 c 4
110 80 m 4
 121 80 130 71 130 60 c 4
 130 49 121 40 110 40 c 4
 99 40 90 49 90 60 c 4
 90 71 99 80 110 80 c 4
70 40 m 4
 73 40 77 38 80 37 c 4
 83 38 87 40 90 40 c 4
 101 40 110 31 110 20 c 4
 110 9 101 0 90 0 c 4
 87 0 83 2 80 3 c 4
 77 2 73 0 70 0 c 4
 59 0 50 9 50 20 c 4
 50 31 59 40 70 40 c 4
EndSplineSet
EndChar

StartChar: asterisk
Encoding: 42 42 44
Width: 200
VWidth: 0
Flags: HW
LayerCount: 2
UndoRedoHistory
Layer: 0
Undoes
UndoOperation
Index: 0
Type: 1
WasModified: 0
WasOrder2: 0
Layer: 2
Width: 20
VWidth: 0
LBearingChange: 0
UnicodeEnc: 0
InstructionsLength: 0
EndUndoOperation
EndUndoes
Redoes
EndRedoes
EndUndoRedoHistory
UndoRedoHistory
Layer: 1
Undoes
UndoOperation
Index: 0
Type: 3
WasModified: 0
WasOrder2: 0
Layer: 2
EndUndoOperation
UndoOperation
Index: 1
Type: 1
WasModified: 1
WasOrder2: 0
Layer: 2
Width: 20
VWidth: 0
LBearingChange: 0
UnicodeEnc: 0
InstructionsLength: 0
SplineSet
6 25 m 4
 7.103515625 25 8 24.103515625 8 23 c 4
 8 21.896484375 7.103515625 21 6 21 c 4
 4.896484375 21 4 21.896484375 4 23 c 4
 4 24.103515625 4.896484375 25 6 25 c 4
14 25 m 4
 15.103515625 25 16 24.103515625 16 23 c 4
 16 21.896484375 15.103515625 21 14 21 c 4
 12.896484375 21 12 21.896484375 12 23 c 4
 12 24.103515625 12.896484375 25 14 25 c 4
8 21 m 4
 9.103515625 21 10 20.103515625 10 19 c 4
 10 17.896484375 9.103515625 17 8 17 c 4
 6.896484375 17 6 17.896484375 6 19 c 4
 6 20.103515625 6.896484375 21 8 21 c 4
10 19 m 4
 10 20.103515625 10.896484375 21 12 21 c 4
 13.103515625 21 14 20.103515625 14 19 c 4
 14 17.896484375 13.103515625 17 12 17 c 4
 10.896484375 17 10 17.896484375 10 19 c 4
12 17 m 4
 12.2958984375 17 12.744140625 16.87890625 13 16.73046875 c 4
 13.255859375 16.87890625 13.7041015625 17 14 17 c 4
 14.2958984375 17 14.744140625 16.87890625 15 16.73046875 c 4
 15.255859375 16.87890625 15.7041015625 17 16 17 c 4
 17.103515625 17 18 16.103515625 18 15 c 4
 18 13.896484375 17.103515625 13 16 13 c 4
 15.7041015625 13 15.255859375 13.12109375 15 13.26953125 c 4
 14.744140625 13.12109375 14.2958984375 13 14 13 c 4
 13.7041015625 13 13.255859375 13.12109375 13 13.26953125 c 4
 12.744140625 13.12109375 12.2958984375 13 12 13 c 4
 11.7041015625 13 11.255859375 13.12109375 11 13.26953125 c 4
 10.744140625 13.12109375 10.2958984375 13 10 13 c 4
 9.7041015625 13 9.255859375 13.12109375 9 13.26953125 c 4
 8.744140625 13.12109375 8.2958984375 13 8 13 c 4
 7.7041015625 13 7.255859375 13.12109375 7 13.26953125 c 4
 6.744140625 13.12109375 6.2958984375 13 6 13 c 4
 5.7041015625 13 5.255859375 13.12109375 5 13.26953125 c 4
 4.744140625 13.12109375 4.2958984375 13 4 13 c 4
 2.896484375 13 2 13.896484375 2 15 c 4
 2 16.103515625 2.896484375 17 4 17 c 4
 4.2958984375 17 4.744140625 16.87890625 5 16.73046875 c 4
 5.255859375 16.87890625 5.7041015625 17 6 17 c 4
 6.2958984375 17 6.744140625 16.87890625 7 16.73046875 c 4
 7.255859375 16.87890625 7.7041015625 17 8 17 c 4
 8.2958984375 17 8.744140625 16.87890625 9 16.73046875 c 4
 9.255859375 16.87890625 9.7041015625 17 10 17 c 4
 10.2958984375 17 10.744140625 16.87890625 11 16.73046875 c 4
 11.255859375 16.87890625 11.7041015625 17 12 17 c 4
12 13 m 4
 13.103515625 13 14 12.103515625 14 11 c 4
 14 9.896484375 13.103515625 9 12 9 c 4
 10.896484375 9 10 9.896484375 10 11 c 4
 10 12.103515625 10.896484375 13 12 13 c 4
10 11 m 4
 10 9.896484375 9.103515625 9 8 9 c 4
 6.896484375 9 6 9.896484375 6 11 c 4
 6 12.103515625 6.896484375 13 8 13 c 4
 9.103515625 13 10 12.103515625 10 11 c 4
6 9 m 4
 7.103515625 9 8 8.103515625 8 7 c 4
 8 5.896484375 7.103515625 5 6 5 c 4
 4.896484375 5 4 5.896484375 4 7 c 4
 4 8.103515625 4.896484375 9 6 9 c 4
14 9 m 4
 15.103515625 9 16 8.103515625 16 7 c 4
 16 5.896484375 15.103515625 5 14 5 c 4
 12.896484375 5 12 5.896484375 12 7 c 4
 12 8.103515625 12.896484375 9 14 9 c 4
EndSplineSet
EndUndoOperation
EndUndoes
Redoes
EndRedoes
EndUndoRedoHistory
Fore
SplineSet
60 240 m 4
 71 240 80 231 80 220 c 4
 80 209 71 200 60 200 c 4
 49 200 40 209 40 220 c 4
 40 231 49 240 60 240 c 4
140 240 m 4
 151 240 160 231 160 220 c 4
 160 209 151 200 140 200 c 4
 129 200 120 209 120 220 c 4
 120 231 129 240 140 240 c 4
80 200 m 4
 91 200 100 191 100 180 c 4
 100 169 91 160 80 160 c 4
 69 160 60 169 60 180 c 4
 60 191 69 200 80 200 c 4
100 180 m 4
 100 191 109 200 120 200 c 4
 131 200 140 191 140 180 c 4
 140 169 131 160 120 160 c 4
 109 160 100 169 100 180 c 4
120 160 m 4
 123 160 127 158 130 157 c 4
 133 158 137 160 140 160 c 4
 143 160 147 158 150 157 c 4
 153 158 157 160 160 160 c 4
 171 160 180 151 180 140 c 4
 180 129 171 120 160 120 c 4
 157 120 153 122 150 123 c 4
 147 122 143 120 140 120 c 4
 137 120 133 122 130 123 c 4
 127 122 123 120 120 120 c 4
 117 120 113 122 110 123 c 4
 107 122 103 120 100 120 c 4
 97 120 93 122 90 123 c 4
 87 122 83 120 80 120 c 4
 77 120 73 122 70 123 c 4
 67 122 63 120 60 120 c 4
 57 120 53 122 50 123 c 4
 47 122 43 120 40 120 c 4
 29 120 20 129 20 140 c 4
 20 151 29 160 40 160 c 4
 43 160 47 158 50 157 c 4
 53 158 57 160 60 160 c 4
 63 160 67 158 70 157 c 4
 73 158 77 160 80 160 c 4
 83 160 87 158 90 157 c 4
 93 158 97 160 100 160 c 4
 103 160 107 158 110 157 c 4
 113 158 117 160 120 160 c 4
120 120 m 4
 131 120 140 111 140 100 c 4
 140 89 131 80 120 80 c 4
 109 80 100 89 100 100 c 4
 100 111 109 120 120 120 c 4
100 100 m 4
 100 89 91 80 80 80 c 4
 69 80 60 89 60 100 c 4
 60 111 69 120 80 120 c 4
 91 120 100 111 100 100 c 4
60 80 m 4
 71 80 80 71 80 60 c 4
 80 49 71 40 60 40 c 4
 49 40 40 49 40 60 c 4
 40 71 49 80 60 80 c 4
140 80 m 4
 151 80 160 71 160 60 c 4
 160 49 151 40 140 40 c 4
 129 40 120 49 120 60 c 4
 120 71 129 80 140 80 c 4
EndSplineSet
EndChar

StartChar: plus
Encoding: 43 43 45
Width: 200
VWidth: 0
Flags: HW
LayerCount: 2
UndoRedoHistory
Layer: 0
Undoes
UndoOperation
Index: 0
Type: 1
WasModified: 0
WasOrder2: 0
Layer: 2
Width: 20
VWidth: 0
LBearingChange: 0
UnicodeEnc: 0
InstructionsLength: 0
EndUndoOperation
EndUndoes
Redoes
EndRedoes
EndUndoRedoHistory
UndoRedoHistory
Layer: 1
Undoes
UndoOperation
Index: 0
Type: 3
WasModified: 0
WasOrder2: 0
Layer: 2
EndUndoOperation
UndoOperation
Index: 1
Type: 1
WasModified: 1
WasOrder2: 0
Layer: 2
Width: 20
VWidth: 0
LBearingChange: 0
UnicodeEnc: 0
InstructionsLength: 0
SplineSet
10 23 m 4
 11.103515625 23 12 22.103515625 12 21 c 4
 12 19.896484375 11.103515625 19 10 19 c 4
 8.896484375 19 8 19.896484375 8 21 c 4
 8 22.103515625 8.896484375 23 10 23 c 4
10 19 m 4
 11.103515625 19 12 18.103515625 12 17 c 4
 12 15.896484375 11.103515625 15 10 15 c 4
 8.896484375 15 8 15.896484375 8 17 c 4
 8 18.103515625 8.896484375 19 10 19 c 4
10 15 m 4
 10.2958984375 15 10.744140625 14.87890625 11 14.73046875 c 4
 11.255859375 14.87890625 11.7041015625 15 12 15 c 4
 12.2958984375 15 12.744140625 14.87890625 13 14.73046875 c 4
 13.255859375 14.87890625 13.7041015625 15 14 15 c 4
 14.2958984375 15 14.744140625 14.87890625 15 14.73046875 c 4
 15.255859375 14.87890625 15.7041015625 15 16 15 c 4
 17.103515625 15 18 14.103515625 18 13 c 4
 18 11.896484375 17.103515625 11 16 11 c 4
 15.7041015625 11 15.255859375 11.12109375 15 11.26953125 c 4
 14.744140625 11.12109375 14.2958984375 11 14 11 c 4
 13.7041015625 11 13.255859375 11.12109375 13 11.26953125 c 4
 12.744140625 11.12109375 12.2958984375 11 12 11 c 4
 11.7041015625 11 11.255859375 11.12109375 11 11.26953125 c 4
 10.744140625 11.12109375 10.2958984375 11 10 11 c 4
 9.7041015625 11 9.255859375 11.12109375 9 11.26953125 c 4
 8.744140625 11.12109375 8.2958984375 11 8 11 c 4
 7.7041015625 11 7.255859375 11.12109375 7 11.26953125 c 4
 6.744140625 11.12109375 6.2958984375 11 6 11 c 4
 5.7041015625 11 5.255859375 11.12109375 5 11.26953125 c 4
 4.744140625 11.12109375 4.2958984375 11 4 11 c 4
 2.896484375 11 2 11.896484375 2 13 c 4
 2 14.103515625 2.896484375 15 4 15 c 4
 4.2958984375 15 4.744140625 14.87890625 5 14.73046875 c 4
 5.255859375 14.87890625 5.7041015625 15 6 15 c 4
 6.2958984375 15 6.744140625 14.87890625 7 14.73046875 c 4
 7.255859375 14.87890625 7.7041015625 15 8 15 c 4
 8.2958984375 15 8.744140625 14.87890625 9 14.73046875 c 4
 9.255859375 14.87890625 9.7041015625 15 10 15 c 4
10 11 m 4
 11.103515625 11 12 10.103515625 12 9 c 4
 12 7.896484375 11.103515625 7 10 7 c 4
 8.896484375 7 8 7.896484375 8 9 c 4
 8 10.103515625 8.896484375 11 10 11 c 4
10 7 m 4
 11.103515625 7 12 6.103515625 12 5 c 4
 12 3.896484375 11.103515625 3 10 3 c 4
 8.896484375 3 8 3.896484375 8 5 c 4
 8 6.103515625 8.896484375 7 10 7 c 4
EndSplineSet
EndUndoOperation
EndUndoes
Redoes
EndRedoes
EndUndoRedoHistory
Fore
SplineSet
100 240 m 4
 111 240 120 231 120 220 c 4
 120 209 111 200 100 200 c 4
 89 200 80 209 80 220 c 4
 80 231 89 240 100 240 c 4
100 200 m 4
 111 200 120 191 120 180 c 4
 120 169 111 160 100 160 c 4
 89 160 80 169 80 180 c 4
 80 191 89 200 100 200 c 4
100 160 m 4
 103 160 107 158 110 157 c 4
 113 158 117 160 120 160 c 4
 123 160 127 158 130 157 c 4
 133 158 137 160 140 160 c 4
 143 160 147 158 150 157 c 4
 153 158 157 160 160 160 c 4
 171 160 180 151 180 140 c 4
 180 129 171 120 160 120 c 4
 157 120 153 122 150 123 c 4
 147 122 143 120 140 120 c 4
 137 120 133 122 130 123 c 4
 127 122 123 120 120 120 c 4
 117 120 113 122 110 123 c 4
 107 122 103 120 100 120 c 4
 97 120 93 122 90 123 c 4
 87 122 83 120 80 120 c 4
 77 120 73 122 70 123 c 4
 67 122 63 120 60 120 c 4
 57 120 53 122 50 123 c 4
 47 122 43 120 40 120 c 4
 29 120 20 129 20 140 c 4
 20 151 29 160 40 160 c 4
 43 160 47 158 50 157 c 4
 53 158 57 160 60 160 c 4
 63 160 67 158 70 157 c 4
 73 158 77 160 80 160 c 4
 83 160 87 158 90 157 c 4
 93 158 97 160 100 160 c 4
100 120 m 4
 111 120 120 111 120 100 c 4
 120 89 111 80 100 80 c 4
 89 80 80 89 80 100 c 4
 80 111 89 120 100 120 c 4
100 80 m 4
 111 80 120 71 120 60 c 4
 120 49 111 40 100 40 c 4
 89 40 80 49 80 60 c 4
 80 71 89 80 100 80 c 4
EndSplineSet
EndChar

StartChar: comma
Encoding: 44 44 46
Width: 200
VWidth: 0
Flags: HW
LayerCount: 2
UndoRedoHistory
Layer: 0
Undoes
UndoOperation
Index: 0
Type: 1
WasModified: 0
WasOrder2: 0
Layer: 2
Width: 20
VWidth: 0
LBearingChange: 0
UnicodeEnc: 0
InstructionsLength: 0
EndUndoOperation
EndUndoes
Redoes
EndRedoes
EndUndoRedoHistory
UndoRedoHistory
Layer: 1
Undoes
UndoOperation
Index: 0
Type: 3
WasModified: 0
WasOrder2: 0
Layer: 2
EndUndoOperation
UndoOperation
Index: 1
Type: 1
WasModified: 1
WasOrder2: 0
Layer: 2
Width: 20
VWidth: 0
LBearingChange: 0
UnicodeEnc: 0
InstructionsLength: 0
SplineSet
2 28 m 4
 2.2958984375 28 2.744140625 27.87890625 3 27.73046875 c 4
 3.255859375 27.87890625 3.7041015625 28 4 28 c 4
 5.103515625 28 6 27.103515625 6 26 c 4
 6 24.896484375 5.103515625 24 4 24 c 4
 3.7041015625 24 3.255859375 24.12109375 3 24.26953125 c 4
 2.744140625 24.12109375 2.2958984375 24 2 24 c 4
 0.896484375 24 0 24.896484375 0 26 c 4
 0 27.103515625 0.896484375 28 2 28 c 4
4 24 m 4
 5.103515625 24 6 23.103515625 6 22 c 4
 6 20.896484375 5.103515625 20 4 20 c 4
 3.7041015625 20 3.255859375 20.12109375 3 20.26953125 c 4
 2.744140625 20.12109375 2.2958984375 20 2 20 c 4
 0.896484375 20 0 20.896484375 0 22 c 4
 0 23.103515625 0.896484375 24 2 24 c 4
 2.2958984375 24 2.744140625 23.87890625 3 23.73046875 c 4
 3.255859375 23.87890625 3.7041015625 24 4 24 c 4
4 20 m 4
 5.103515625 20 6 19.103515625 6 18 c 4
 6 16.896484375 5.103515625 16 4 16 c 4
 2.896484375 16 2 16.896484375 2 18 c 4
 2 19.103515625 2.896484375 20 4 20 c 4
2 16 m 4
 3.103515625 16 4 15.103515625 4 14 c 4
 4 12.896484375 3.103515625 12 2 12 c 4
 0.896484375 12 0 12.896484375 0 14 c 4
 0 15.103515625 0.896484375 16 2 16 c 4
EndSplineSet
EndUndoOperation
EndUndoes
Redoes
EndRedoes
EndUndoRedoHistory
Fore
SplineSet
90 80 m 4
 93 80 97 78 100 77 c 4
 103 78 107 80 110 80 c 4
 121 80 130 71 130 60 c 4
 130 49 121 40 110 40 c 4
 107 40 103 42 100 43 c 4
 97 42 93 40 90 40 c 4
 79 40 70 49 70 60 c 4
 70 71 79 80 90 80 c 4
110 40 m 4
 121 40 130 31 130 20 c 4
 130 9 121 0 110 0 c 4
 107 0 103 2 100 3 c 4
 97 2 93 0 90 0 c 4
 79 0 70 9 70 20 c 4
 70 31 79 40 90 40 c 4
 93 40 97 38 100 37 c 4
 103 38 107 40 110 40 c 4
110 0 m 4
 121 0 130 -9 130 -20 c 4
 130 -31 121 -40 110 -40 c 4
 99 -40 90 -31 90 -20 c 4
 90 -9 99 0 110 0 c 4
90 -40 m 4
 101 -40 110 -49 110 -60 c 4
 110 -71 101 -80 90 -80 c 4
 79 -80 70 -71 70 -60 c 4
 70 -49 79 -40 90 -40 c 4
EndSplineSet
EndChar

StartChar: hyphen
Encoding: 45 45 47
Width: 200
VWidth: 0
Flags: HW
LayerCount: 2
UndoRedoHistory
Layer: 0
Undoes
UndoOperation
Index: 0
Type: 1
WasModified: 0
WasOrder2: 0
Layer: 2
Width: 20
VWidth: 0
LBearingChange: 0
UnicodeEnc: 0
InstructionsLength: 0
EndUndoOperation
EndUndoes
Redoes
EndRedoes
EndUndoRedoHistory
UndoRedoHistory
Layer: 1
Undoes
UndoOperation
Index: 0
Type: 3
WasModified: 0
WasOrder2: 0
Layer: 2
EndUndoOperation
UndoOperation
Index: 1
Type: 1
WasModified: 0
WasOrder2: 0
Layer: 2
Width: 20
VWidth: 0
LBearingChange: 0
UnicodeEnc: 0
InstructionsLength: 0
SplineSet
6 15 m 4
 6.2958984375 15 6.744140625 14.87890625 7 14.73046875 c 4
 7.255859375 14.87890625 7.7041015625 15 8 15 c 4
 8.2958984375 15 8.744140625 14.87890625 9 14.73046875 c 4
 9.255859375 14.87890625 9.7041015625 15 10 15 c 4
 10.2958984375 15 10.744140625 14.87890625 11 14.73046875 c 4
 11.255859375 14.87890625 11.7041015625 15 12 15 c 4
 12.2958984375 15 12.744140625 14.87890625 13 14.73046875 c 4
 13.255859375 14.87890625 13.7041015625 15 14 15 c 4
 15.103515625 15 16 14.103515625 16 13 c 4
 16 11.896484375 15.103515625 11 14 11 c 4
 13.7041015625 11 13.255859375 11.12109375 13 11.26953125 c 4
 12.744140625 11.12109375 12.2958984375 11 12 11 c 4
 11.7041015625 11 11.255859375 11.12109375 11 11.26953125 c 4
 10.744140625 11.12109375 10.2958984375 11 10 11 c 4
 9.7041015625 11 9.255859375 11.12109375 9 11.26953125 c 4
 8.744140625 11.12109375 8.2958984375 11 8 11 c 4
 7.7041015625 11 7.255859375 11.12109375 7 11.26953125 c 4
 6.744140625 11.12109375 6.2958984375 11 6 11 c 4
 4.896484375 11 4 11.896484375 4 13 c 4
 4 14.103515625 4.896484375 15 6 15 c 4
EndSplineSet
EndUndoOperation
EndUndoes
Redoes
EndRedoes
EndUndoRedoHistory
Fore
SplineSet
60 160 m 4
 63 160 67 158 70 157 c 4
 73 158 77 160 80 160 c 4
 83 160 87 158 90 157 c 4
 93 158 97 160 100 160 c 4
 103 160 107 158 110 157 c 4
 113 158 117 160 120 160 c 4
 123 160 127 158 130 157 c 4
 133 158 137 160 140 160 c 4
 151 160 160 151 160 140 c 4
 160 129 151 120 140 120 c 4
 137 120 133 122 130 123 c 4
 127 122 123 120 120 120 c 4
 117 120 113 122 110 123 c 4
 107 122 103 120 100 120 c 4
 97 120 93 122 90 123 c 4
 87 122 83 120 80 120 c 4
 77 120 73 122 70 123 c 4
 67 122 63 120 60 120 c 4
 49 120 40 129 40 140 c 4
 40 151 49 160 60 160 c 4
EndSplineSet
EndChar

StartChar: period
Encoding: 46 46 48
Width: 200
VWidth: 0
Flags: HW
LayerCount: 2
UndoRedoHistory
Layer: 0
Undoes
UndoOperation
Index: 0
Type: 1
WasModified: 0
WasOrder2: 0
Layer: 2
Width: 20
VWidth: 0
LBearingChange: 0
UnicodeEnc: 0
InstructionsLength: 0
EndUndoOperation
EndUndoes
Redoes
EndRedoes
EndUndoRedoHistory
UndoRedoHistory
Layer: 1
Undoes
UndoOperation
Index: 0
Type: 3
WasModified: 0
WasOrder2: 0
Layer: 2
EndUndoOperation
UndoOperation
Index: 1
Type: 1
WasModified: 1
WasOrder2: 0
Layer: 2
Width: 20
VWidth: 0
LBearingChange: 0
UnicodeEnc: 0
InstructionsLength: 0
SplineSet
2 28 m 4
 2.2958984375 28 2.744140625 27.87890625 3 27.73046875 c 4
 3.255859375 27.87890625 3.7041015625 28 4 28 c 4
 5.103515625 28 6 27.103515625 6 26 c 4
 6 24.896484375 5.103515625 24 4 24 c 4
 3.7041015625 24 3.255859375 24.12109375 3 24.26953125 c 4
 2.744140625 24.12109375 2.2958984375 24 2 24 c 4
 0.896484375 24 0 24.896484375 0 26 c 4
 0 27.103515625 0.896484375 28 2 28 c 4
4 24 m 4
 5.103515625 24 6 23.103515625 6 22 c 4
 6 20.896484375 5.103515625 20 4 20 c 4
 3.7041015625 20 3.255859375 20.12109375 3 20.26953125 c 4
 2.744140625 20.12109375 2.2958984375 20 2 20 c 4
 0.896484375 20 0 20.896484375 0 22 c 4
 0 23.103515625 0.896484375 24 2 24 c 4
 2.2958984375 24 2.744140625 23.87890625 3 23.73046875 c 4
 3.255859375 23.87890625 3.7041015625 24 4 24 c 4
EndSplineSet
EndUndoOperation
EndUndoes
Redoes
EndRedoes
EndUndoRedoHistory
Fore
SplineSet
90 80 m 4
 93 80 97 78 100 77 c 4
 103 78 107 80 110 80 c 4
 121 80 130 71 130 60 c 4
 130 49 121 40 110 40 c 4
 107 40 103 42 100 43 c 4
 97 42 93 40 90 40 c 4
 79 40 70 49 70 60 c 4
 70 71 79 80 90 80 c 4
110 40 m 4
 121 40 130 31 130 20 c 4
 130 9 121 0 110 0 c 4
 107 0 103 2 100 3 c 4
 97 2 93 0 90 0 c 4
 79 0 70 9 70 20 c 4
 70 31 79 40 90 40 c 4
 93 40 97 38 100 37 c 4
 103 38 107 40 110 40 c 4
EndSplineSet
EndChar

StartChar: slash
Encoding: 47 47 49
Width: 200
VWidth: 0
Flags: HW
LayerCount: 2
UndoRedoHistory
Layer: 0
Undoes
UndoOperation
Index: 0
Type: 1
WasModified: 0
WasOrder2: 0
Layer: 2
Width: 20
VWidth: 0
LBearingChange: 0
UnicodeEnc: 0
InstructionsLength: 0
EndUndoOperation
EndUndoes
Redoes
EndRedoes
EndUndoRedoHistory
UndoRedoHistory
Layer: 1
Undoes
UndoOperation
Index: 0
Type: 3
WasModified: 0
WasOrder2: 0
Layer: 2
EndUndoOperation
UndoOperation
Index: 1
Type: 1
WasModified: 1
WasOrder2: 0
Layer: 2
Width: 20
VWidth: 0
LBearingChange: 0
UnicodeEnc: 0
InstructionsLength: 0
SplineSet
15 28 m 4
 16.103515625 28 17 27.103515625 17 26 c 4
 17 24.896484375 16.103515625 24 15 24 c 4
 13.896484375 24 13 24.896484375 13 26 c 4
 13 27.103515625 13.896484375 28 15 28 c 4
13 24 m 4
 14.103515625 24 15 23.103515625 15 22 c 4
 15 20.896484375 14.103515625 20 13 20 c 4
 11.896484375 20 11 20.896484375 11 22 c 4
 11 23.103515625 11.896484375 24 13 24 c 4
11 20 m 4
 12.103515625 20 13 19.103515625 13 18 c 4
 13 16.896484375 12.103515625 16 11 16 c 4
 9.896484375 16 9 16.896484375 9 18 c 4
 9 19.103515625 9.896484375 20 11 20 c 4
9 16 m 4
 10.103515625 16 11 15.103515625 11 14 c 4
 11 12.896484375 10.103515625 12 9 12 c 4
 7.896484375 12 7 12.896484375 7 14 c 4
 7 15.103515625 7.896484375 16 9 16 c 4
7 12 m 4
 8.103515625 12 9 11.103515625 9 10 c 4
 9 8.896484375 8.103515625 8 7 8 c 4
 5.896484375 8 5 8.896484375 5 10 c 4
 5 11.103515625 5.896484375 12 7 12 c 4
5 8 m 4
 6.103515625 8 7 7.103515625 7 6 c 4
 7 4.896484375 6.103515625 4 5 4 c 4
 3.896484375 4 3 4.896484375 3 6 c 4
 3 7.103515625 3.896484375 8 5 8 c 4
3 4 m 4
 4.103515625 4 5 3.103515625 5 2 c 4
 5 0.896484375 4.103515625 0 3 0 c 4
 1.896484375 0 1 0.896484375 1 2 c 4
 1 3.103515625 1.896484375 4 3 4 c 4
EndSplineSet
EndUndoOperation
EndUndoes
Redoes
EndRedoes
EndUndoRedoHistory
Fore
SplineSet
160 280 m 4
 171 280 180 271 180 260 c 4
 180 249 171 240 160 240 c 4
 149 240 140 249 140 260 c 4
 140 271 149 280 160 280 c 4
140 240 m 4
 151 240 160 231 160 220 c 4
 160 209 151 200 140 200 c 4
 129 200 120 209 120 220 c 4
 120 231 129 240 140 240 c 4
120 200 m 4
 131 200 140 191 140 180 c 4
 140 169 131 160 120 160 c 4
 109 160 100 169 100 180 c 4
 100 191 109 200 120 200 c 4
100 160 m 4
 111 160 120 151 120 140 c 4
 120 129 111 120 100 120 c 4
 89 120 80 129 80 140 c 4
 80 151 89 160 100 160 c 4
80 120 m 4
 91 120 100 111 100 100 c 4
 100 89 91 80 80 80 c 4
 69 80 60 89 60 100 c 4
 60 111 69 120 80 120 c 4
60 80 m 4
 71 80 80 71 80 60 c 4
 80 49 71 40 60 40 c 4
 49 40 40 49 40 60 c 4
 40 71 49 80 60 80 c 4
40 40 m 4
 51 40 60 31 60 20 c 4
 60 9 51 0 40 0 c 4
 29 0 20 9 20 20 c 4
 20 31 29 40 40 40 c 4
EndSplineSet
EndChar

StartChar: zero
Encoding: 48 48 50
Width: 200
VWidth: 0
Flags: HW
LayerCount: 2
UndoRedoHistory
Layer: 0
Undoes
UndoOperation
Index: 0
Type: 1
WasModified: 0
WasOrder2: 0
Layer: 2
Width: 20
VWidth: 0
LBearingChange: 0
UnicodeEnc: 0
InstructionsLength: 0
EndUndoOperation
EndUndoes
Redoes
EndRedoes
EndUndoRedoHistory
UndoRedoHistory
Layer: 1
Undoes
UndoOperation
Index: 0
Type: 3
WasModified: 0
WasOrder2: 0
Layer: 2
EndUndoOperation
UndoOperation
Index: 1
Type: 1
WasModified: 1
WasOrder2: 0
Layer: 2
Width: 20
VWidth: 0
LBearingChange: 0
UnicodeEnc: 0
InstructionsLength: 0
SplineSet
5 28 m 4
 5.2958984375 28 5.744140625 27.87890625 6 27.73046875 c 4
 6.255859375 27.87890625 6.7041015625 28 7 28 c 4
 7.2958984375 28 7.744140625 27.87890625 8 27.73046875 c 4
 8.255859375 27.87890625 8.7041015625 28 9 28 c 4
 9.2958984375 28 9.744140625 27.87890625 10 27.73046875 c 4
 10.255859375 27.87890625 10.7041015625 28 11 28 c 4
 11.2958984375 28 11.744140625 27.87890625 12 27.73046875 c 4
 12.255859375 27.87890625 12.7041015625 28 13 28 c 4
 14.103515625 28 15 27.103515625 15 26 c 4
 15 24.896484375 14.103515625 24 13 24 c 4
 12.7041015625 24 12.255859375 24.12109375 12 24.26953125 c 4
 11.744140625 24.12109375 11.2958984375 24 11 24 c 4
 10.7041015625 24 10.255859375 24.12109375 10 24.26953125 c 4
 9.744140625 24.12109375 9.2958984375 24 9 24 c 4
 8.7041015625 24 8.255859375 24.12109375 8 24.26953125 c 4
 7.744140625 24.12109375 7.2958984375 24 7 24 c 4
 6.7041015625 24 6.255859375 24.12109375 6 24.26953125 c 4
 5.744140625 24.12109375 5.2958984375 24 5 24 c 4
 3.896484375 24 3 24.896484375 3 26 c 4
 3 27.103515625 3.896484375 28 5 28 c 4
13 24 m 4
 13.2958984375 24 13.744140625 23.87890625 14 23.73046875 c 4
 14.255859375 23.87890625 14.7041015625 24 15 24 c 4
 16.103515625 24 17 23.103515625 17 22 c 4
 17 20.896484375 16.103515625 20 15 20 c 4
 14.7041015625 20 14.255859375 20.12109375 14 20.26953125 c 4
 13.744140625 20.12109375 13.2958984375 20 13 20 c 4
 11.896484375 20 11 20.896484375 11 22 c 4
 11 23.103515625 11.896484375 24 13 24 c 4
15 20 m 4
 16.103515625 20 17 19.103515625 17 18 c 4
 17 16.896484375 16.103515625 16 15 16 c 4
 13.896484375 16 13 16.896484375 13 18 c 4
 13 19.103515625 13.896484375 20 15 20 c 4
15 16 m 4
 16.103515625 16 17 15.103515625 17 14 c 4
 17 12.896484375 16.103515625 12 15 12 c 4
 13.896484375 12 13 12.896484375 13 14 c 4
 13 15.103515625 13.896484375 16 15 16 c 4
15 12 m 4
 16.103515625 12 17 11.103515625 17 10 c 4
 17 8.896484375 16.103515625 8 15 8 c 4
 13.896484375 8 13 8.896484375 13 10 c 4
 13 11.103515625 13.896484375 12 15 12 c 4
15 8 m 4
 16.103515625 8 17 7.103515625 17 6 c 4
 17 4.896484375 16.103515625 4 15 4 c 4
 13.896484375 4 13 4.896484375 13 6 c 4
 13 7.103515625 13.896484375 8 15 8 c 4
13 18 m 4
 13 16.896484375 12.103515625 16 11 16 c 4
 9.896484375 16 9 16.896484375 9 18 c 4
 9 19.103515625 9.896484375 20 11 20 c 4
 12.103515625 20 13 19.103515625 13 18 c 4
3 24 m 4
 4.103515625 24 5 23.103515625 5 22 c 4
 5 20.896484375 4.103515625 20 3 20 c 4
 1.896484375 20 1 20.896484375 1 22 c 4
 1 23.103515625 1.896484375 24 3 24 c 4
3 20 m 4
 4.103515625 20 5 19.103515625 5 18 c 4
 5 16.896484375 4.103515625 16 3 16 c 4
 1.896484375 16 1 16.896484375 1 18 c 4
 1 19.103515625 1.896484375 20 3 20 c 4
3 16 m 4
 4.103515625 16 5 15.103515625 5 14 c 4
 5 12.896484375 4.103515625 12 3 12 c 4
 1.896484375 12 1 12.896484375 1 14 c 4
 1 15.103515625 1.896484375 16 3 16 c 4
3 12 m 4
 4.103515625 12 5 11.103515625 5 10 c 4
 5 8.896484375 4.103515625 8 3 8 c 4
 1.896484375 8 1 8.896484375 1 10 c 4
 1 11.103515625 1.896484375 12 3 12 c 4
5 10 m 4
 5 11.103515625 5.896484375 12 7 12 c 4
 8.103515625 12 9 11.103515625 9 10 c 4
 9 8.896484375 8.103515625 8 7 8 c 4
 5.896484375 8 5 8.896484375 5 10 c 4
3 8 m 4
 3.2958984375 8 3.744140625 7.87890625 4 7.73046875 c 4
 4.255859375 7.87890625 4.7041015625 8 5 8 c 4
 6.103515625 8 7 7.103515625 7 6 c 4
 7 4.896484375 6.103515625 4 5 4 c 4
 4.7041015625 4 4.255859375 4.12109375 4 4.26953125 c 4
 3.744140625 4.12109375 3.2958984375 4 3 4 c 4
 1.896484375 4 1 4.896484375 1 6 c 4
 1 7.103515625 1.896484375 8 3 8 c 4
5 4 m 4
 5.2958984375 4 5.744140625 3.87890625 6 3.73046875 c 4
 6.255859375 3.87890625 6.7041015625 4 7 4 c 4
 7.2958984375 4 7.744140625 3.87890625 8 3.73046875 c 4
 8.255859375 3.87890625 8.7041015625 4 9 4 c 4
 9.2958984375 4 9.744140625 3.87890625 10 3.73046875 c 4
 10.255859375 3.87890625 10.7041015625 4 11 4 c 4
 11.2958984375 4 11.744140625 3.87890625 12 3.73046875 c 4
 12.255859375 3.87890625 12.7041015625 4 13 4 c 4
 14.103515625 4 15 3.103515625 15 2 c 4
 15 0.896484375 14.103515625 0 13 0 c 4
 12.7041015625 0 12.255859375 0.12109375 12 0.26953125 c 4
 11.744140625 0.12109375 11.2958984375 0 11 0 c 4
 10.7041015625 0 10.255859375 0.12109375 10 0.26953125 c 4
 9.744140625 0.12109375 9.2958984375 0 9 0 c 4
 8.7041015625 0 8.255859375 0.12109375 8 0.26953125 c 4
 7.744140625 0.12109375 7.2958984375 0 7 0 c 4
 6.7041015625 0 6.255859375 0.12109375 6 0.26953125 c 4
 5.744140625 0.12109375 5.2958984375 0 5 0 c 4
 3.896484375 0 3 0.896484375 3 2 c 4
 3 3.103515625 3.896484375 4 5 4 c 4
9 16 m 4
 10.103515625 16 11 15.103515625 11 14 c 4
 11 12.896484375 10.103515625 12 9 12 c 4
 7.896484375 12 7 12.896484375 7 14 c 4
 7 15.103515625 7.896484375 16 9 16 c 4
EndSplineSet
EndUndoOperation
EndUndoes
Redoes
EndRedoes
EndUndoRedoHistory
Fore
SplineSet
60 280 m 4
 63 280 67 278 70 277 c 4
 73 278 77 280 80 280 c 4
 83 280 87 278 90 277 c 4
 93 278 97 280 100 280 c 4
 103 280 107 278 110 277 c 4
 113 278 117 280 120 280 c 4
 123 280 127 278 130 277 c 4
 133 278 137 280 140 280 c 4
 151 280 160 271 160 260 c 4
 160 249 151 240 140 240 c 4
 137 240 133 242 130 243 c 4
 127 242 123 240 120 240 c 4
 117 240 113 242 110 243 c 4
 107 242 103 240 100 240 c 4
 97 240 93 242 90 243 c 4
 87 242 83 240 80 240 c 4
 77 240 73 242 70 243 c 4
 67 242 63 240 60 240 c 4
 49 240 40 249 40 260 c 4
 40 271 49 280 60 280 c 4
140 240 m 4
 143 240 147 238 150 237 c 4
 153 238 157 240 160 240 c 4
 171 240 180 231 180 220 c 4
 180 209 171 200 160 200 c 4
 157 200 153 202 150 203 c 4
 147 202 143 200 140 200 c 4
 129 200 120 209 120 220 c 4
 120 231 129 240 140 240 c 4
160 200 m 4
 171 200 180 191 180 180 c 4
 180 169 171 160 160 160 c 4
 149 160 140 169 140 180 c 4
 140 191 149 200 160 200 c 4
160 160 m 4
 171 160 180 151 180 140 c 4
 180 129 171 120 160 120 c 4
 149 120 140 129 140 140 c 4
 140 151 149 160 160 160 c 4
160 120 m 4
 171 120 180 111 180 100 c 4
 180 89 171 80 160 80 c 4
 149 80 140 89 140 100 c 4
 140 111 149 120 160 120 c 4
160 80 m 4
 171 80 180 71 180 60 c 4
 180 49 171 40 160 40 c 4
 149 40 140 49 140 60 c 4
 140 71 149 80 160 80 c 4
140 180 m 4
 140 169 131 160 120 160 c 4
 109 160 100 169 100 180 c 4
 100 191 109 200 120 200 c 4
 131 200 140 191 140 180 c 4
40 240 m 4
 51 240 60 231 60 220 c 4
 60 209 51 200 40 200 c 4
 29 200 20 209 20 220 c 4
 20 231 29 240 40 240 c 4
40 200 m 4
 51 200 60 191 60 180 c 4
 60 169 51 160 40 160 c 4
 29 160 20 169 20 180 c 4
 20 191 29 200 40 200 c 4
40 160 m 4
 51 160 60 151 60 140 c 4
 60 129 51 120 40 120 c 4
 29 120 20 129 20 140 c 4
 20 151 29 160 40 160 c 4
40 120 m 4
 51 120 60 111 60 100 c 4
 60 89 51 80 40 80 c 4
 29 80 20 89 20 100 c 4
 20 111 29 120 40 120 c 4
60 100 m 4
 60 111 69 120 80 120 c 4
 91 120 100 111 100 100 c 4
 100 89 91 80 80 80 c 4
 69 80 60 89 60 100 c 4
40 80 m 4
 43 80 47 78 50 77 c 4
 53 78 57 80 60 80 c 4
 71 80 80 71 80 60 c 4
 80 49 71 40 60 40 c 4
 57 40 53 42 50 43 c 4
 47 42 43 40 40 40 c 4
 29 40 20 49 20 60 c 4
 20 71 29 80 40 80 c 4
60 40 m 4
 63 40 67 38 70 37 c 4
 73 38 77 40 80 40 c 4
 83 40 87 38 90 37 c 4
 93 38 97 40 100 40 c 4
 103 40 107 38 110 37 c 4
 113 38 117 40 120 40 c 4
 123 40 127 38 130 37 c 4
 133 38 137 40 140 40 c 4
 151 40 160 31 160 20 c 4
 160 9 151 0 140 0 c 4
 137 0 133 2 130 3 c 4
 127 2 123 0 120 0 c 4
 117 0 113 2 110 3 c 4
 107 2 103 0 100 0 c 4
 97 0 93 2 90 3 c 4
 87 2 83 0 80 0 c 4
 77 0 73 2 70 3 c 4
 67 2 63 0 60 0 c 4
 49 0 40 9 40 20 c 4
 40 31 49 40 60 40 c 4
100 160 m 4
 111 160 120 151 120 140 c 4
 120 129 111 120 100 120 c 4
 89 120 80 129 80 140 c 4
 80 151 89 160 100 160 c 4
EndSplineSet
EndChar

StartChar: one
Encoding: 49 49 51
Width: 200
VWidth: 0
Flags: HW
LayerCount: 2
UndoRedoHistory
Layer: 0
Undoes
UndoOperation
Index: 0
Type: 1
WasModified: 0
WasOrder2: 0
Layer: 2
Width: 20
VWidth: 0
LBearingChange: 0
UnicodeEnc: 0
InstructionsLength: 0
EndUndoOperation
EndUndoes
Redoes
EndRedoes
EndUndoRedoHistory
UndoRedoHistory
Layer: 1
Undoes
UndoOperation
Index: 0
Type: 3
WasModified: 0
WasOrder2: 0
Layer: 2
EndUndoOperation
UndoOperation
Index: 1
Type: 1
WasModified: 1
WasOrder2: 0
Layer: 2
Width: 20
VWidth: 0
LBearingChange: 0
UnicodeEnc: 0
InstructionsLength: 0
SplineSet
6 28 m 4
 7.103515625 28 8 27.103515625 8 26 c 4
 8 24.896484375 7.103515625 24 6 24 c 4
 4.896484375 24 4 24.896484375 4 26 c 4
 4 27.103515625 4.896484375 28 6 28 c 4
6 24 m 4
 7.103515625 24 8 23.103515625 8 22 c 4
 8 20.896484375 7.103515625 20 6 20 c 4
 4.896484375 20 4 20.896484375 4 22 c 4
 4 23.103515625 4.896484375 24 6 24 c 4
6 20 m 4
 7.103515625 20 8 19.103515625 8 18 c 4
 8 16.896484375 7.103515625 16 6 16 c 4
 4.896484375 16 4 16.896484375 4 18 c 4
 4 19.103515625 4.896484375 20 6 20 c 4
6 16 m 4
 7.103515625 16 8 15.103515625 8 14 c 4
 8 12.896484375 7.103515625 12 6 12 c 4
 4.896484375 12 4 12.896484375 4 14 c 4
 4 15.103515625 4.896484375 16 6 16 c 4
6 12 m 4
 7.103515625 12 8 11.103515625 8 10 c 4
 8 8.896484375 7.103515625 8 6 8 c 4
 4.896484375 8 4 8.896484375 4 10 c 4
 4 11.103515625 4.896484375 12 6 12 c 4
6 8 m 4
 7.103515625 8 8 7.103515625 8 6 c 4
 8 4.896484375 7.103515625 4 6 4 c 4
 4.896484375 4 4 4.896484375 4 6 c 4
 4 7.103515625 4.896484375 8 6 8 c 4
6 4 m 4
 6.2958984375 4 6.744140625 3.87890625 7 3.73046875 c 4
 7.255859375 3.87890625 7.7041015625 4 8 4 c 4
 8.2958984375 4 8.744140625 3.87890625 9 3.73046875 c 4
 9.255859375 3.87890625 9.7041015625 4 10 4 c 4
 11.103515625 4 12 3.103515625 12 2 c 4
 12 0.896484375 11.103515625 0 10 0 c 4
 9.7041015625 0 9.255859375 0.12109375 9 0.26953125 c 4
 8.744140625 0.12109375 8.2958984375 0 8 0 c 4
 7.7041015625 0 7.255859375 0.12109375 7 0.26953125 c 4
 6.744140625 0.12109375 6.2958984375 0 6 0 c 4
 5.7041015625 0 5.255859375 0.12109375 5 0.26953125 c 4
 4.744140625 0.12109375 4.2958984375 0 4 0 c 4
 3.7041015625 0 3.255859375 0.12109375 3 0.26953125 c 4
 2.744140625 0.12109375 2.2958984375 0 2 0 c 4
 0.896484375 0 0 0.896484375 0 2 c 4
 0 3.103515625 0.896484375 4 2 4 c 4
 2.2958984375 4 2.744140625 3.87890625 3 3.73046875 c 4
 3.255859375 3.87890625 3.7041015625 4 4 4 c 4
 4.2958984375 4 4.744140625 3.87890625 5 3.73046875 c 4
 5.255859375 3.87890625 5.7041015625 4 6 4 c 4
4 22 m 4
 4 20.896484375 3.103515625 20 2 20 c 4
 0.896484375 20 0 20.896484375 0 22 c 4
 0 23.103515625 0.896484375 24 2 24 c 4
 3.103515625 24 4 23.103515625 4 22 c 4
EndSplineSet
EndUndoOperation
EndUndoes
Redoes
EndRedoes
EndUndoRedoHistory
Fore
SplineSet
100 277 m 4
 111 277 120 268 120 257 c 4
 120 246 111 237 100 237 c 4
 89 237 80 246 80 257 c 4
 80 268 89 277 100 277 c 4
100 237 m 4
 111 237 120 228 120 217 c 4
 120 206 111 197 100 197 c 4
 89 197 80 206 80 217 c 4
 80 228 89 237 100 237 c 4
100 197 m 4
 111 197 120 188 120 177 c 4
 120 166 111 157 100 157 c 4
 89 157 80 166 80 177 c 4
 80 188 89 197 100 197 c 4
100 157 m 4
 111 157 120 148 120 137 c 4
 120 126 111 117 100 117 c 4
 89 117 80 126 80 137 c 4
 80 148 89 157 100 157 c 4
100 117 m 4
 111 117 120 108 120 97 c 4
 120 86 111 77 100 77 c 4
 89 77 80 86 80 97 c 4
 80 108 89 117 100 117 c 4
100 77 m 4
 111 77 120 68 120 57 c 4
 120 46 111 37 100 37 c 4
 89 37 80 46 80 57 c 4
 80 68 89 77 100 77 c 4
100 37 m 4
 103 37 107 36 110 35 c 4
 113 36 117 37 120 37 c 4
 123 37 127 36 130 35 c 4
 133 36 137 37 140 37 c 4
 151 37 160 28 160 17 c 4
 160 6 151 -3 140 -3 c 4
 137 -3 133 -1 130 0 c 4
 127 -1 123 -3 120 -3 c 4
 117 -3 113 -1 110 0 c 4
 107 -1 103 -3 100 -3 c 4
 97 -3 93 -1 90 0 c 4
 87 -1 83 -3 80 -3 c 4
 77 -3 73 -1 70 0 c 4
 67 -1 63 -3 60 -3 c 4
 49 -3 40 6 40 17 c 4
 40 28 49 37 60 37 c 4
 63 37 67 36 70 35 c 4
 73 36 77 37 80 37 c 4
 83 37 87 36 90 35 c 4
 93 36 97 37 100 37 c 4
80 217 m 4
 80 206 71 197 60 197 c 4
 49 197 40 206 40 217 c 4
 40 228 49 237 60 237 c 4
 71 237 80 228 80 217 c 4
EndSplineSet
EndChar

StartChar: two
Encoding: 50 50 52
Width: 200
VWidth: 0
Flags: HW
LayerCount: 2
UndoRedoHistory
Layer: 0
Undoes
UndoOperation
Index: 0
Type: 1
WasModified: 0
WasOrder2: 0
Layer: 2
Width: 20
VWidth: 0
LBearingChange: 0
UnicodeEnc: 0
InstructionsLength: 0
EndUndoOperation
EndUndoes
Redoes
EndRedoes
EndUndoRedoHistory
UndoRedoHistory
Layer: 1
Undoes
UndoOperation
Index: 0
Type: 3
WasModified: 0
WasOrder2: 0
Layer: 2
EndUndoOperation
UndoOperation
Index: 1
Type: 1
WasModified: 1
WasOrder2: 0
Layer: 2
Width: 20
VWidth: 0
LBearingChange: 2
UnicodeEnc: 0
InstructionsLength: 0
SplineSet
4 28 m 4
 4.2958984375 28 4.744140625 27.87890625 5 27.73046875 c 4
 5.255859375 27.87890625 5.7041015625 28 6 28 c 4
 6.2958984375 28 6.744140625 27.87890625 7 27.73046875 c 4
 7.255859375 27.87890625 7.7041015625 28 8 28 c 4
 8.2958984375 28 8.744140625 27.87890625 9 27.73046875 c 4
 9.255859375 27.87890625 9.7041015625 28 10 28 c 4
 10.2958984375 28 10.744140625 27.87890625 11 27.73046875 c 4
 11.255859375 27.87890625 11.7041015625 28 12 28 c 4
 13.103515625 28 14 27.103515625 14 26 c 4
 14 24.896484375 13.103515625 24 12 24 c 4
 11.7041015625 24 11.255859375 24.12109375 11 24.26953125 c 4
 10.744140625 24.12109375 10.2958984375 24 10 24 c 4
 9.7041015625 24 9.255859375 24.12109375 9 24.26953125 c 4
 8.744140625 24.12109375 8.2958984375 24 8 24 c 4
 7.7041015625 24 7.255859375 24.12109375 7 24.26953125 c 4
 6.744140625 24.12109375 6.2958984375 24 6 24 c 4
 5.7041015625 24 5.255859375 24.12109375 5 24.26953125 c 4
 4.744140625 24.12109375 4.2958984375 24 4 24 c 4
 2.896484375 24 2 24.896484375 2 26 c 4
 2 27.103515625 2.896484375 28 4 28 c 4
2 24 m 4
 3.103515625 24 4 23.103515625 4 22 c 4
 4 20.896484375 3.103515625 20 2 20 c 4
 0.896484375 20 0 20.896484375 0 22 c 4
 0 23.103515625 0.896484375 24 2 24 c 4
14 24 m 4
 15.103515625 24 16 23.103515625 16 22 c 4
 16 20.896484375 15.103515625 20 14 20 c 4
 12.896484375 20 12 20.896484375 12 22 c 4
 12 23.103515625 12.896484375 24 14 24 c 4
14 20 m 4
 15.103515625 20 16 19.103515625 16 18 c 4
 16 16.896484375 15.103515625 16 14 16 c 4
 12.896484375 16 12 16.896484375 12 18 c 4
 12 19.103515625 12.896484375 20 14 20 c 4
6 16 m 4
 6.2958984375 16 6.744140625 15.87890625 7 15.73046875 c 4
 7.255859375 15.87890625 7.7041015625 16 8 16 c 4
 8.2958984375 16 8.744140625 15.87890625 9 15.73046875 c 4
 9.255859375 15.87890625 9.7041015625 16 10 16 c 4
 10.2958984375 16 10.744140625 15.87890625 11 15.73046875 c 4
 11.255859375 15.87890625 11.7041015625 16 12 16 c 4
 13.103515625 16 14 15.103515625 14 14 c 4
 14 12.896484375 13.103515625 12 12 12 c 4
 11.7041015625 12 11.255859375 12.12109375 11 12.26953125 c 4
 10.744140625 12.12109375 10.2958984375 12 10 12 c 4
 9.7041015625 12 9.255859375 12.12109375 9 12.26953125 c 4
 8.744140625 12.12109375 8.2958984375 12 8 12 c 4
 7.7041015625 12 7.255859375 12.12109375 7 12.26953125 c 4
 6.744140625 12.12109375 6.2958984375 12 6 12 c 4
 4.896484375 12 4 12.896484375 4 14 c 4
 4 15.103515625 4.896484375 16 6 16 c 4
4 12 m 4
 5.103515625 12 6 11.103515625 6 10 c 4
 6 8.896484375 5.103515625 8 4 8 c 4
 2.896484375 8 2 8.896484375 2 10 c 4
 2 11.103515625 2.896484375 12 4 12 c 4
2 8 m 4
 3.103515625 8 4 7.103515625 4 6 c 4
 4 4.896484375 3.103515625 4 2 4 c 4
 0.896484375 4 0 4.896484375 0 6 c 4
 0 7.103515625 0.896484375 8 2 8 c 4
2 4 m 4
 2.2958984375 4 2.744140625 3.87890625 3 3.73046875 c 4
 3.255859375 3.87890625 3.7041015625 4 4 4 c 4
 4.2958984375 4 4.744140625 3.87890625 5 3.73046875 c 4
 5.255859375 3.87890625 5.7041015625 4 6 4 c 4
 6.2958984375 4 6.744140625 3.87890625 7 3.73046875 c 4
 7.255859375 3.87890625 7.7041015625 4 8 4 c 4
 8.2958984375 4 8.744140625 3.87890625 9 3.73046875 c 4
 9.255859375 3.87890625 9.7041015625 4 10 4 c 4
 10.2958984375 4 10.744140625 3.87890625 11 3.73046875 c 4
 11.255859375 3.87890625 11.7041015625 4 12 4 c 4
 12.2958984375 4 12.744140625 3.87890625 13 3.73046875 c 4
 13.255859375 3.87890625 13.7041015625 4 14 4 c 4
 15.103515625 4 16 3.103515625 16 2 c 4
 16 0.896484375 15.103515625 0 14 0 c 4
 13.7041015625 0 13.255859375 0.12109375 13 0.26953125 c 4
 12.744140625 0.12109375 12.2958984375 0 12 0 c 4
 11.7041015625 0 11.255859375 0.12109375 11 0.26953125 c 4
 10.744140625 0.12109375 10.2958984375 0 10 0 c 4
 9.7041015625 0 9.255859375 0.12109375 9 0.26953125 c 4
 8.744140625 0.12109375 8.2958984375 0 8 0 c 4
 7.7041015625 0 7.255859375 0.12109375 7 0.26953125 c 4
 6.744140625 0.12109375 6.2958984375 0 6 0 c 4
 5.7041015625 0 5.255859375 0.12109375 5 0.26953125 c 4
 4.744140625 0.12109375 4.2958984375 0 4 0 c 4
 3.7041015625 0 3.255859375 0.12109375 3 0.26953125 c 4
 2.744140625 0.12109375 2.2958984375 0 2 0 c 4
 0.896484375 0 0 0.896484375 0 2 c 4
 0 3.103515625 0.896484375 4 2 4 c 4
EndSplineSet
EndUndoOperation
EndUndoes
Redoes
EndRedoes
EndUndoRedoHistory
Fore
SplineSet
60 280 m 4
 63 280 67 278 70 277 c 4
 73 278 77 280 80 280 c 4
 83 280 87 278 90 277 c 4
 93 278 97 280 100 280 c 4
 103 280 107 278 110 277 c 4
 113 278 117 280 120 280 c 4
 123 280 127 278 130 277 c 4
 133 278 137 280 140 280 c 4
 151 280 160 271 160 260 c 4
 160 249 151 240 140 240 c 4
 137 240 133 242 130 243 c 4
 127 242 123 240 120 240 c 4
 117 240 113 242 110 243 c 4
 107 242 103 240 100 240 c 4
 97 240 93 242 90 243 c 4
 87 242 83 240 80 240 c 4
 77 240 73 242 70 243 c 4
 67 242 63 240 60 240 c 4
 49 240 40 249 40 260 c 4
 40 271 49 280 60 280 c 4
40 240 m 4
 51 240 60 231 60 220 c 4
 60 209 51 200 40 200 c 4
 29 200 20 209 20 220 c 4
 20 231 29 240 40 240 c 4
160 240 m 4
 171 240 180 231 180 220 c 4
 180 209 171 200 160 200 c 4
 149 200 140 209 140 220 c 4
 140 231 149 240 160 240 c 4
160 200 m 4
 171 200 180 191 180 180 c 4
 180 169 171 160 160 160 c 4
 149 160 140 169 140 180 c 4
 140 191 149 200 160 200 c 4
80 160 m 4
 83 160 87 158 90 157 c 4
 93 158 97 160 100 160 c 4
 103 160 107 158 110 157 c 4
 113 158 117 160 120 160 c 4
 123 160 127 158 130 157 c 4
 133 158 137 160 140 160 c 4
 151 160 160 151 160 140 c 4
 160 129 151 120 140 120 c 4
 137 120 133 122 130 123 c 4
 127 122 123 120 120 120 c 4
 117 120 113 122 110 123 c 4
 107 122 103 120 100 120 c 4
 97 120 93 122 90 123 c 4
 87 122 83 120 80 120 c 4
 69 120 60 129 60 140 c 4
 60 151 69 160 80 160 c 4
60 120 m 4
 71 120 80 111 80 100 c 4
 80 89 71 80 60 80 c 4
 49 80 40 89 40 100 c 4
 40 111 49 120 60 120 c 4
40 80 m 4
 51 80 60 71 60 60 c 4
 60 49 51 40 40 40 c 4
 29 40 20 49 20 60 c 4
 20 71 29 80 40 80 c 4
40 40 m 4
 43 40 47 38 50 37 c 4
 53 38 57 40 60 40 c 4
 63 40 67 38 70 37 c 4
 73 38 77 40 80 40 c 4
 83 40 87 38 90 37 c 4
 93 38 97 40 100 40 c 4
 103 40 107 38 110 37 c 4
 113 38 117 40 120 40 c 4
 123 40 127 38 130 37 c 4
 133 38 137 40 140 40 c 4
 143 40 147 38 150 37 c 4
 153 38 157 40 160 40 c 4
 171 40 180 31 180 20 c 4
 180 9 171 0 160 0 c 4
 157 0 153 2 150 3 c 4
 147 2 143 0 140 0 c 4
 137 0 133 2 130 3 c 4
 127 2 123 0 120 0 c 4
 117 0 113 2 110 3 c 4
 107 2 103 0 100 0 c 4
 97 0 93 2 90 3 c 4
 87 2 83 0 80 0 c 4
 77 0 73 2 70 3 c 4
 67 2 63 0 60 0 c 4
 57 0 53 2 50 3 c 4
 47 2 43 0 40 0 c 4
 29 0 20 9 20 20 c 4
 20 31 29 40 40 40 c 4
EndSplineSet
EndChar

StartChar: three
Encoding: 51 51 53
Width: 200
VWidth: 0
Flags: HW
LayerCount: 2
UndoRedoHistory
Layer: 0
Undoes
UndoOperation
Index: 0
Type: 1
WasModified: 0
WasOrder2: 0
Layer: 2
Width: 20
VWidth: 0
LBearingChange: 0
UnicodeEnc: 0
InstructionsLength: 0
EndUndoOperation
EndUndoes
Redoes
EndRedoes
EndUndoRedoHistory
UndoRedoHistory
Layer: 1
Undoes
UndoOperation
Index: 0
Type: 3
WasModified: 0
WasOrder2: 0
Layer: 2
EndUndoOperation
UndoOperation
Index: 1
Type: 1
WasModified: 1
WasOrder2: 0
Layer: 2
Width: 20
VWidth: 0
LBearingChange: 0
UnicodeEnc: 0
InstructionsLength: 0
SplineSet
5 28 m 4
 5.2958984375 28 5.744140625 27.87890625 6 27.73046875 c 4
 6.255859375 27.87890625 6.7041015625 28 7 28 c 4
 7.2958984375 28 7.744140625 27.87890625 8 27.73046875 c 4
 8.255859375 27.87890625 8.7041015625 28 9 28 c 4
 9.2958984375 28 9.744140625 27.87890625 10 27.73046875 c 4
 10.255859375 27.87890625 10.7041015625 28 11 28 c 4
 11.2958984375 28 11.744140625 27.87890625 12 27.73046875 c 4
 12.255859375 27.87890625 12.7041015625 28 13 28 c 4
 14.103515625 28 15 27.103515625 15 26 c 4
 15 24.896484375 14.103515625 24 13 24 c 4
 12.7041015625 24 12.255859375 24.12109375 12 24.26953125 c 4
 11.744140625 24.12109375 11.2958984375 24 11 24 c 4
 10.7041015625 24 10.255859375 24.12109375 10 24.26953125 c 4
 9.744140625 24.12109375 9.2958984375 24 9 24 c 4
 8.7041015625 24 8.255859375 24.12109375 8 24.26953125 c 4
 7.744140625 24.12109375 7.2958984375 24 7 24 c 4
 6.7041015625 24 6.255859375 24.12109375 6 24.26953125 c 4
 5.744140625 24.12109375 5.2958984375 24 5 24 c 4
 3.896484375 24 3 24.896484375 3 26 c 4
 3 27.103515625 3.896484375 28 5 28 c 4
3 24 m 4
 4.103515625 24 5 23.103515625 5 22 c 4
 5 20.896484375 4.103515625 20 3 20 c 4
 1.896484375 20 1 20.896484375 1 22 c 4
 1 23.103515625 1.896484375 24 3 24 c 4
15 24 m 4
 16.103515625 24 17 23.103515625 17 22 c 4
 17 20.896484375 16.103515625 20 15 20 c 4
 13.896484375 20 13 20.896484375 13 22 c 4
 13 23.103515625 13.896484375 24 15 24 c 4
15 20 m 4
 16.103515625 20 17 19.103515625 17 18 c 4
 17 16.896484375 16.103515625 16 15 16 c 4
 13.896484375 16 13 16.896484375 13 18 c 4
 13 19.103515625 13.896484375 20 15 20 c 4
7 16 m 4
 7.2958984375 16 7.744140625 15.87890625 8 15.73046875 c 4
 8.255859375 15.87890625 8.7041015625 16 9 16 c 4
 9.2958984375 16 9.744140625 15.87890625 10 15.73046875 c 4
 10.255859375 15.87890625 10.7041015625 16 11 16 c 4
 11.2958984375 16 11.744140625 15.87890625 12 15.73046875 c 4
 12.255859375 15.87890625 12.7041015625 16 13 16 c 4
 14.103515625 16 15 15.103515625 15 14 c 4
 15 12.896484375 14.103515625 12 13 12 c 4
 12.7041015625 12 12.255859375 12.12109375 12 12.26953125 c 4
 11.744140625 12.12109375 11.2958984375 12 11 12 c 4
 10.7041015625 12 10.255859375 12.12109375 10 12.26953125 c 4
 9.744140625 12.12109375 9.2958984375 12 9 12 c 4
 8.7041015625 12 8.255859375 12.12109375 8 12.26953125 c 4
 7.744140625 12.12109375 7.2958984375 12 7 12 c 4
 5.896484375 12 5 12.896484375 5 14 c 4
 5 15.103515625 5.896484375 16 7 16 c 4
15 12 m 4
 16.103515625 12 17 11.103515625 17 10 c 4
 17 8.896484375 16.103515625 8 15 8 c 4
 13.896484375 8 13 8.896484375 13 10 c 4
 13 11.103515625 13.896484375 12 15 12 c 4
15 8 m 4
 16.103515625 8 17 7.103515625 17 6 c 4
 17 4.896484375 16.103515625 4 15 4 c 4
 13.896484375 4 13 4.896484375 13 6 c 4
 13 7.103515625 13.896484375 8 15 8 c 4
3 8 m 4
 4.103515625 8 5 7.103515625 5 6 c 4
 5 4.896484375 4.103515625 4 3 4 c 4
 1.896484375 4 1 4.896484375 1 6 c 4
 1 7.103515625 1.896484375 8 3 8 c 4
5 4 m 4
 5.2958984375 4 5.744140625 3.87890625 6 3.73046875 c 4
 6.255859375 3.87890625 6.7041015625 4 7 4 c 4
 7.2958984375 4 7.744140625 3.87890625 8 3.73046875 c 4
 8.255859375 3.87890625 8.7041015625 4 9 4 c 4
 9.2958984375 4 9.744140625 3.87890625 10 3.73046875 c 4
 10.255859375 3.87890625 10.7041015625 4 11 4 c 4
 11.2958984375 4 11.744140625 3.87890625 12 3.73046875 c 4
 12.255859375 3.87890625 12.7041015625 4 13 4 c 4
 14.103515625 4 15 3.103515625 15 2 c 4
 15 0.896484375 14.103515625 0 13 0 c 4
 12.7041015625 0 12.255859375 0.12109375 12 0.26953125 c 4
 11.744140625 0.12109375 11.2958984375 0 11 0 c 4
 10.7041015625 0 10.255859375 0.12109375 10 0.26953125 c 4
 9.744140625 0.12109375 9.2958984375 0 9 0 c 4
 8.7041015625 0 8.255859375 0.12109375 8 0.26953125 c 4
 7.744140625 0.12109375 7.2958984375 0 7 0 c 4
 6.7041015625 0 6.255859375 0.12109375 6 0.26953125 c 4
 5.744140625 0.12109375 5.2958984375 0 5 0 c 4
 3.896484375 0 3 0.896484375 3 2 c 4
 3 3.103515625 3.896484375 4 5 4 c 4
EndSplineSet
EndUndoOperation
EndUndoes
Redoes
EndRedoes
EndUndoRedoHistory
Fore
SplineSet
60 280 m 4
 63 280 67 278 70 277 c 4
 73 278 77 280 80 280 c 4
 83 280 87 278 90 277 c 4
 93 278 97 280 100 280 c 4
 103 280 107 278 110 277 c 4
 113 278 117 280 120 280 c 4
 123 280 127 278 130 277 c 4
 133 278 137 280 140 280 c 4
 151 280 160 271 160 260 c 4
 160 249 151 240 140 240 c 4
 137 240 133 242 130 243 c 4
 127 242 123 240 120 240 c 4
 117 240 113 242 110 243 c 4
 107 242 103 240 100 240 c 4
 97 240 93 242 90 243 c 4
 87 242 83 240 80 240 c 4
 77 240 73 242 70 243 c 4
 67 242 63 240 60 240 c 4
 49 240 40 249 40 260 c 4
 40 271 49 280 60 280 c 4
40 240 m 4
 51 240 60 231 60 220 c 4
 60 209 51 200 40 200 c 4
 29 200 20 209 20 220 c 4
 20 231 29 240 40 240 c 4
160 240 m 4
 171 240 180 231 180 220 c 4
 180 209 171 200 160 200 c 4
 149 200 140 209 140 220 c 4
 140 231 149 240 160 240 c 4
160 200 m 4
 171 200 180 191 180 180 c 4
 180 169 171 160 160 160 c 4
 149 160 140 169 140 180 c 4
 140 191 149 200 160 200 c 4
80 160 m 4
 83 160 87 158 90 157 c 4
 93 158 97 160 100 160 c 4
 103 160 107 158 110 157 c 4
 113 158 117 160 120 160 c 4
 123 160 127 158 130 157 c 4
 133 158 137 160 140 160 c 4
 151 160 160 151 160 140 c 4
 160 129 151 120 140 120 c 4
 137 120 133 122 130 123 c 4
 127 122 123 120 120 120 c 4
 117 120 113 122 110 123 c 4
 107 122 103 120 100 120 c 4
 97 120 93 122 90 123 c 4
 87 122 83 120 80 120 c 4
 69 120 60 129 60 140 c 4
 60 151 69 160 80 160 c 4
160 120 m 4
 171 120 180 111 180 100 c 4
 180 89 171 80 160 80 c 4
 149 80 140 89 140 100 c 4
 140 111 149 120 160 120 c 4
160 80 m 4
 171 80 180 71 180 60 c 4
 180 49 171 40 160 40 c 4
 149 40 140 49 140 60 c 4
 140 71 149 80 160 80 c 4
40 80 m 4
 51 80 60 71 60 60 c 4
 60 49 51 40 40 40 c 4
 29 40 20 49 20 60 c 4
 20 71 29 80 40 80 c 4
60 40 m 4
 63 40 67 38 70 37 c 4
 73 38 77 40 80 40 c 4
 83 40 87 38 90 37 c 4
 93 38 97 40 100 40 c 4
 103 40 107 38 110 37 c 4
 113 38 117 40 120 40 c 4
 123 40 127 38 130 37 c 4
 133 38 137 40 140 40 c 4
 151 40 160 31 160 20 c 4
 160 9 151 0 140 0 c 4
 137 0 133 2 130 3 c 4
 127 2 123 0 120 0 c 4
 117 0 113 2 110 3 c 4
 107 2 103 0 100 0 c 4
 97 0 93 2 90 3 c 4
 87 2 83 0 80 0 c 4
 77 0 73 2 70 3 c 4
 67 2 63 0 60 0 c 4
 49 0 40 9 40 20 c 4
 40 31 49 40 60 40 c 4
EndSplineSet
EndChar

StartChar: four
Encoding: 52 52 54
Width: 200
VWidth: 0
Flags: HW
LayerCount: 2
UndoRedoHistory
Layer: 0
Undoes
UndoOperation
Index: 0
Type: 1
WasModified: 0
WasOrder2: 0
Layer: 2
Width: 20
VWidth: 0
LBearingChange: 0
UnicodeEnc: 0
InstructionsLength: 0
EndUndoOperation
EndUndoes
Redoes
EndRedoes
EndUndoRedoHistory
UndoRedoHistory
Layer: 1
Undoes
UndoOperation
Index: 0
Type: 3
WasModified: 0
WasOrder2: 0
Layer: 2
EndUndoOperation
UndoOperation
Index: 1
Type: 1
WasModified: 1
WasOrder2: 0
Layer: 2
Width: 20
VWidth: 0
LBearingChange: 0
UnicodeEnc: 0
InstructionsLength: 0
SplineSet
11 28 m 4
 11.2958984375 28 11.744140625 27.87890625 12 27.73046875 c 4
 12.255859375 27.87890625 12.7041015625 28 13 28 c 4
 13.2958984375 28 13.744140625 27.87890625 14 27.73046875 c 4
 14.255859375 27.87890625 14.7041015625 28 15 28 c 4
 16.103515625 28 17 27.103515625 17 26 c 4
 17 24.896484375 16.103515625 24 15 24 c 4
 14.7041015625 24 14.255859375 24.12109375 14 24.26953125 c 4
 13.744140625 24.12109375 13.2958984375 24 13 24 c 4
 12.7041015625 24 12.255859375 24.12109375 12 24.26953125 c 4
 11.744140625 24.12109375 11.2958984375 24 11 24 c 4
 9.896484375 24 9 24.896484375 9 26 c 4
 9 27.103515625 9.896484375 28 11 28 c 4
15 24 m 4
 16.103515625 24 17 23.103515625 17 22 c 4
 17 20.896484375 16.103515625 20 15 20 c 4
 13.896484375 20 13 20.896484375 13 22 c 4
 13 23.103515625 13.896484375 24 15 24 c 4
15 20 m 4
 16.103515625 20 17 19.103515625 17 18 c 4
 17 16.896484375 16.103515625 16 15 16 c 4
 13.896484375 16 13 16.896484375 13 18 c 4
 13 19.103515625 13.896484375 20 15 20 c 4
15 16 m 4
 16.103515625 16 17 15.103515625 17 14 c 4
 17 12.896484375 16.103515625 12 15 12 c 4
 13.896484375 12 13 12.896484375 13 14 c 4
 13 15.103515625 13.896484375 16 15 16 c 4
15 12 m 4
 16.103515625 12 17 11.103515625 17 10 c 4
 17 8.896484375 16.103515625 8 15 8 c 4
 14.7041015625 8 14.255859375 8.12109375 14 8.26953125 c 4
 13.744140625 8.12109375 13.2958984375 8 13 8 c 4
 12.7041015625 8 12.255859375 8.12109375 12 8.26953125 c 4
 11.744140625 8.12109375 11.2958984375 8 11 8 c 4
 10.7041015625 8 10.255859375 8.12109375 10 8.26953125 c 4
 9.744140625 8.12109375 9.2958984375 8 9 8 c 4
 8.7041015625 8 8.255859375 8.12109375 8 8.26953125 c 4
 7.744140625 8.12109375 7.2958984375 8 7 8 c 4
 6.7041015625 8 6.255859375 8.12109375 6 8.26953125 c 4
 5.744140625 8.12109375 5.2958984375 8 5 8 c 4
 4.7041015625 8 4.255859375 8.12109375 4 8.26953125 c 4
 3.744140625 8.12109375 3.2958984375 8 3 8 c 4
 1.896484375 8 1 8.896484375 1 10 c 4
 1 11.103515625 1.896484375 12 3 12 c 4
 3.2958984375 12 3.744140625 11.87890625 4 11.73046875 c 4
 4.255859375 11.87890625 4.7041015625 12 5 12 c 4
 5.2958984375 12 5.744140625 11.87890625 6 11.73046875 c 4
 6.255859375 11.87890625 6.7041015625 12 7 12 c 4
 7.2958984375 12 7.744140625 11.87890625 8 11.73046875 c 4
 8.255859375 11.87890625 8.7041015625 12 9 12 c 4
 9.2958984375 12 9.744140625 11.87890625 10 11.73046875 c 4
 10.255859375 11.87890625 10.7041015625 12 11 12 c 4
 11.2958984375 12 11.744140625 11.87890625 12 11.73046875 c 4
 12.255859375 11.87890625 12.7041015625 12 13 12 c 4
 13.2958984375 12 13.744140625 11.87890625 14 11.73046875 c 4
 14.255859375 11.87890625 14.7041015625 12 15 12 c 4
15 8 m 4
 16.103515625 8 17 7.103515625 17 6 c 4
 17 4.896484375 16.103515625 4 15 4 c 4
 13.896484375 4 13 4.896484375 13 6 c 4
 13 7.103515625 13.896484375 8 15 8 c 4
15 4 m 4
 16.103515625 4 17 3.103515625 17 2 c 4
 17 0.896484375 16.103515625 0 15 0 c 4
 13.896484375 0 13 0.896484375 13 2 c 4
 13 3.103515625 13.896484375 4 15 4 c 4
3 12 m 4
 1.896484375 12 1 12.896484375 1 14 c 4
 1 15.103515625 1.896484375 16 3 16 c 4
 4.103515625 16 5 15.103515625 5 14 c 4
 5 12.896484375 4.103515625 12 3 12 c 4
7 24 m 4
 7.2958984375 24 7.744140625 23.87890625 8 23.73046875 c 4
 8.255859375 23.87890625 8.7041015625 24 9 24 c 4
 10.103515625 24 11 23.103515625 11 22 c 4
 11 20.896484375 10.103515625 20 9 20 c 4
 8.7041015625 20 8.255859375 20.12109375 8 20.26953125 c 4
 7.744140625 20.12109375 7.2958984375 20 7 20 c 4
 5.896484375 20 5 20.896484375 5 22 c 4
 5 23.103515625 5.896484375 24 7 24 c 4
5 20 m 4
 6.103515625 20 7 19.103515625 7 18 c 4
 7 16.896484375 6.103515625 16 5 16 c 4
 3.896484375 16 3 16.896484375 3 18 c 4
 3 19.103515625 3.896484375 20 5 20 c 4
EndSplineSet
EndUndoOperation
EndUndoes
Redoes
EndRedoes
EndUndoRedoHistory
Fore
SplineSet
120 280 m 4
 123 280 127 278 130 277 c 4
 133 278 137 280 140 280 c 4
 143 280 147 278 150 277 c 4
 153 278 157 280 160 280 c 4
 171 280 180 271 180 260 c 4
 180 249 171 240 160 240 c 4
 157 240 153 242 150 243 c 4
 147 242 143 240 140 240 c 4
 137 240 133 242 130 243 c 4
 127 242 123 240 120 240 c 4
 109 240 100 249 100 260 c 4
 100 271 109 280 120 280 c 4
160 240 m 4
 171 240 180 231 180 220 c 4
 180 209 171 200 160 200 c 4
 149 200 140 209 140 220 c 4
 140 231 149 240 160 240 c 4
160 200 m 4
 171 200 180 191 180 180 c 4
 180 169 171 160 160 160 c 4
 149 160 140 169 140 180 c 4
 140 191 149 200 160 200 c 4
160 160 m 4
 171 160 180 151 180 140 c 4
 180 129 171 120 160 120 c 4
 149 120 140 129 140 140 c 4
 140 151 149 160 160 160 c 4
160 120 m 4
 171 120 180 111 180 100 c 4
 180 89 171 80 160 80 c 4
 157 80 153 82 150 83 c 4
 147 82 143 80 140 80 c 4
 137 80 133 82 130 83 c 4
 127 82 123 80 120 80 c 4
 117 80 113 82 110 83 c 4
 107 82 103 80 100 80 c 4
 97 80 93 82 90 83 c 4
 87 82 83 80 80 80 c 4
 77 80 73 82 70 83 c 4
 67 82 63 80 60 80 c 4
 57 80 53 82 50 83 c 4
 47 82 43 80 40 80 c 4
 29 80 20 89 20 100 c 4
 20 111 29 120 40 120 c 4
 43 120 47 118 50 117 c 4
 53 118 57 120 60 120 c 4
 63 120 67 118 70 117 c 4
 73 118 77 120 80 120 c 4
 83 120 87 118 90 117 c 4
 93 118 97 120 100 120 c 4
 103 120 107 118 110 117 c 4
 113 118 117 120 120 120 c 4
 123 120 127 118 130 117 c 4
 133 118 137 120 140 120 c 4
 143 120 147 118 150 117 c 4
 153 118 157 120 160 120 c 4
160 80 m 4
 171 80 180 71 180 60 c 4
 180 49 171 40 160 40 c 4
 149 40 140 49 140 60 c 4
 140 71 149 80 160 80 c 4
160 40 m 4
 171 40 180 31 180 20 c 4
 180 9 171 0 160 0 c 4
 149 0 140 9 140 20 c 4
 140 31 149 40 160 40 c 4
40 120 m 4
 29 120 20 129 20 140 c 4
 20 151 29 160 40 160 c 4
 51 160 60 151 60 140 c 4
 60 129 51 120 40 120 c 4
80 240 m 4
 83 240 87 238 90 237 c 4
 93 238 97 240 100 240 c 4
 111 240 120 231 120 220 c 4
 120 209 111 200 100 200 c 4
 97 200 93 202 90 203 c 4
 87 202 83 200 80 200 c 4
 69 200 60 209 60 220 c 4
 60 231 69 240 80 240 c 4
60 200 m 4
 71 200 80 191 80 180 c 4
 80 169 71 160 60 160 c 4
 49 160 40 169 40 180 c 4
 40 191 49 200 60 200 c 4
EndSplineSet
EndChar

StartChar: five
Encoding: 53 53 55
Width: 200
VWidth: 0
Flags: HW
LayerCount: 2
UndoRedoHistory
Layer: 0
Undoes
UndoOperation
Index: 0
Type: 1
WasModified: 0
WasOrder2: 0
Layer: 2
Width: 20
VWidth: 0
LBearingChange: 0
UnicodeEnc: 0
InstructionsLength: 0
EndUndoOperation
EndUndoes
Redoes
EndRedoes
EndUndoRedoHistory
UndoRedoHistory
Layer: 1
Undoes
UndoOperation
Index: 0
Type: 3
WasModified: 0
WasOrder2: 0
Layer: 2
EndUndoOperation
UndoOperation
Index: 1
Type: 1
WasModified: 1
WasOrder2: 0
Layer: 2
Width: 20
VWidth: 0
LBearingChange: 0
UnicodeEnc: 0
InstructionsLength: 0
SplineSet
3 28 m 4
 3.2958984375 28 3.744140625 27.87890625 4 27.73046875 c 4
 4.255859375 27.87890625 4.7041015625 28 5 28 c 4
 5.2958984375 28 5.744140625 27.87890625 6 27.73046875 c 4
 6.255859375 27.87890625 6.7041015625 28 7 28 c 4
 7.2958984375 28 7.744140625 27.87890625 8 27.73046875 c 4
 8.255859375 27.87890625 8.7041015625 28 9 28 c 4
 9.2958984375 28 9.744140625 27.87890625 10 27.73046875 c 4
 10.255859375 27.87890625 10.7041015625 28 11 28 c 4
 11.2958984375 28 11.744140625 27.87890625 12 27.73046875 c 4
 12.255859375 27.87890625 12.7041015625 28 13 28 c 4
 13.2958984375 28 13.744140625 27.87890625 14 27.73046875 c 4
 14.255859375 27.87890625 14.7041015625 28 15 28 c 4
 16.103515625 28 17 27.103515625 17 26 c 4
 17 24.896484375 16.103515625 24 15 24 c 4
 14.7041015625 24 14.255859375 24.12109375 14 24.26953125 c 4
 13.744140625 24.12109375 13.2958984375 24 13 24 c 4
 12.7041015625 24 12.255859375 24.12109375 12 24.26953125 c 4
 11.744140625 24.12109375 11.2958984375 24 11 24 c 4
 10.7041015625 24 10.255859375 24.12109375 10 24.26953125 c 4
 9.744140625 24.12109375 9.2958984375 24 9 24 c 4
 8.7041015625 24 8.255859375 24.12109375 8 24.26953125 c 4
 7.744140625 24.12109375 7.2958984375 24 7 24 c 4
 6.7041015625 24 6.255859375 24.12109375 6 24.26953125 c 4
 5.744140625 24.12109375 5.2958984375 24 5 24 c 4
 4.7041015625 24 4.255859375 24.12109375 4 24.26953125 c 4
 3.744140625 24.12109375 3.2958984375 24 3 24 c 4
 1.896484375 24 1 24.896484375 1 26 c 4
 1 27.103515625 1.896484375 28 3 28 c 4
3 24 m 4
 4.103515625 24 5 23.103515625 5 22 c 4
 5 20.896484375 4.103515625 20 3 20 c 4
 1.896484375 20 1 20.896484375 1 22 c 4
 1 23.103515625 1.896484375 24 3 24 c 4
3 20 m 4
 4.103515625 20 5 19.103515625 5 18 c 4
 5 16.896484375 4.103515625 16 3 16 c 4
 1.896484375 16 1 16.896484375 1 18 c 4
 1 19.103515625 1.896484375 20 3 20 c 4
3 16 m 4
 3.2958984375 16 3.744140625 15.87890625 4 15.73046875 c 4
 4.255859375 15.87890625 4.7041015625 16 5 16 c 4
 5.2958984375 16 5.744140625 15.87890625 6 15.73046875 c 4
 6.255859375 15.87890625 6.7041015625 16 7 16 c 4
 7.2958984375 16 7.744140625 15.87890625 8 15.73046875 c 4
 8.255859375 15.87890625 8.7041015625 16 9 16 c 4
 9.2958984375 16 9.744140625 15.87890625 10 15.73046875 c 4
 10.255859375 15.87890625 10.7041015625 16 11 16 c 4
 11.2958984375 16 11.744140625 15.87890625 12 15.73046875 c 4
 12.255859375 15.87890625 12.7041015625 16 13 16 c 4
 14.103515625 16 15 15.103515625 15 14 c 4
 15 12.896484375 14.103515625 12 13 12 c 4
 12.7041015625 12 12.255859375 12.12109375 12 12.26953125 c 4
 11.744140625 12.12109375 11.2958984375 12 11 12 c 4
 10.7041015625 12 10.255859375 12.12109375 10 12.26953125 c 4
 9.744140625 12.12109375 9.2958984375 12 9 12 c 4
 8.7041015625 12 8.255859375 12.12109375 8 12.26953125 c 4
 7.744140625 12.12109375 7.2958984375 12 7 12 c 4
 6.7041015625 12 6.255859375 12.12109375 6 12.26953125 c 4
 5.744140625 12.12109375 5.2958984375 12 5 12 c 4
 4.7041015625 12 4.255859375 12.12109375 4 12.26953125 c 4
 3.744140625 12.12109375 3.2958984375 12 3 12 c 4
 1.896484375 12 1 12.896484375 1 14 c 4
 1 15.103515625 1.896484375 16 3 16 c 4
15 12 m 4
 16.103515625 12 17 11.103515625 17 10 c 4
 17 8.896484375 16.103515625 8 15 8 c 4
 13.896484375 8 13 8.896484375 13 10 c 4
 13 11.103515625 13.896484375 12 15 12 c 4
15 8 m 4
 16.103515625 8 17 7.103515625 17 6 c 4
 17 4.896484375 16.103515625 4 15 4 c 4
 13.896484375 4 13 4.896484375 13 6 c 4
 13 7.103515625 13.896484375 8 15 8 c 4
3 8 m 4
 4.103515625 8 5 7.103515625 5 6 c 4
 5 4.896484375 4.103515625 4 3 4 c 4
 1.896484375 4 1 4.896484375 1 6 c 4
 1 7.103515625 1.896484375 8 3 8 c 4
5 4 m 4
 5.2958984375 4 5.744140625 3.87890625 6 3.73046875 c 4
 6.255859375 3.87890625 6.7041015625 4 7 4 c 4
 7.2958984375 4 7.744140625 3.87890625 8 3.73046875 c 4
 8.255859375 3.87890625 8.7041015625 4 9 4 c 4
 9.2958984375 4 9.744140625 3.87890625 10 3.73046875 c 4
 10.255859375 3.87890625 10.7041015625 4 11 4 c 4
 11.2958984375 4 11.744140625 3.87890625 12 3.73046875 c 4
 12.255859375 3.87890625 12.7041015625 4 13 4 c 4
 14.103515625 4 15 3.103515625 15 2 c 4
 15 0.896484375 14.103515625 0 13 0 c 4
 12.7041015625 0 12.255859375 0.12109375 12 0.26953125 c 4
 11.744140625 0.12109375 11.2958984375 0 11 0 c 4
 10.7041015625 0 10.255859375 0.12109375 10 0.26953125 c 4
 9.744140625 0.12109375 9.2958984375 0 9 0 c 4
 8.7041015625 0 8.255859375 0.12109375 8 0.26953125 c 4
 7.744140625 0.12109375 7.2958984375 0 7 0 c 4
 6.7041015625 0 6.255859375 0.12109375 6 0.26953125 c 4
 5.744140625 0.12109375 5.2958984375 0 5 0 c 4
 3.896484375 0 3 0.896484375 3 2 c 4
 3 3.103515625 3.896484375 4 5 4 c 4
EndSplineSet
EndUndoOperation
EndUndoes
Redoes
EndRedoes
EndUndoRedoHistory
Fore
SplineSet
40 280 m 4
 43 280 47 278 50 277 c 4
 53 278 57 280 60 280 c 4
 63 280 67 278 70 277 c 4
 73 278 77 280 80 280 c 4
 83 280 87 278 90 277 c 4
 93 278 97 280 100 280 c 4
 103 280 107 278 110 277 c 4
 113 278 117 280 120 280 c 4
 123 280 127 278 130 277 c 4
 133 278 137 280 140 280 c 4
 143 280 147 278 150 277 c 4
 153 278 157 280 160 280 c 4
 171 280 180 271 180 260 c 4
 180 249 171 240 160 240 c 4
 157 240 153 242 150 243 c 4
 147 242 143 240 140 240 c 4
 137 240 133 242 130 243 c 4
 127 242 123 240 120 240 c 4
 117 240 113 242 110 243 c 4
 107 242 103 240 100 240 c 4
 97 240 93 242 90 243 c 4
 87 242 83 240 80 240 c 4
 77 240 73 242 70 243 c 4
 67 242 63 240 60 240 c 4
 57 240 53 242 50 243 c 4
 47 242 43 240 40 240 c 4
 29 240 20 249 20 260 c 4
 20 271 29 280 40 280 c 4
40 240 m 4
 51 240 60 231 60 220 c 4
 60 209 51 200 40 200 c 4
 29 200 20 209 20 220 c 4
 20 231 29 240 40 240 c 4
40 200 m 4
 51 200 60 191 60 180 c 4
 60 169 51 160 40 160 c 4
 29 160 20 169 20 180 c 4
 20 191 29 200 40 200 c 4
40 160 m 4
 43 160 47 158 50 157 c 4
 53 158 57 160 60 160 c 4
 63 160 67 158 70 157 c 4
 73 158 77 160 80 160 c 4
 83 160 87 158 90 157 c 4
 93 158 97 160 100 160 c 4
 103 160 107 158 110 157 c 4
 113 158 117 160 120 160 c 4
 123 160 127 158 130 157 c 4
 133 158 137 160 140 160 c 4
 151 160 160 151 160 140 c 4
 160 129 151 120 140 120 c 4
 137 120 133 122 130 123 c 4
 127 122 123 120 120 120 c 4
 117 120 113 122 110 123 c 4
 107 122 103 120 100 120 c 4
 97 120 93 122 90 123 c 4
 87 122 83 120 80 120 c 4
 77 120 73 122 70 123 c 4
 67 122 63 120 60 120 c 4
 57 120 53 122 50 123 c 4
 47 122 43 120 40 120 c 4
 29 120 20 129 20 140 c 4
 20 151 29 160 40 160 c 4
160 120 m 4
 171 120 180 111 180 100 c 4
 180 89 171 80 160 80 c 4
 149 80 140 89 140 100 c 4
 140 111 149 120 160 120 c 4
160 80 m 4
 171 80 180 71 180 60 c 4
 180 49 171 40 160 40 c 4
 149 40 140 49 140 60 c 4
 140 71 149 80 160 80 c 4
40 80 m 4
 51 80 60 71 60 60 c 4
 60 49 51 40 40 40 c 4
 29 40 20 49 20 60 c 4
 20 71 29 80 40 80 c 4
60 40 m 4
 63 40 67 38 70 37 c 4
 73 38 77 40 80 40 c 4
 83 40 87 38 90 37 c 4
 93 38 97 40 100 40 c 4
 103 40 107 38 110 37 c 4
 113 38 117 40 120 40 c 4
 123 40 127 38 130 37 c 4
 133 38 137 40 140 40 c 4
 151 40 160 31 160 20 c 4
 160 9 151 0 140 0 c 4
 137 0 133 2 130 3 c 4
 127 2 123 0 120 0 c 4
 117 0 113 2 110 3 c 4
 107 2 103 0 100 0 c 4
 97 0 93 2 90 3 c 4
 87 2 83 0 80 0 c 4
 77 0 73 2 70 3 c 4
 67 2 63 0 60 0 c 4
 49 0 40 9 40 20 c 4
 40 31 49 40 60 40 c 4
EndSplineSet
EndChar

StartChar: six
Encoding: 54 54 56
Width: 200
VWidth: 0
Flags: HW
LayerCount: 2
UndoRedoHistory
Layer: 0
Undoes
UndoOperation
Index: 0
Type: 1
WasModified: 0
WasOrder2: 0
Layer: 2
Width: 20
VWidth: 0
LBearingChange: 0
UnicodeEnc: 0
InstructionsLength: 0
EndUndoOperation
EndUndoes
Redoes
EndRedoes
EndUndoRedoHistory
UndoRedoHistory
Layer: 1
Undoes
UndoOperation
Index: 0
Type: 3
WasModified: 0
WasOrder2: 0
Layer: 2
EndUndoOperation
UndoOperation
Index: 1
Type: 1
WasModified: 1
WasOrder2: 0
Layer: 2
Width: 20
VWidth: 0
LBearingChange: 0
UnicodeEnc: 0
InstructionsLength: 0
SplineSet
5 28 m 4
 5.2958984375 28 5.744140625 27.87890625 6 27.73046875 c 4
 6.255859375 27.87890625 6.7041015625 28 7 28 c 4
 7.2958984375 28 7.744140625 27.87890625 8 27.73046875 c 4
 8.255859375 27.87890625 8.7041015625 28 9 28 c 4
 9.2958984375 28 9.744140625 27.87890625 10 27.73046875 c 4
 10.255859375 27.87890625 10.7041015625 28 11 28 c 4
 11.2958984375 28 11.744140625 27.87890625 12 27.73046875 c 4
 12.255859375 27.87890625 12.7041015625 28 13 28 c 4
 14.103515625 28 15 27.103515625 15 26 c 4
 15 24.896484375 14.103515625 24 13 24 c 4
 12.7041015625 24 12.255859375 24.12109375 12 24.26953125 c 4
 11.744140625 24.12109375 11.2958984375 24 11 24 c 4
 10.7041015625 24 10.255859375 24.12109375 10 24.26953125 c 4
 9.744140625 24.12109375 9.2958984375 24 9 24 c 4
 8.7041015625 24 8.255859375 24.12109375 8 24.26953125 c 4
 7.744140625 24.12109375 7.2958984375 24 7 24 c 4
 6.7041015625 24 6.255859375 24.12109375 6 24.26953125 c 4
 5.744140625 24.12109375 5.2958984375 24 5 24 c 4
 3.896484375 24 3 24.896484375 3 26 c 4
 3 27.103515625 3.896484375 28 5 28 c 4
3 24 m 4
 4.103515625 24 5 23.103515625 5 22 c 4
 5 20.896484375 4.103515625 20 3 20 c 4
 1.896484375 20 1 20.896484375 1 22 c 4
 1 23.103515625 1.896484375 24 3 24 c 4
3 20 m 4
 4.103515625 20 5 19.103515625 5 18 c 4
 5 16.896484375 4.103515625 16 3 16 c 4
 1.896484375 16 1 16.896484375 1 18 c 4
 1 19.103515625 1.896484375 20 3 20 c 4
3 16 m 4
 3.2958984375 16 3.744140625 15.87890625 4 15.73046875 c 4
 4.255859375 15.87890625 4.7041015625 16 5 16 c 4
 5.2958984375 16 5.744140625 15.87890625 6 15.73046875 c 4
 6.255859375 15.87890625 6.7041015625 16 7 16 c 4
 7.2958984375 16 7.744140625 15.87890625 8 15.73046875 c 4
 8.255859375 15.87890625 8.7041015625 16 9 16 c 4
 9.2958984375 16 9.744140625 15.87890625 10 15.73046875 c 4
 10.255859375 15.87890625 10.7041015625 16 11 16 c 4
 11.2958984375 16 11.744140625 15.87890625 12 15.73046875 c 4
 12.255859375 15.87890625 12.7041015625 16 13 16 c 4
 14.103515625 16 15 15.103515625 15 14 c 4
 15 12.896484375 14.103515625 12 13 12 c 4
 12.7041015625 12 12.255859375 12.12109375 12 12.26953125 c 4
 11.744140625 12.12109375 11.2958984375 12 11 12 c 4
 10.7041015625 12 10.255859375 12.12109375 10 12.26953125 c 4
 9.744140625 12.12109375 9.2958984375 12 9 12 c 4
 8.7041015625 12 8.255859375 12.12109375 8 12.26953125 c 4
 7.744140625 12.12109375 7.2958984375 12 7 12 c 4
 6.7041015625 12 6.255859375 12.12109375 6 12.26953125 c 4
 5.744140625 12.12109375 5.2958984375 12 5 12 c 4
 4.7041015625 12 4.255859375 12.12109375 4 12.26953125 c 4
 3.744140625 12.12109375 3.2958984375 12 3 12 c 4
 1.896484375 12 1 12.896484375 1 14 c 4
 1 15.103515625 1.896484375 16 3 16 c 4
3 12 m 4
 4.103515625 12 5 11.103515625 5 10 c 4
 5 8.896484375 4.103515625 8 3 8 c 4
 1.896484375 8 1 8.896484375 1 10 c 4
 1 11.103515625 1.896484375 12 3 12 c 4
3 8 m 4
 4.103515625 8 5 7.103515625 5 6 c 4
 5 4.896484375 4.103515625 4 3 4 c 4
 1.896484375 4 1 4.896484375 1 6 c 4
 1 7.103515625 1.896484375 8 3 8 c 4
15 12 m 4
 16.103515625 12 17 11.103515625 17 10 c 4
 17 8.896484375 16.103515625 8 15 8 c 4
 13.896484375 8 13 8.896484375 13 10 c 4
 13 11.103515625 13.896484375 12 15 12 c 4
15 8 m 4
 16.103515625 8 17 7.103515625 17 6 c 4
 17 4.896484375 16.103515625 4 15 4 c 4
 13.896484375 4 13 4.896484375 13 6 c 4
 13 7.103515625 13.896484375 8 15 8 c 4
5 4 m 4
 5.2958984375 4 5.744140625 3.87890625 6 3.73046875 c 4
 6.255859375 3.87890625 6.7041015625 4 7 4 c 4
 7.2958984375 4 7.744140625 3.87890625 8 3.73046875 c 4
 8.255859375 3.87890625 8.7041015625 4 9 4 c 4
 9.2958984375 4 9.744140625 3.87890625 10 3.73046875 c 4
 10.255859375 3.87890625 10.7041015625 4 11 4 c 4
 11.2958984375 4 11.744140625 3.87890625 12 3.73046875 c 4
 12.255859375 3.87890625 12.7041015625 4 13 4 c 4
 14.103515625 4 15 3.103515625 15 2 c 4
 15 0.896484375 14.103515625 0 13 0 c 4
 12.7041015625 0 12.255859375 0.12109375 12 0.26953125 c 4
 11.744140625 0.12109375 11.2958984375 0 11 0 c 4
 10.7041015625 0 10.255859375 0.12109375 10 0.26953125 c 4
 9.744140625 0.12109375 9.2958984375 0 9 0 c 4
 8.7041015625 0 8.255859375 0.12109375 8 0.26953125 c 4
 7.744140625 0.12109375 7.2958984375 0 7 0 c 4
 6.7041015625 0 6.255859375 0.12109375 6 0.26953125 c 4
 5.744140625 0.12109375 5.2958984375 0 5 0 c 4
 3.896484375 0 3 0.896484375 3 2 c 4
 3 3.103515625 3.896484375 4 5 4 c 4
EndSplineSet
EndUndoOperation
EndUndoes
Redoes
EndRedoes
EndUndoRedoHistory
Fore
SplineSet
60 280 m 4
 63 280 67 278 70 277 c 4
 73 278 77 280 80 280 c 4
 83 280 87 278 90 277 c 4
 93 278 97 280 100 280 c 4
 103 280 107 278 110 277 c 4
 113 278 117 280 120 280 c 4
 123 280 127 278 130 277 c 4
 133 278 137 280 140 280 c 4
 151 280 160 271 160 260 c 4
 160 249 151 240 140 240 c 4
 137 240 133 242 130 243 c 4
 127 242 123 240 120 240 c 4
 117 240 113 242 110 243 c 4
 107 242 103 240 100 240 c 4
 97 240 93 242 90 243 c 4
 87 242 83 240 80 240 c 4
 77 240 73 242 70 243 c 4
 67 242 63 240 60 240 c 4
 49 240 40 249 40 260 c 4
 40 271 49 280 60 280 c 4
40 240 m 4
 51 240 60 231 60 220 c 4
 60 209 51 200 40 200 c 4
 29 200 20 209 20 220 c 4
 20 231 29 240 40 240 c 4
40 200 m 4
 51 200 60 191 60 180 c 4
 60 169 51 160 40 160 c 4
 29 160 20 169 20 180 c 4
 20 191 29 200 40 200 c 4
40 160 m 4
 43 160 47 158 50 157 c 4
 53 158 57 160 60 160 c 4
 63 160 67 158 70 157 c 4
 73 158 77 160 80 160 c 4
 83 160 87 158 90 157 c 4
 93 158 97 160 100 160 c 4
 103 160 107 158 110 157 c 4
 113 158 117 160 120 160 c 4
 123 160 127 158 130 157 c 4
 133 158 137 160 140 160 c 4
 151 160 160 151 160 140 c 4
 160 129 151 120 140 120 c 4
 137 120 133 122 130 123 c 4
 127 122 123 120 120 120 c 4
 117 120 113 122 110 123 c 4
 107 122 103 120 100 120 c 4
 97 120 93 122 90 123 c 4
 87 122 83 120 80 120 c 4
 77 120 73 122 70 123 c 4
 67 122 63 120 60 120 c 4
 57 120 53 122 50 123 c 4
 47 122 43 120 40 120 c 4
 29 120 20 129 20 140 c 4
 20 151 29 160 40 160 c 4
40 120 m 4
 51 120 60 111 60 100 c 4
 60 89 51 80 40 80 c 4
 29 80 20 89 20 100 c 4
 20 111 29 120 40 120 c 4
40 80 m 4
 51 80 60 71 60 60 c 4
 60 49 51 40 40 40 c 4
 29 40 20 49 20 60 c 4
 20 71 29 80 40 80 c 4
160 120 m 4
 171 120 180 111 180 100 c 4
 180 89 171 80 160 80 c 4
 149 80 140 89 140 100 c 4
 140 111 149 120 160 120 c 4
160 80 m 4
 171 80 180 71 180 60 c 4
 180 49 171 40 160 40 c 4
 149 40 140 49 140 60 c 4
 140 71 149 80 160 80 c 4
60 40 m 4
 63 40 67 38 70 37 c 4
 73 38 77 40 80 40 c 4
 83 40 87 38 90 37 c 4
 93 38 97 40 100 40 c 4
 103 40 107 38 110 37 c 4
 113 38 117 40 120 40 c 4
 123 40 127 38 130 37 c 4
 133 38 137 40 140 40 c 4
 151 40 160 31 160 20 c 4
 160 9 151 0 140 0 c 4
 137 0 133 2 130 3 c 4
 127 2 123 0 120 0 c 4
 117 0 113 2 110 3 c 4
 107 2 103 0 100 0 c 4
 97 0 93 2 90 3 c 4
 87 2 83 0 80 0 c 4
 77 0 73 2 70 3 c 4
 67 2 63 0 60 0 c 4
 49 0 40 9 40 20 c 4
 40 31 49 40 60 40 c 4
EndSplineSet
EndChar

StartChar: seven
Encoding: 55 55 57
Width: 200
VWidth: 0
Flags: HW
LayerCount: 2
UndoRedoHistory
Layer: 0
Undoes
UndoOperation
Index: 0
Type: 1
WasModified: 0
WasOrder2: 0
Layer: 2
Width: 20
VWidth: 0
LBearingChange: 0
UnicodeEnc: 0
InstructionsLength: 0
EndUndoOperation
EndUndoes
Redoes
EndRedoes
EndUndoRedoHistory
UndoRedoHistory
Layer: 1
Undoes
UndoOperation
Index: 0
Type: 3
WasModified: 0
WasOrder2: 0
Layer: 2
EndUndoOperation
UndoOperation
Index: 1
Type: 1
WasModified: 1
WasOrder2: 0
Layer: 2
Width: 20
VWidth: 0
LBearingChange: 0
UnicodeEnc: 0
InstructionsLength: 0
SplineSet
3 28 m 4
 3.2958984375 28 3.744140625 27.87890625 4 27.73046875 c 4
 4.255859375 27.87890625 4.7041015625 28 5 28 c 4
 5.2958984375 28 5.744140625 27.87890625 6 27.73046875 c 4
 6.255859375 27.87890625 6.7041015625 28 7 28 c 4
 7.2958984375 28 7.744140625 27.87890625 8 27.73046875 c 4
 8.255859375 27.87890625 8.7041015625 28 9 28 c 4
 9.2958984375 28 9.744140625 27.87890625 10 27.73046875 c 4
 10.255859375 27.87890625 10.7041015625 28 11 28 c 4
 11.2958984375 28 11.744140625 27.87890625 12 27.73046875 c 4
 12.255859375 27.87890625 12.7041015625 28 13 28 c 4
 13.2958984375 28 13.744140625 27.87890625 14 27.73046875 c 4
 14.255859375 27.87890625 14.7041015625 28 15 28 c 4
 16.103515625 28 17 27.103515625 17 26 c 4
 17 24.896484375 16.103515625 24 15 24 c 4
 14.7041015625 24 14.255859375 24.12109375 14 24.26953125 c 4
 13.744140625 24.12109375 13.2958984375 24 13 24 c 4
 12.7041015625 24 12.255859375 24.12109375 12 24.26953125 c 4
 11.744140625 24.12109375 11.2958984375 24 11 24 c 4
 10.7041015625 24 10.255859375 24.12109375 10 24.26953125 c 4
 9.744140625 24.12109375 9.2958984375 24 9 24 c 4
 8.7041015625 24 8.255859375 24.12109375 8 24.26953125 c 4
 7.744140625 24.12109375 7.2958984375 24 7 24 c 4
 6.7041015625 24 6.255859375 24.12109375 6 24.26953125 c 4
 5.744140625 24.12109375 5.2958984375 24 5 24 c 4
 4.7041015625 24 4.255859375 24.12109375 4 24.26953125 c 4
 3.744140625 24.12109375 3.2958984375 24 3 24 c 4
 1.896484375 24 1 24.896484375 1 26 c 4
 1 27.103515625 1.896484375 28 3 28 c 4
15 24 m 4
 16.103515625 24 17 23.103515625 17 22 c 4
 17 20.896484375 16.103515625 20 15 20 c 4
 13.896484375 20 13 20.896484375 13 22 c 4
 13 23.103515625 13.896484375 24 15 24 c 4
13 20 m 4
 14.103515625 20 15 19.103515625 15 18 c 4
 15 16.896484375 14.103515625 16 13 16 c 4
 11.896484375 16 11 16.896484375 11 18 c 4
 11 19.103515625 11.896484375 20 13 20 c 4
11 16 m 4
 12.103515625 16 13 15.103515625 13 14 c 4
 13 12.896484375 12.103515625 12 11 12 c 4
 9.896484375 12 9 12.896484375 9 14 c 4
 9 15.103515625 9.896484375 16 11 16 c 4
9 12 m 4
 10.103515625 12 11 11.103515625 11 10 c 4
 11 8.896484375 10.103515625 8 9 8 c 4
 7.896484375 8 7 8.896484375 7 10 c 4
 7 11.103515625 7.896484375 12 9 12 c 4
7 8 m 4
 8.103515625 8 9 7.103515625 9 6 c 4
 9 4.896484375 8.103515625 4 7 4 c 4
 5.896484375 4 5 4.896484375 5 6 c 4
 5 7.103515625 5.896484375 8 7 8 c 4
5 4 m 4
 6.103515625 4 7 3.103515625 7 2 c 4
 7 0.896484375 6.103515625 0 5 0 c 4
 3.896484375 0 3 0.896484375 3 2 c 4
 3 3.103515625 3.896484375 4 5 4 c 4
EndSplineSet
EndUndoOperation
EndUndoes
Redoes
EndRedoes
EndUndoRedoHistory
Fore
SplineSet
40 280 m 4
 43 280 47 278 50 277 c 4
 53 278 57 280 60 280 c 4
 63 280 67 278 70 277 c 4
 73 278 77 280 80 280 c 4
 83 280 87 278 90 277 c 4
 93 278 97 280 100 280 c 4
 103 280 107 278 110 277 c 4
 113 278 117 280 120 280 c 4
 123 280 127 278 130 277 c 4
 133 278 137 280 140 280 c 4
 143 280 147 278 150 277 c 4
 153 278 157 280 160 280 c 4
 171 280 180 271 180 260 c 4
 180 249 171 240 160 240 c 4
 157 240 153 242 150 243 c 4
 147 242 143 240 140 240 c 4
 137 240 133 242 130 243 c 4
 127 242 123 240 120 240 c 4
 117 240 113 242 110 243 c 4
 107 242 103 240 100 240 c 4
 97 240 93 242 90 243 c 4
 87 242 83 240 80 240 c 4
 77 240 73 242 70 243 c 4
 67 242 63 240 60 240 c 4
 57 240 53 242 50 243 c 4
 47 242 43 240 40 240 c 4
 29 240 20 249 20 260 c 4
 20 271 29 280 40 280 c 4
160 240 m 4
 171 240 180 231 180 220 c 4
 180 209 171 200 160 200 c 4
 149 200 140 209 140 220 c 4
 140 231 149 240 160 240 c 4
140 200 m 4
 151 200 160 191 160 180 c 4
 160 169 151 160 140 160 c 4
 129 160 120 169 120 180 c 4
 120 191 129 200 140 200 c 4
120 160 m 4
 131 160 140 151 140 140 c 4
 140 129 131 120 120 120 c 4
 109 120 100 129 100 140 c 4
 100 151 109 160 120 160 c 4
100 120 m 4
 111 120 120 111 120 100 c 4
 120 89 111 80 100 80 c 4
 89 80 80 89 80 100 c 4
 80 111 89 120 100 120 c 4
80 80 m 4
 91 80 100 71 100 60 c 4
 100 49 91 40 80 40 c 4
 69 40 60 49 60 60 c 4
 60 71 69 80 80 80 c 4
60 40 m 4
 71 40 80 31 80 20 c 4
 80 9 71 0 60 0 c 4
 49 0 40 9 40 20 c 4
 40 31 49 40 60 40 c 4
EndSplineSet
EndChar

StartChar: eight
Encoding: 56 56 58
Width: 200
VWidth: 0
Flags: HW
LayerCount: 2
UndoRedoHistory
Layer: 0
Undoes
UndoOperation
Index: 0
Type: 1
WasModified: 0
WasOrder2: 0
Layer: 2
Width: 20
VWidth: 0
LBearingChange: 0
UnicodeEnc: 0
InstructionsLength: 0
EndUndoOperation
EndUndoes
Redoes
EndRedoes
EndUndoRedoHistory
UndoRedoHistory
Layer: 1
Undoes
UndoOperation
Index: 0
Type: 3
WasModified: 0
WasOrder2: 0
Layer: 2
EndUndoOperation
UndoOperation
Index: 1
Type: 1
WasModified: 1
WasOrder2: 0
Layer: 2
Width: 20
VWidth: 0
LBearingChange: 0
UnicodeEnc: 0
InstructionsLength: 0
SplineSet
5 28 m 4
 5.2958984375 28 5.744140625 27.87890625 6 27.73046875 c 4
 6.255859375 27.87890625 6.7041015625 28 7 28 c 4
 7.2958984375 28 7.744140625 27.87890625 8 27.73046875 c 4
 8.255859375 27.87890625 8.7041015625 28 9 28 c 4
 9.2958984375 28 9.744140625 27.87890625 10 27.73046875 c 4
 10.255859375 27.87890625 10.7041015625 28 11 28 c 4
 11.2958984375 28 11.744140625 27.87890625 12 27.73046875 c 4
 12.255859375 27.87890625 12.7041015625 28 13 28 c 4
 14.103515625 28 15 27.103515625 15 26 c 4
 15 24.896484375 14.103515625 24 13 24 c 4
 12.7041015625 24 12.255859375 24.12109375 12 24.26953125 c 4
 11.744140625 24.12109375 11.2958984375 24 11 24 c 4
 10.7041015625 24 10.255859375 24.12109375 10 24.26953125 c 4
 9.744140625 24.12109375 9.2958984375 24 9 24 c 4
 8.7041015625 24 8.255859375 24.12109375 8 24.26953125 c 4
 7.744140625 24.12109375 7.2958984375 24 7 24 c 4
 6.7041015625 24 6.255859375 24.12109375 6 24.26953125 c 4
 5.744140625 24.12109375 5.2958984375 24 5 24 c 4
 3.896484375 24 3 24.896484375 3 26 c 4
 3 27.103515625 3.896484375 28 5 28 c 4
3 24 m 4
 4.103515625 24 5 23.103515625 5 22 c 4
 5 20.896484375 4.103515625 20 3 20 c 4
 1.896484375 20 1 20.896484375 1 22 c 4
 1 23.103515625 1.896484375 24 3 24 c 4
3 20 m 4
 4.103515625 20 5 19.103515625 5 18 c 4
 5 16.896484375 4.103515625 16 3 16 c 4
 1.896484375 16 1 16.896484375 1 18 c 4
 1 19.103515625 1.896484375 20 3 20 c 4
15 24 m 4
 16.103515625 24 17 23.103515625 17 22 c 4
 17 20.896484375 16.103515625 20 15 20 c 4
 13.896484375 20 13 20.896484375 13 22 c 4
 13 23.103515625 13.896484375 24 15 24 c 4
15 20 m 4
 16.103515625 20 17 19.103515625 17 18 c 4
 17 16.896484375 16.103515625 16 15 16 c 4
 13.896484375 16 13 16.896484375 13 18 c 4
 13 19.103515625 13.896484375 20 15 20 c 4
5 16 m 4
 5.2958984375 16 5.744140625 15.87890625 6 15.73046875 c 4
 6.255859375 15.87890625 6.7041015625 16 7 16 c 4
 7.2958984375 16 7.744140625 15.87890625 8 15.73046875 c 4
 8.255859375 15.87890625 8.7041015625 16 9 16 c 4
 9.2958984375 16 9.744140625 15.87890625 10 15.73046875 c 4
 10.255859375 15.87890625 10.7041015625 16 11 16 c 4
 11.2958984375 16 11.744140625 15.87890625 12 15.73046875 c 4
 12.255859375 15.87890625 12.7041015625 16 13 16 c 4
 14.103515625 16 15 15.103515625 15 14 c 4
 15 12.896484375 14.103515625 12 13 12 c 4
 12.7041015625 12 12.255859375 12.12109375 12 12.26953125 c 4
 11.744140625 12.12109375 11.2958984375 12 11 12 c 4
 10.7041015625 12 10.255859375 12.12109375 10 12.26953125 c 4
 9.744140625 12.12109375 9.2958984375 12 9 12 c 4
 8.7041015625 12 8.255859375 12.12109375 8 12.26953125 c 4
 7.744140625 12.12109375 7.2958984375 12 7 12 c 4
 6.7041015625 12 6.255859375 12.12109375 6 12.26953125 c 4
 5.744140625 12.12109375 5.2958984375 12 5 12 c 4
 3.896484375 12 3 12.896484375 3 14 c 4
 3 15.103515625 3.896484375 16 5 16 c 4
3 12 m 4
 4.103515625 12 5 11.103515625 5 10 c 4
 5 8.896484375 4.103515625 8 3 8 c 4
 1.896484375 8 1 8.896484375 1 10 c 4
 1 11.103515625 1.896484375 12 3 12 c 4
3 8 m 4
 4.103515625 8 5 7.103515625 5 6 c 4
 5 4.896484375 4.103515625 4 3 4 c 4
 1.896484375 4 1 4.896484375 1 6 c 4
 1 7.103515625 1.896484375 8 3 8 c 4
15 12 m 4
 16.103515625 12 17 11.103515625 17 10 c 4
 17 8.896484375 16.103515625 8 15 8 c 4
 13.896484375 8 13 8.896484375 13 10 c 4
 13 11.103515625 13.896484375 12 15 12 c 4
15 8 m 4
 16.103515625 8 17 7.103515625 17 6 c 4
 17 4.896484375 16.103515625 4 15 4 c 4
 13.896484375 4 13 4.896484375 13 6 c 4
 13 7.103515625 13.896484375 8 15 8 c 4
5 4 m 4
 5.2958984375 4 5.744140625 3.87890625 6 3.73046875 c 4
 6.255859375 3.87890625 6.7041015625 4 7 4 c 4
 7.2958984375 4 7.744140625 3.87890625 8 3.73046875 c 4
 8.255859375 3.87890625 8.7041015625 4 9 4 c 4
 9.2958984375 4 9.744140625 3.87890625 10 3.73046875 c 4
 10.255859375 3.87890625 10.7041015625 4 11 4 c 4
 11.2958984375 4 11.744140625 3.87890625 12 3.73046875 c 4
 12.255859375 3.87890625 12.7041015625 4 13 4 c 4
 14.103515625 4 15 3.103515625 15 2 c 4
 15 0.896484375 14.103515625 0 13 0 c 4
 12.7041015625 0 12.255859375 0.12109375 12 0.26953125 c 4
 11.744140625 0.12109375 11.2958984375 0 11 0 c 4
 10.7041015625 0 10.255859375 0.12109375 10 0.26953125 c 4
 9.744140625 0.12109375 9.2958984375 0 9 0 c 4
 8.7041015625 0 8.255859375 0.12109375 8 0.26953125 c 4
 7.744140625 0.12109375 7.2958984375 0 7 0 c 4
 6.7041015625 0 6.255859375 0.12109375 6 0.26953125 c 4
 5.744140625 0.12109375 5.2958984375 0 5 0 c 4
 3.896484375 0 3 0.896484375 3 2 c 4
 3 3.103515625 3.896484375 4 5 4 c 4
EndSplineSet
EndUndoOperation
EndUndoes
Redoes
EndRedoes
EndUndoRedoHistory
Fore
SplineSet
60 280 m 4
 63 280 67 278 70 277 c 4
 73 278 77 280 80 280 c 4
 83 280 87 278 90 277 c 4
 93 278 97 280 100 280 c 4
 103 280 107 278 110 277 c 4
 113 278 117 280 120 280 c 4
 123 280 127 278 130 277 c 4
 133 278 137 280 140 280 c 4
 151 280 160 271 160 260 c 4
 160 249 151 240 140 240 c 4
 137 240 133 242 130 243 c 4
 127 242 123 240 120 240 c 4
 117 240 113 242 110 243 c 4
 107 242 103 240 100 240 c 4
 97 240 93 242 90 243 c 4
 87 242 83 240 80 240 c 4
 77 240 73 242 70 243 c 4
 67 242 63 240 60 240 c 4
 49 240 40 249 40 260 c 4
 40 271 49 280 60 280 c 4
40 240 m 4
 51 240 60 231 60 220 c 4
 60 209 51 200 40 200 c 4
 29 200 20 209 20 220 c 4
 20 231 29 240 40 240 c 4
40 200 m 4
 51 200 60 191 60 180 c 4
 60 169 51 160 40 160 c 4
 29 160 20 169 20 180 c 4
 20 191 29 200 40 200 c 4
160 240 m 4
 171 240 180 231 180 220 c 4
 180 209 171 200 160 200 c 4
 149 200 140 209 140 220 c 4
 140 231 149 240 160 240 c 4
160 200 m 4
 171 200 180 191 180 180 c 4
 180 169 171 160 160 160 c 4
 149 160 140 169 140 180 c 4
 140 191 149 200 160 200 c 4
60 160 m 4
 63 160 67 158 70 157 c 4
 73 158 77 160 80 160 c 4
 83 160 87 158 90 157 c 4
 93 158 97 160 100 160 c 4
 103 160 107 158 110 157 c 4
 113 158 117 160 120 160 c 4
 123 160 127 158 130 157 c 4
 133 158 137 160 140 160 c 4
 151 160 160 151 160 140 c 4
 160 129 151 120 140 120 c 4
 137 120 133 122 130 123 c 4
 127 122 123 120 120 120 c 4
 117 120 113 122 110 123 c 4
 107 122 103 120 100 120 c 4
 97 120 93 122 90 123 c 4
 87 122 83 120 80 120 c 4
 77 120 73 122 70 123 c 4
 67 122 63 120 60 120 c 4
 49 120 40 129 40 140 c 4
 40 151 49 160 60 160 c 4
40 120 m 4
 51 120 60 111 60 100 c 4
 60 89 51 80 40 80 c 4
 29 80 20 89 20 100 c 4
 20 111 29 120 40 120 c 4
40 80 m 4
 51 80 60 71 60 60 c 4
 60 49 51 40 40 40 c 4
 29 40 20 49 20 60 c 4
 20 71 29 80 40 80 c 4
160 120 m 4
 171 120 180 111 180 100 c 4
 180 89 171 80 160 80 c 4
 149 80 140 89 140 100 c 4
 140 111 149 120 160 120 c 4
160 80 m 4
 171 80 180 71 180 60 c 4
 180 49 171 40 160 40 c 4
 149 40 140 49 140 60 c 4
 140 71 149 80 160 80 c 4
60 40 m 4
 63 40 67 38 70 37 c 4
 73 38 77 40 80 40 c 4
 83 40 87 38 90 37 c 4
 93 38 97 40 100 40 c 4
 103 40 107 38 110 37 c 4
 113 38 117 40 120 40 c 4
 123 40 127 38 130 37 c 4
 133 38 137 40 140 40 c 4
 151 40 160 31 160 20 c 4
 160 9 151 0 140 0 c 4
 137 0 133 2 130 3 c 4
 127 2 123 0 120 0 c 4
 117 0 113 2 110 3 c 4
 107 2 103 0 100 0 c 4
 97 0 93 2 90 3 c 4
 87 2 83 0 80 0 c 4
 77 0 73 2 70 3 c 4
 67 2 63 0 60 0 c 4
 49 0 40 9 40 20 c 4
 40 31 49 40 60 40 c 4
EndSplineSet
EndChar

StartChar: nine
Encoding: 57 57 59
Width: 200
VWidth: 0
Flags: HW
LayerCount: 2
UndoRedoHistory
Layer: 0
Undoes
UndoOperation
Index: 0
Type: 1
WasModified: 0
WasOrder2: 0
Layer: 2
Width: 20
VWidth: 0
LBearingChange: 0
UnicodeEnc: 0
InstructionsLength: 0
EndUndoOperation
EndUndoes
Redoes
EndRedoes
EndUndoRedoHistory
UndoRedoHistory
Layer: 1
Undoes
UndoOperation
Index: 0
Type: 3
WasModified: 0
WasOrder2: 0
Layer: 2
EndUndoOperation
UndoOperation
Index: 1
Type: 1
WasModified: 1
WasOrder2: 0
Layer: 2
Width: 20
VWidth: 0
LBearingChange: 0
UnicodeEnc: 0
InstructionsLength: 0
SplineSet
5 28 m 4
 5.2958984375 28 5.744140625 27.87890625 6 27.73046875 c 4
 6.255859375 27.87890625 6.7041015625 28 7 28 c 4
 7.2958984375 28 7.744140625 27.87890625 8 27.73046875 c 4
 8.255859375 27.87890625 8.7041015625 28 9 28 c 4
 9.2958984375 28 9.744140625 27.87890625 10 27.73046875 c 4
 10.255859375 27.87890625 10.7041015625 28 11 28 c 4
 11.2958984375 28 11.744140625 27.87890625 12 27.73046875 c 4
 12.255859375 27.87890625 12.7041015625 28 13 28 c 4
 14.103515625 28 15 27.103515625 15 26 c 4
 15 24.896484375 14.103515625 24 13 24 c 4
 12.7041015625 24 12.255859375 24.12109375 12 24.26953125 c 4
 11.744140625 24.12109375 11.2958984375 24 11 24 c 4
 10.7041015625 24 10.255859375 24.12109375 10 24.26953125 c 4
 9.744140625 24.12109375 9.2958984375 24 9 24 c 4
 8.7041015625 24 8.255859375 24.12109375 8 24.26953125 c 4
 7.744140625 24.12109375 7.2958984375 24 7 24 c 4
 6.7041015625 24 6.255859375 24.12109375 6 24.26953125 c 4
 5.744140625 24.12109375 5.2958984375 24 5 24 c 4
 3.896484375 24 3 24.896484375 3 26 c 4
 3 27.103515625 3.896484375 28 5 28 c 4
3 24 m 4
 4.103515625 24 5 23.103515625 5 22 c 4
 5 20.896484375 4.103515625 20 3 20 c 4
 1.896484375 20 1 20.896484375 1 22 c 4
 1 23.103515625 1.896484375 24 3 24 c 4
3 20 m 4
 4.103515625 20 5 19.103515625 5 18 c 4
 5 16.896484375 4.103515625 16 3 16 c 4
 1.896484375 16 1 16.896484375 1 18 c 4
 1 19.103515625 1.896484375 20 3 20 c 4
15 24 m 4
 16.103515625 24 17 23.103515625 17 22 c 4
 17 20.896484375 16.103515625 20 15 20 c 4
 13.896484375 20 13 20.896484375 13 22 c 4
 13 23.103515625 13.896484375 24 15 24 c 4
15 20 m 4
 16.103515625 20 17 19.103515625 17 18 c 4
 17 16.896484375 16.103515625 16 15 16 c 4
 13.896484375 16 13 16.896484375 13 18 c 4
 13 19.103515625 13.896484375 20 15 20 c 4
15 16 m 4
 16.103515625 16 17 15.103515625 17 14 c 4
 17 12.896484375 16.103515625 12 15 12 c 4
 14.7041015625 12 14.255859375 12.12109375 14 12.26953125 c 4
 13.744140625 12.12109375 13.2958984375 12 13 12 c 4
 12.7041015625 12 12.255859375 12.12109375 12 12.26953125 c 4
 11.744140625 12.12109375 11.2958984375 12 11 12 c 4
 10.7041015625 12 10.255859375 12.12109375 10 12.26953125 c 4
 9.744140625 12.12109375 9.2958984375 12 9 12 c 4
 8.7041015625 12 8.255859375 12.12109375 8 12.26953125 c 4
 7.744140625 12.12109375 7.2958984375 12 7 12 c 4
 6.7041015625 12 6.255859375 12.12109375 6 12.26953125 c 4
 5.744140625 12.12109375 5.2958984375 12 5 12 c 4
 3.896484375 12 3 12.896484375 3 14 c 4
 3 15.103515625 3.896484375 16 5 16 c 4
 5.2958984375 16 5.744140625 15.87890625 6 15.73046875 c 4
 6.255859375 15.87890625 6.7041015625 16 7 16 c 4
 7.2958984375 16 7.744140625 15.87890625 8 15.73046875 c 4
 8.255859375 15.87890625 8.7041015625 16 9 16 c 4
 9.2958984375 16 9.744140625 15.87890625 10 15.73046875 c 4
 10.255859375 15.87890625 10.7041015625 16 11 16 c 4
 11.2958984375 16 11.744140625 15.87890625 12 15.73046875 c 4
 12.255859375 15.87890625 12.7041015625 16 13 16 c 4
 13.2958984375 16 13.744140625 15.87890625 14 15.73046875 c 4
 14.255859375 15.87890625 14.7041015625 16 15 16 c 4
15 12 m 4
 16.103515625 12 17 11.103515625 17 10 c 4
 17 8.896484375 16.103515625 8 15 8 c 4
 13.896484375 8 13 8.896484375 13 10 c 4
 13 11.103515625 13.896484375 12 15 12 c 4
15 8 m 4
 16.103515625 8 17 7.103515625 17 6 c 4
 17 4.896484375 16.103515625 4 15 4 c 4
 13.896484375 4 13 4.896484375 13 6 c 4
 13 7.103515625 13.896484375 8 15 8 c 4
5 4 m 4
 5.2958984375 4 5.744140625 3.87890625 6 3.73046875 c 4
 6.255859375 3.87890625 6.7041015625 4 7 4 c 4
 7.2958984375 4 7.744140625 3.87890625 8 3.73046875 c 4
 8.255859375 3.87890625 8.7041015625 4 9 4 c 4
 9.2958984375 4 9.744140625 3.87890625 10 3.73046875 c 4
 10.255859375 3.87890625 10.7041015625 4 11 4 c 4
 11.2958984375 4 11.744140625 3.87890625 12 3.73046875 c 4
 12.255859375 3.87890625 12.7041015625 4 13 4 c 4
 14.103515625 4 15 3.103515625 15 2 c 4
 15 0.896484375 14.103515625 0 13 0 c 4
 12.7041015625 0 12.255859375 0.12109375 12 0.26953125 c 4
 11.744140625 0.12109375 11.2958984375 0 11 0 c 4
 10.7041015625 0 10.255859375 0.12109375 10 0.26953125 c 4
 9.744140625 0.12109375 9.2958984375 0 9 0 c 4
 8.7041015625 0 8.255859375 0.12109375 8 0.26953125 c 4
 7.744140625 0.12109375 7.2958984375 0 7 0 c 4
 6.7041015625 0 6.255859375 0.12109375 6 0.26953125 c 4
 5.744140625 0.12109375 5.2958984375 0 5 0 c 4
 3.896484375 0 3 0.896484375 3 2 c 4
 3 3.103515625 3.896484375 4 5 4 c 4
EndSplineSet
EndUndoOperation
EndUndoes
Redoes
EndRedoes
EndUndoRedoHistory
Fore
SplineSet
60 280 m 4
 63 280 67 278 70 277 c 4
 73 278 77 280 80 280 c 4
 83 280 87 278 90 277 c 4
 93 278 97 280 100 280 c 4
 103 280 107 278 110 277 c 4
 113 278 117 280 120 280 c 4
 123 280 127 278 130 277 c 4
 133 278 137 280 140 280 c 4
 151 280 160 271 160 260 c 4
 160 249 151 240 140 240 c 4
 137 240 133 242 130 243 c 4
 127 242 123 240 120 240 c 4
 117 240 113 242 110 243 c 4
 107 242 103 240 100 240 c 4
 97 240 93 242 90 243 c 4
 87 242 83 240 80 240 c 4
 77 240 73 242 70 243 c 4
 67 242 63 240 60 240 c 4
 49 240 40 249 40 260 c 4
 40 271 49 280 60 280 c 4
40 240 m 4
 51 240 60 231 60 220 c 4
 60 209 51 200 40 200 c 4
 29 200 20 209 20 220 c 4
 20 231 29 240 40 240 c 4
40 200 m 4
 51 200 60 191 60 180 c 4
 60 169 51 160 40 160 c 4
 29 160 20 169 20 180 c 4
 20 191 29 200 40 200 c 4
160 240 m 4
 171 240 180 231 180 220 c 4
 180 209 171 200 160 200 c 4
 149 200 140 209 140 220 c 4
 140 231 149 240 160 240 c 4
160 200 m 4
 171 200 180 191 180 180 c 4
 180 169 171 160 160 160 c 4
 149 160 140 169 140 180 c 4
 140 191 149 200 160 200 c 4
160 160 m 4
 171 160 180 151 180 140 c 4
 180 129 171 120 160 120 c 4
 157 120 153 122 150 123 c 4
 147 122 143 120 140 120 c 4
 137 120 133 122 130 123 c 4
 127 122 123 120 120 120 c 4
 117 120 113 122 110 123 c 4
 107 122 103 120 100 120 c 4
 97 120 93 122 90 123 c 4
 87 122 83 120 80 120 c 4
 77 120 73 122 70 123 c 4
 67 122 63 120 60 120 c 4
 49 120 40 129 40 140 c 4
 40 151 49 160 60 160 c 4
 63 160 67 158 70 157 c 4
 73 158 77 160 80 160 c 4
 83 160 87 158 90 157 c 4
 93 158 97 160 100 160 c 4
 103 160 107 158 110 157 c 4
 113 158 117 160 120 160 c 4
 123 160 127 158 130 157 c 4
 133 158 137 160 140 160 c 4
 143 160 147 158 150 157 c 4
 153 158 157 160 160 160 c 4
160 120 m 4
 171 120 180 111 180 100 c 4
 180 89 171 80 160 80 c 4
 149 80 140 89 140 100 c 4
 140 111 149 120 160 120 c 4
160 80 m 4
 171 80 180 71 180 60 c 4
 180 49 171 40 160 40 c 4
 149 40 140 49 140 60 c 4
 140 71 149 80 160 80 c 4
60 40 m 4
 63 40 67 38 70 37 c 4
 73 38 77 40 80 40 c 4
 83 40 87 38 90 37 c 4
 93 38 97 40 100 40 c 4
 103 40 107 38 110 37 c 4
 113 38 117 40 120 40 c 4
 123 40 127 38 130 37 c 4
 133 38 137 40 140 40 c 4
 151 40 160 31 160 20 c 4
 160 9 151 0 140 0 c 4
 137 0 133 2 130 3 c 4
 127 2 123 0 120 0 c 4
 117 0 113 2 110 3 c 4
 107 2 103 0 100 0 c 4
 97 0 93 2 90 3 c 4
 87 2 83 0 80 0 c 4
 77 0 73 2 70 3 c 4
 67 2 63 0 60 0 c 4
 49 0 40 9 40 20 c 4
 40 31 49 40 60 40 c 4
EndSplineSet
EndChar

StartChar: colon
Encoding: 58 58 60
Width: 200
VWidth: 0
Flags: HW
LayerCount: 2
UndoRedoHistory
Layer: 0
Undoes
UndoOperation
Index: 0
Type: 1
WasModified: 0
WasOrder2: 0
Layer: 2
Width: 20
VWidth: 0
LBearingChange: 0
UnicodeEnc: 0
InstructionsLength: 0
EndUndoOperation
EndUndoes
Redoes
EndRedoes
EndUndoRedoHistory
UndoRedoHistory
Layer: 1
Undoes
UndoOperation
Index: 0
Type: 3
WasModified: 0
WasOrder2: 0
Layer: 2
EndUndoOperation
UndoOperation
Index: 1
Type: 1
WasModified: 1
WasOrder2: 0
Layer: 2
Width: 20
VWidth: 0
LBearingChange: 0
UnicodeEnc: 0
InstructionsLength: 0
SplineSet
9 25 m 4
 9.2958984375 25 9.744140625 24.87890625 10 24.73046875 c 4
 10.255859375 24.87890625 10.7041015625 25 11 25 c 4
 12.103515625 25 13 24.103515625 13 23 c 4
 13 21.896484375 12.103515625 21 11 21 c 4
 10.7041015625 21 10.255859375 21.12109375 10 21.26953125 c 4
 9.744140625 21.12109375 9.2958984375 21 9 21 c 4
 7.896484375 21 7 21.896484375 7 23 c 4
 7 24.103515625 7.896484375 25 9 25 c 4
11 21 m 4
 12.103515625 21 13 20.103515625 13 19 c 4
 13 17.896484375 12.103515625 17 11 17 c 4
 10.7041015625 17 10.255859375 17.12109375 10 17.26953125 c 4
 9.744140625 17.12109375 9.2958984375 17 9 17 c 4
 7.896484375 17 7 17.896484375 7 19 c 4
 7 20.103515625 7.896484375 21 9 21 c 4
 9.2958984375 21 9.744140625 20.87890625 10 20.73046875 c 4
 10.255859375 20.87890625 10.7041015625 21 11 21 c 4
9 13 m 4
 9.2958984375 13 9.744140625 12.87890625 10 12.73046875 c 4
 10.255859375 12.87890625 10.7041015625 13 11 13 c 4
 12.103515625 13 13 12.103515625 13 11 c 4
 13 9.896484375 12.103515625 9 11 9 c 4
 10.7041015625 9 10.255859375 9.12109375 10 9.26953125 c 4
 9.744140625 9.12109375 9.2958984375 9 9 9 c 4
 7.896484375 9 7 9.896484375 7 11 c 4
 7 12.103515625 7.896484375 13 9 13 c 4
11 9 m 4
 12.103515625 9 13 8.103515625 13 7 c 4
 13 5.896484375 12.103515625 5 11 5 c 4
 10.7041015625 5 10.255859375 5.12109375 10 5.26953125 c 4
 9.744140625 5.12109375 9.2958984375 5 9 5 c 4
 7.896484375 5 7 5.896484375 7 7 c 4
 7 8.103515625 7.896484375 9 9 9 c 4
 9.2958984375 9 9.744140625 8.87890625 10 8.73046875 c 4
 10.255859375 8.87890625 10.7041015625 9 11 9 c 4
EndSplineSet
EndUndoOperation
EndUndoes
Redoes
EndRedoes
EndUndoRedoHistory
Fore
SplineSet
90 240 m 4
 93 240 97 238 100 237 c 4
 103 238 107 240 110 240 c 4
 121 240 130 231 130 220 c 4
 130 209 121 200 110 200 c 4
 107 200 103 202 100 203 c 4
 97 202 93 200 90 200 c 4
 79 200 70 209 70 220 c 4
 70 231 79 240 90 240 c 4
110 200 m 4
 121 200 130 191 130 180 c 4
 130 169 121 160 110 160 c 4
 107 160 103 162 100 163 c 4
 97 162 93 160 90 160 c 4
 79 160 70 169 70 180 c 4
 70 191 79 200 90 200 c 4
 93 200 97 198 100 197 c 4
 103 198 107 200 110 200 c 4
90 120 m 4
 93 120 97 118 100 117 c 4
 103 118 107 120 110 120 c 4
 121 120 130 111 130 100 c 4
 130 89 121 80 110 80 c 4
 107 80 103 82 100 83 c 4
 97 82 93 80 90 80 c 4
 79 80 70 89 70 100 c 4
 70 111 79 120 90 120 c 4
110 80 m 4
 121 80 130 71 130 60 c 4
 130 49 121 40 110 40 c 4
 107 40 103 42 100 43 c 4
 97 42 93 40 90 40 c 4
 79 40 70 49 70 60 c 4
 70 71 79 80 90 80 c 4
 93 80 97 78 100 77 c 4
 103 78 107 80 110 80 c 4
EndSplineSet
EndChar

StartChar: semicolon
Encoding: 59 59 61
Width: 200
VWidth: 0
Flags: HW
LayerCount: 2
UndoRedoHistory
Layer: 0
Undoes
UndoOperation
Index: 0
Type: 1
WasModified: 0
WasOrder2: 0
Layer: 2
Width: 20
VWidth: 0
LBearingChange: 0
UnicodeEnc: 0
InstructionsLength: 0
EndUndoOperation
EndUndoes
Redoes
EndRedoes
EndUndoRedoHistory
UndoRedoHistory
Layer: 1
Undoes
UndoOperation
Index: 0
Type: 3
WasModified: 0
WasOrder2: 0
Layer: 2
EndUndoOperation
UndoOperation
Index: 1
Type: 1
WasModified: 1
WasOrder2: 0
Layer: 2
Width: 20
VWidth: 0
LBearingChange: 0
UnicodeEnc: 0
InstructionsLength: 0
SplineSet
8 24 m 4
 8.2958984375 24 8.744140625 23.87890625 9 23.73046875 c 4
 9.255859375 23.87890625 9.7041015625 24 10 24 c 4
 11.103515625 24 12 23.103515625 12 22 c 4
 12 20.896484375 11.103515625 20 10 20 c 4
 9.7041015625 20 9.255859375 20.12109375 9 20.26953125 c 4
 8.744140625 20.12109375 8.2958984375 20 8 20 c 4
 6.896484375 20 6 20.896484375 6 22 c 4
 6 23.103515625 6.896484375 24 8 24 c 4
10 20 m 4
 11.103515625 20 12 19.103515625 12 18 c 4
 12 16.896484375 11.103515625 16 10 16 c 4
 9.7041015625 16 9.255859375 16.12109375 9 16.26953125 c 4
 8.744140625 16.12109375 8.2958984375 16 8 16 c 4
 6.896484375 16 6 16.896484375 6 18 c 4
 6 19.103515625 6.896484375 20 8 20 c 4
 8.2958984375 20 8.744140625 19.87890625 9 19.73046875 c 4
 9.255859375 19.87890625 9.7041015625 20 10 20 c 4
8 12 m 4
 8.2958984375 12 8.744140625 11.87890625 9 11.73046875 c 4
 9.255859375 11.87890625 9.7041015625 12 10 12 c 4
 11.103515625 12 12 11.103515625 12 10 c 4
 12 8.896484375 11.103515625 8 10 8 c 4
 9.7041015625 8 9.255859375 8.12109375 9 8.26953125 c 4
 8.744140625 8.12109375 8.2958984375 8 8 8 c 4
 6.896484375 8 6 8.896484375 6 10 c 4
 6 11.103515625 6.896484375 12 8 12 c 4
10 8 m 4
 11.103515625 8 12 7.103515625 12 6 c 4
 12 4.896484375 11.103515625 4 10 4 c 4
 9.7041015625 4 9.255859375 4.12109375 9 4.26953125 c 4
 8.744140625 4.12109375 8.2958984375 4 8 4 c 4
 6.896484375 4 6 4.896484375 6 6 c 4
 6 7.103515625 6.896484375 8 8 8 c 4
 8.2958984375 8 8.744140625 7.87890625 9 7.73046875 c 4
 9.255859375 7.87890625 9.7041015625 8 10 8 c 4
10 4 m 4
 11.103515625 4 12 3.103515625 12 2 c 4
 12 0.896484375 11.103515625 0 10 0 c 4
 8.896484375 0 8 0.896484375 8 2 c 4
 8 3.103515625 8.896484375 4 10 4 c 4
8 0 m 4
 9.103515625 0 10 -0.896484375 10 -2 c 4
 10 -3.103515625 9.103515625 -4 8 -4 c 4
 6.896484375 -4 6 -3.103515625 6 -2 c 4
 6 -0.896484375 6.896484375 0 8 0 c 4
EndSplineSet
EndUndoOperation
EndUndoes
Redoes
EndRedoes
EndUndoRedoHistory
Fore
SplineSet
90 240 m 4
 93 240 97 238 100 237 c 4
 103 238 107 240 110 240 c 4
 121 240 130 231 130 220 c 4
 130 209 121 200 110 200 c 4
 107 200 103 202 100 203 c 4
 97 202 93 200 90 200 c 4
 79 200 70 209 70 220 c 4
 70 231 79 240 90 240 c 4
110 200 m 4
 121 200 130 191 130 180 c 4
 130 169 121 160 110 160 c 4
 107 160 103 162 100 163 c 4
 97 162 93 160 90 160 c 4
 79 160 70 169 70 180 c 4
 70 191 79 200 90 200 c 4
 93 200 97 198 100 197 c 4
 103 198 107 200 110 200 c 4
90 120 m 4
 93 120 97 118 100 117 c 4
 103 118 107 120 110 120 c 4
 121 120 130 111 130 100 c 4
 130 89 121 80 110 80 c 4
 107 80 103 82 100 83 c 4
 97 82 93 80 90 80 c 4
 79 80 70 89 70 100 c 4
 70 111 79 120 90 120 c 4
110 80 m 4
 121 80 130 71 130 60 c 4
 130 49 121 40 110 40 c 4
 107 40 103 42 100 43 c 4
 97 42 93 40 90 40 c 4
 79 40 70 49 70 60 c 4
 70 71 79 80 90 80 c 4
 93 80 97 78 100 77 c 4
 103 78 107 80 110 80 c 4
110 40 m 4
 121 40 130 31 130 20 c 4
 130 9 121 0 110 0 c 4
 99 0 90 9 90 20 c 4
 90 31 99 40 110 40 c 4
90 0 m 4
 101 0 110 -9 110 -20 c 4
 110 -31 101 -40 90 -40 c 4
 79 -40 70 -31 70 -20 c 4
 70 -9 79 0 90 0 c 4
EndSplineSet
EndChar

StartChar: less
Encoding: 60 60 62
Width: 200
VWidth: 0
Flags: HW
LayerCount: 2
UndoRedoHistory
Layer: 0
Undoes
UndoOperation
Index: 0
Type: 1
WasModified: 0
WasOrder2: 0
Layer: 2
Width: 20
VWidth: 0
LBearingChange: 0
UnicodeEnc: 0
InstructionsLength: 0
EndUndoOperation
EndUndoes
Redoes
EndRedoes
EndUndoRedoHistory
UndoRedoHistory
Layer: 1
Undoes
UndoOperation
Index: 0
Type: 3
WasModified: 0
WasOrder2: 0
Layer: 2
EndUndoOperation
UndoOperation
Index: 1
Type: 1
WasModified: 1
WasOrder2: 0
Layer: 2
Width: 20
VWidth: 0
LBearingChange: 0
UnicodeEnc: 0
InstructionsLength: 0
SplineSet
12 23 m 4
 13.103515625 23 14 22.103515625 14 21 c 4
 14 19.896484375 13.103515625 19 12 19 c 4
 10.896484375 19 10 19.896484375 10 21 c 4
 10 22.103515625 10.896484375 23 12 23 c 4
10 19 m 4
 11.103515625 19 12 18.103515625 12 17 c 4
 12 15.896484375 11.103515625 15 10 15 c 4
 8.896484375 15 8 15.896484375 8 17 c 4
 8 18.103515625 8.896484375 19 10 19 c 4
8 15 m 4
 9.103515625 15 10 14.103515625 10 13 c 4
 10 11.896484375 9.103515625 11 8 11 c 4
 6.896484375 11 6 11.896484375 6 13 c 4
 6 14.103515625 6.896484375 15 8 15 c 4
10 11 m 4
 11.103515625 11 12 10.103515625 12 9 c 4
 12 7.896484375 11.103515625 7 10 7 c 4
 8.896484375 7 8 7.896484375 8 9 c 4
 8 10.103515625 8.896484375 11 10 11 c 4
12 7 m 4
 13.103515625 7 14 6.103515625 14 5 c 4
 14 3.896484375 13.103515625 3 12 3 c 4
 10.896484375 3 10 3.896484375 10 5 c 4
 10 6.103515625 10.896484375 7 12 7 c 4
EndSplineSet
EndUndoOperation
EndUndoes
Redoes
EndRedoes
EndUndoRedoHistory
Fore
SplineSet
120 240 m 4
 131 240 140 231 140 220 c 4
 140 209 131 200 120 200 c 4
 109 200 100 209 100 220 c 4
 100 231 109 240 120 240 c 4
100 200 m 4
 111 200 120 191 120 180 c 4
 120 169 111 160 100 160 c 4
 89 160 80 169 80 180 c 4
 80 191 89 200 100 200 c 4
80 160 m 4
 91 160 100 151 100 140 c 4
 100 129 91 120 80 120 c 4
 69 120 60 129 60 140 c 4
 60 151 69 160 80 160 c 4
100 120 m 4
 111 120 120 111 120 100 c 4
 120 89 111 80 100 80 c 4
 89 80 80 89 80 100 c 4
 80 111 89 120 100 120 c 4
120 80 m 4
 131 80 140 71 140 60 c 4
 140 49 131 40 120 40 c 4
 109 40 100 49 100 60 c 4
 100 71 109 80 120 80 c 4
EndSplineSet
EndChar

StartChar: equal
Encoding: 61 61 63
Width: 200
VWidth: 0
Flags: HW
LayerCount: 2
UndoRedoHistory
Layer: 0
Undoes
UndoOperation
Index: 0
Type: 1
WasModified: 0
WasOrder2: 0
Layer: 2
Width: 20
VWidth: 0
LBearingChange: 0
UnicodeEnc: 0
InstructionsLength: 0
EndUndoOperation
EndUndoes
Redoes
EndRedoes
EndUndoRedoHistory
UndoRedoHistory
Layer: 1
Undoes
UndoOperation
Index: 0
Type: 3
WasModified: 0
WasOrder2: 0
Layer: 2
EndUndoOperation
UndoOperation
Index: 1
Type: 1
WasModified: 1
WasOrder2: 0
Layer: 2
Width: 20
VWidth: 0
LBearingChange: 0
UnicodeEnc: 0
InstructionsLength: 0
SplineSet
5 19.73046875 m 4
 5.2958984375 19.73046875 5.744140625 19.609375 6 19.4609375 c 4
 6.255859375 19.609375 6.7041015625 19.73046875 7 19.73046875 c 4
 7.2958984375 19.73046875 7.744140625 19.609375 8 19.4609375 c 4
 8.255859375 19.609375 8.7041015625 19.73046875 9 19.73046875 c 4
 9.2958984375 19.73046875 9.744140625 19.609375 10 19.4609375 c 4
 10.255859375 19.609375 10.7041015625 19.73046875 11 19.73046875 c 4
 11.2958984375 19.73046875 11.744140625 19.609375 12 19.4609375 c 4
 12.255859375 19.609375 12.7041015625 19.73046875 13 19.73046875 c 4
 13.2958984375 19.73046875 13.744140625 19.609375 14 19.4609375 c 4
 14.255859375 19.609375 14.7041015625 19.73046875 15 19.73046875 c 4
 15.2958984375 19.73046875 15.744140625 19.609375 16 19.4609375 c 4
 16.255859375 19.609375 16.7041015625 19.73046875 17 19.73046875 c 4
 18.103515625 19.73046875 19 18.833984375 19 17.73046875 c 4
 19 16.626953125 18.103515625 15.73046875 17 15.73046875 c 4
 16.7041015625 15.73046875 16.255859375 15.8515625 16 16 c 4
 15.744140625 15.8515625 15.2958984375 15.73046875 15 15.73046875 c 4
 14.7041015625 15.73046875 14.255859375 15.8515625 14 16 c 4
 13.744140625 15.8515625 13.2958984375 15.73046875 13 15.73046875 c 4
 12.7041015625 15.73046875 12.255859375 15.8515625 12 16 c 4
 11.744140625 15.8515625 11.2958984375 15.73046875 11 15.73046875 c 4
 10.7041015625 15.73046875 10.255859375 15.8515625 10 16 c 4
 9.744140625 15.8515625 9.2958984375 15.73046875 9 15.73046875 c 4
 8.7041015625 15.73046875 8.255859375 15.8515625 8 16 c 4
 7.744140625 15.8515625 7.2958984375 15.73046875 7 15.73046875 c 4
 6.7041015625 15.73046875 6.255859375 15.8515625 6 16 c 4
 5.744140625 15.8515625 5.2958984375 15.73046875 5 15.73046875 c 4
 3.896484375 15.73046875 3 16.626953125 3 17.73046875 c 4
 3 18.833984375 3.896484375 19.73046875 5 19.73046875 c 4
5 11.73046875 m 4
 5.2958984375 11.73046875 5.744140625 11.609375 6 11.4609375 c 4
 6.255859375 11.609375 6.7041015625 11.73046875 7 11.73046875 c 4
 7.2958984375 11.73046875 7.744140625 11.609375 8 11.4609375 c 4
 8.255859375 11.609375 8.7041015625 11.73046875 9 11.73046875 c 4
 9.2958984375 11.73046875 9.744140625 11.609375 10 11.4609375 c 4
 10.255859375 11.609375 10.7041015625 11.73046875 11 11.73046875 c 4
 11.2958984375 11.73046875 11.744140625 11.609375 12 11.4609375 c 4
 12.255859375 11.609375 12.7041015625 11.73046875 13 11.73046875 c 4
 13.2958984375 11.73046875 13.744140625 11.609375 14 11.4609375 c 4
 14.255859375 11.609375 14.7041015625 11.73046875 15 11.73046875 c 4
 15.2958984375 11.73046875 15.744140625 11.609375 16 11.4609375 c 4
 16.255859375 11.609375 16.7041015625 11.73046875 17 11.73046875 c 4
 18.103515625 11.73046875 19 10.833984375 19 9.73046875 c 4
 19 8.626953125 18.103515625 7.73046875 17 7.73046875 c 4
 16.7041015625 7.73046875 16.255859375 7.8515625 16 8 c 4
 15.744140625 7.8515625 15.2958984375 7.73046875 15 7.73046875 c 4
 14.7041015625 7.73046875 14.255859375 7.8515625 14 8 c 4
 13.744140625 7.8515625 13.2958984375 7.73046875 13 7.73046875 c 4
 12.7041015625 7.73046875 12.255859375 7.8515625 12 8 c 4
 11.744140625 7.8515625 11.2958984375 7.73046875 11 7.73046875 c 4
 10.7041015625 7.73046875 10.255859375 7.8515625 10 8 c 4
 9.744140625 7.8515625 9.2958984375 7.73046875 9 7.73046875 c 4
 8.7041015625 7.73046875 8.255859375 7.8515625 8 8 c 4
 7.744140625 7.8515625 7.2958984375 7.73046875 7 7.73046875 c 4
 6.7041015625 7.73046875 6.255859375 7.8515625 6 8 c 4
 5.744140625 7.8515625 5.2958984375 7.73046875 5 7.73046875 c 4
 3.896484375 7.73046875 3 8.626953125 3 9.73046875 c 4
 3 10.833984375 3.896484375 11.73046875 5 11.73046875 c 4
EndSplineSet
EndUndoOperation
EndUndoes
Redoes
EndRedoes
EndUndoRedoHistory
Fore
SplineSet
40 197 m 4
 43 197 47 196 50 195 c 4
 53 196 57 197 60 197 c 4
 63 197 67 196 70 195 c 4
 73 196 77 197 80 197 c 4
 83 197 87 196 90 195 c 4
 93 196 97 197 100 197 c 4
 103 197 107 196 110 195 c 4
 113 196 117 197 120 197 c 4
 123 197 127 196 130 195 c 4
 133 196 137 197 140 197 c 4
 143 197 147 196 150 195 c 4
 153 196 157 197 160 197 c 4
 171 197 180 188 180 177 c 4
 180 166 171 157 160 157 c 4
 157 157 153 159 150 160 c 4
 147 159 143 157 140 157 c 4
 137 157 133 159 130 160 c 4
 127 159 123 157 120 157 c 4
 117 157 113 159 110 160 c 4
 107 159 103 157 100 157 c 4
 97 157 93 159 90 160 c 4
 87 159 83 157 80 157 c 4
 77 157 73 159 70 160 c 4
 67 159 63 157 60 157 c 4
 57 157 53 159 50 160 c 4
 47 159 43 157 40 157 c 4
 29 157 20 166 20 177 c 4
 20 188 29 197 40 197 c 4
40 117 m 4
 43 117 47 116 50 115 c 4
 53 116 57 117 60 117 c 4
 63 117 67 116 70 115 c 4
 73 116 77 117 80 117 c 4
 83 117 87 116 90 115 c 4
 93 116 97 117 100 117 c 4
 103 117 107 116 110 115 c 4
 113 116 117 117 120 117 c 4
 123 117 127 116 130 115 c 4
 133 116 137 117 140 117 c 4
 143 117 147 116 150 115 c 4
 153 116 157 117 160 117 c 4
 171 117 180 108 180 97 c 4
 180 86 171 77 160 77 c 4
 157 77 153 79 150 80 c 4
 147 79 143 77 140 77 c 4
 137 77 133 79 130 80 c 4
 127 79 123 77 120 77 c 4
 117 77 113 79 110 80 c 4
 107 79 103 77 100 77 c 4
 97 77 93 79 90 80 c 4
 87 79 83 77 80 77 c 4
 77 77 73 79 70 80 c 4
 67 79 63 77 60 77 c 4
 57 77 53 79 50 80 c 4
 47 79 43 77 40 77 c 4
 29 77 20 86 20 97 c 4
 20 108 29 117 40 117 c 4
EndSplineSet
EndChar

StartChar: greater
Encoding: 62 62 64
Width: 200
VWidth: 0
Flags: HW
LayerCount: 2
UndoRedoHistory
Layer: 0
Undoes
UndoOperation
Index: 0
Type: 1
WasModified: 0
WasOrder2: 0
Layer: 2
Width: 20
VWidth: 0
LBearingChange: 0
UnicodeEnc: 0
InstructionsLength: 0
EndUndoOperation
EndUndoes
Redoes
EndRedoes
EndUndoRedoHistory
UndoRedoHistory
Layer: 1
Undoes
UndoOperation
Index: 0
Type: 3
WasModified: 0
WasOrder2: 0
Layer: 2
EndUndoOperation
UndoOperation
Index: 1
Type: 1
WasModified: 1
WasOrder2: 0
Layer: 2
Width: 20
VWidth: 0
LBearingChange: 0
UnicodeEnc: 0
InstructionsLength: 0
SplineSet
9 24 m 4
 10.103515625 24 11 23.103515625 11 22 c 4
 11 20.896484375 10.103515625 20 9 20 c 4
 7.896484375 20 7 20.896484375 7 22 c 4
 7 23.103515625 7.896484375 24 9 24 c 4
11 20 m 4
 12.103515625 20 13 19.103515625 13 18 c 4
 13 16.896484375 12.103515625 16 11 16 c 4
 9.896484375 16 9 16.896484375 9 18 c 4
 9 19.103515625 9.896484375 20 11 20 c 4
13 16 m 4
 14.103515625 16 15 15.103515625 15 14 c 4
 15 12.896484375 14.103515625 12 13 12 c 4
 11.896484375 12 11 12.896484375 11 14 c 4
 11 15.103515625 11.896484375 16 13 16 c 4
11 12 m 4
 12.103515625 12 13 11.103515625 13 10 c 4
 13 8.896484375 12.103515625 8 11 8 c 4
 9.896484375 8 9 8.896484375 9 10 c 4
 9 11.103515625 9.896484375 12 11 12 c 4
9 8 m 4
 10.103515625 8 11 7.103515625 11 6 c 4
 11 4.896484375 10.103515625 4 9 4 c 4
 7.896484375 4 7 4.896484375 7 6 c 4
 7 7.103515625 7.896484375 8 9 8 c 4
EndSplineSet
EndUndoOperation
EndUndoes
Redoes
EndRedoes
EndUndoRedoHistory
Fore
SplineSet
80 240 m 4
 91 240 100 231 100 220 c 4
 100 209 91 200 80 200 c 4
 69 200 60 209 60 220 c 4
 60 231 69 240 80 240 c 4
100 200 m 4
 111 200 120 191 120 180 c 4
 120 169 111 160 100 160 c 4
 89 160 80 169 80 180 c 4
 80 191 89 200 100 200 c 4
120 160 m 4
 131 160 140 151 140 140 c 4
 140 129 131 120 120 120 c 4
 109 120 100 129 100 140 c 4
 100 151 109 160 120 160 c 4
100 120 m 4
 111 120 120 111 120 100 c 4
 120 89 111 80 100 80 c 4
 89 80 80 89 80 100 c 4
 80 111 89 120 100 120 c 4
80 80 m 4
 91 80 100 71 100 60 c 4
 100 49 91 40 80 40 c 4
 69 40 60 49 60 60 c 4
 60 71 69 80 80 80 c 4
EndSplineSet
EndChar

StartChar: question
Encoding: 63 63 65
Width: 200
VWidth: 0
Flags: HW
LayerCount: 2
UndoRedoHistory
Layer: 0
Undoes
UndoOperation
Index: 0
Type: 1
WasModified: 0
WasOrder2: 0
Layer: 2
Width: 20
VWidth: 0
LBearingChange: 0
UnicodeEnc: 0
InstructionsLength: 0
EndUndoOperation
EndUndoes
Redoes
EndRedoes
EndUndoRedoHistory
UndoRedoHistory
Layer: 1
Undoes
UndoOperation
Index: 0
Type: 3
WasModified: 0
WasOrder2: 0
Layer: 2
EndUndoOperation
UndoOperation
Index: 1
Type: 1
WasModified: 1
WasOrder2: 0
Layer: 2
Width: 20
VWidth: 0
LBearingChange: 0
UnicodeEnc: 0
InstructionsLength: 0
SplineSet
6 28 m 4
 6.2958984375 28 6.744140625 27.87890625 7 27.73046875 c 4
 7.255859375 27.87890625 7.7041015625 28 8 28 c 4
 8.2958984375 28 8.744140625 27.87890625 9 27.73046875 c 4
 9.255859375 27.87890625 9.7041015625 28 10 28 c 4
 10.2958984375 28 10.744140625 27.87890625 11 27.73046875 c 4
 11.255859375 27.87890625 11.7041015625 28 12 28 c 4
 13.103515625 28 14 27.103515625 14 26 c 4
 14 24.896484375 13.103515625 24 12 24 c 4
 11.7041015625 24 11.255859375 24.12109375 11 24.26953125 c 4
 10.744140625 24.12109375 10.2958984375 24 10 24 c 4
 9.7041015625 24 9.255859375 24.12109375 9 24.26953125 c 4
 8.744140625 24.12109375 8.2958984375 24 8 24 c 4
 7.7041015625 24 7.255859375 24.12109375 7 24.26953125 c 4
 6.744140625 24.12109375 6.2958984375 24 6 24 c 4
 4.896484375 24 4 24.896484375 4 26 c 4
 4 27.103515625 4.896484375 28 6 28 c 4
4 24 m 4
 5.103515625 24 6 23.103515625 6 22 c 4
 6 20.896484375 5.103515625 20 4 20 c 4
 2.896484375 20 2 20.896484375 2 22 c 4
 2 23.103515625 2.896484375 24 4 24 c 4
14 24 m 4
 15.103515625 24 16 23.103515625 16 22 c 4
 16 20.896484375 15.103515625 20 14 20 c 4
 12.896484375 20 12 20.896484375 12 22 c 4
 12 23.103515625 12.896484375 24 14 24 c 4
14 20 m 4
 15.103515625 20 16 19.103515625 16 18 c 4
 16 16.896484375 15.103515625 16 14 16 c 4
 12.896484375 16 12 16.896484375 12 18 c 4
 12 19.103515625 12.896484375 20 14 20 c 4
12 16 m 4
 13.103515625 16 14 15.103515625 14 14 c 4
 14 12.896484375 13.103515625 12 12 12 c 4
 10.896484375 12 10 12.896484375 10 14 c 4
 10 15.103515625 10.896484375 16 12 16 c 4
10 12 m 4
 11.103515625 12 12 11.103515625 12 10 c 4
 12 8.896484375 11.103515625 8 10 8 c 4
 8.896484375 8 8 8.896484375 8 10 c 4
 8 11.103515625 8.896484375 12 10 12 c 4
10 4 m 4
 11.103515625 4 12 3.103515625 12 2 c 4
 12 0.896484375 11.103515625 0 10 0 c 4
 8.896484375 0 8 0.896484375 8 2 c 4
 8 3.103515625 8.896484375 4 10 4 c 4
EndSplineSet
EndUndoOperation
EndUndoes
Redoes
EndRedoes
EndUndoRedoHistory
Fore
SplineSet
70 280 m 4
 73 280 77 278 80 277 c 4
 83 278 87 280 90 280 c 4
 93 280 97 278 100 277 c 4
 103 278 107 280 110 280 c 4
 113 280 117 278 120 277 c 4
 123 278 127 280 130 280 c 4
 141 280 150 271 150 260 c 4
 150 249 141 240 130 240 c 4
 127 240 123 242 120 243 c 4
 117 242 113 240 110 240 c 4
 107 240 103 242 100 243 c 4
 97 242 93 240 90 240 c 4
 87 240 83 242 80 243 c 4
 77 242 73 240 70 240 c 4
 59 240 50 249 50 260 c 4
 50 271 59 280 70 280 c 4
50 240 m 4
 61 240 70 231 70 220 c 4
 70 209 61 200 50 200 c 4
 39 200 30 209 30 220 c 4
 30 231 39 240 50 240 c 4
150 240 m 4
 161 240 170 231 170 220 c 4
 170 209 161 200 150 200 c 4
 139 200 130 209 130 220 c 4
 130 231 139 240 150 240 c 4
150 200 m 4
 161 200 170 191 170 180 c 4
 170 169 161 160 150 160 c 4
 139 160 130 169 130 180 c 4
 130 191 139 200 150 200 c 4
130 160 m 4
 141 160 150 151 150 140 c 4
 150 129 141 120 130 120 c 4
 119 120 110 129 110 140 c 4
 110 151 119 160 130 160 c 4
110 120 m 4
 121 120 130 111 130 100 c 4
 130 89 121 80 110 80 c 4
 99 80 90 89 90 100 c 4
 90 111 99 120 110 120 c 4
110 40 m 4
 121 40 130 31 130 20 c 4
 130 9 121 0 110 0 c 4
 99 0 90 9 90 20 c 4
 90 31 99 40 110 40 c 4
EndSplineSet
EndChar

StartChar: at
Encoding: 64 64 66
Width: 200
VWidth: 0
Flags: HW
LayerCount: 2
UndoRedoHistory
Layer: 0
Undoes
UndoOperation
Index: 0
Type: 1
WasModified: 0
WasOrder2: 0
Layer: 2
Width: 20
VWidth: 0
LBearingChange: 0
UnicodeEnc: 0
InstructionsLength: 0
EndUndoOperation
EndUndoes
Redoes
EndRedoes
EndUndoRedoHistory
UndoRedoHistory
Layer: 1
Undoes
UndoOperation
Index: 0
Type: 3
WasModified: 0
WasOrder2: 0
Layer: 2
EndUndoOperation
UndoOperation
Index: 1
Type: 1
WasModified: 0
WasOrder2: 0
Layer: 2
Width: 20
VWidth: 0
LBearingChange: 0
UnicodeEnc: 0
InstructionsLength: 0
EndUndoOperation
EndUndoes
Redoes
EndRedoes
EndUndoRedoHistory
Fore
SplineSet
60 280 m 0
 63 280 67 278 70 277 c 0
 73 278 77 280 80 280 c 0
 83 280 87 278 90 277 c 0
 93 278 97 280 100 280 c 0
 103 280 107 278 110 277 c 0
 113 278 117 280 120 280 c 0
 123 280 127 278 130 277 c 0
 133 278 137 280 140 280 c 0
 151 280 160 271 160 260 c 0
 160 249 151 240 140 240 c 0
 137 240 133 242 130 243 c 0
 127 242 123 240 120 240 c 0
 117 240 113 242 110 243 c 0
 107 242 103 240 100 240 c 0
 97 240 93 242 90 243 c 0
 87 242 83 240 80 240 c 0
 77 240 73 242 70 243 c 0
 67 242 63 240 60 240 c 0
 49 240 40 249 40 260 c 0
 40 271 49 280 60 280 c 0
40 240 m 0
 51 240 60 231 60 220 c 0
 60 209 51 200 40 200 c 0
 29 200 20 209 20 220 c 0
 20 231 29 240 40 240 c 0
160 240 m 0
 171 240 180 231 180 220 c 0
 180 209 171 200 160 200 c 0
 149 200 140 209 140 220 c 0
 140 231 149 240 160 240 c 0
20 200 m 0
 31 200 40 191 40 180 c 0
 40 169 31 160 20 160 c 0
 9 160 0 169 0 180 c 0
 0 191 9 200 20 200 c 0
20 160 m 0
 31 160 40 151 40 140 c 0
 40 129 31 120 20 120 c 0
 9 120 0 129 0 140 c 0
 0 151 9 160 20 160 c 0
40 140 m 0
 40 151 49 160 60 160 c 0
 71 160 80 151 80 140 c 0
 80 129 71 120 60 120 c 0
 49 120 40 129 40 140 c 0
20 120 m 0
 31 120 40 111 40 100 c 0
 40 89 31 80 20 80 c 0
 9 80 0 89 0 100 c 0
 0 111 9 120 20 120 c 0
80 200 m 0
 83 200 87 198 90 197 c 0
 93 198 97 200 100 200 c 0
 103 200 107 198 110 197 c 0
 113 198 117 200 120 200 c 0
 131 200 140 191 140 180 c 0
 140 169 131 160 120 160 c 0
 117 160 113 162 110 163 c 0
 107 162 103 160 100 160 c 0
 97 160 93 162 90 163 c 0
 87 162 83 160 80 160 c 0
 69 160 60 169 60 180 c 0
 60 191 69 200 80 200 c 0
120 160 m 0
 131 160 140 151 140 140 c 0
 140 129 131 120 120 120 c 0
 109 120 100 129 100 140 c 0
 100 151 109 160 120 160 c 0
120 120 m 0
 123 120 127 118 130 117 c 0
 133 118 137 120 140 120 c 0
 143 120 147 118 150 117 c 0
 153 118 157 120 160 120 c 0
 163 120 167 118 170 117 c 0
 173 118 177 120 180 120 c 0
 191 120 200 111 200 100 c 0
 200 89 191 80 180 80 c 0
 177 80 173 82 170 83 c 0
 167 82 163 80 160 80 c 0
 157 80 153 82 150 83 c 0
 147 82 143 80 140 80 c 0
 137 80 133 82 130 83 c 0
 127 82 123 80 120 80 c 0
 117 80 113 82 110 83 c 0
 107 82 103 80 100 80 c 0
 97 80 93 82 90 83 c 0
 87 82 83 80 80 80 c 0
 69 80 60 89 60 100 c 0
 60 111 69 120 80 120 c 0
 83 120 87 118 90 117 c 0
 93 118 97 120 100 120 c 0
 103 120 107 118 110 117 c 0
 113 118 117 120 120 120 c 0
180 120 m 0
 169 120 160 129 160 140 c 0
 160 151 169 160 180 160 c 0
 191 160 200 151 200 140 c 0
 200 129 191 120 180 120 c 0
180 160 m 0
 169 160 160 169 160 180 c 0
 160 191 169 200 180 200 c 0
 191 200 200 191 200 180 c 0
 200 169 191 160 180 160 c 0
40 80 m 0
 51 80 60 71 60 60 c 0
 60 49 51 40 40 40 c 0
 29 40 20 49 20 60 c 0
 20 71 29 80 40 80 c 0
60 40 m 0
 63 40 67 38 70 37 c 0
 73 38 77 40 80 40 c 0
 83 40 87 38 90 37 c 0
 93 38 97 40 100 40 c 0
 103 40 107 38 110 37 c 0
 113 38 117 40 120 40 c 0
 123 40 127 38 130 37 c 0
 133 38 137 40 140 40 c 0
 151 40 160 31 160 20 c 0
 160 9 151 0 140 0 c 0
 137 0 133 2 130 3 c 0
 127 2 123 0 120 0 c 0
 117 0 113 2 110 3 c 0
 107 2 103 0 100 0 c 0
 97 0 93 2 90 3 c 0
 87 2 83 0 80 0 c 0
 77 0 73 2 70 3 c 0
 67 2 63 0 60 0 c 0
 49 0 40 9 40 20 c 0
 40 31 49 40 60 40 c 0
EndSplineSet
EndChar

StartChar: B
Encoding: 66 66 67
Width: 200
VWidth: 0
Flags: HW
LayerCount: 2
UndoRedoHistory
Layer: 0
Undoes
UndoOperation
Index: 0
Type: 1
WasModified: 0
WasOrder2: 0
Layer: 2
Width: 20
VWidth: 0
LBearingChange: 0
UnicodeEnc: 0
InstructionsLength: 0
EndUndoOperation
EndUndoes
Redoes
EndRedoes
EndUndoRedoHistory
UndoRedoHistory
Layer: 1
Undoes
UndoOperation
Index: 0
Type: 3
WasModified: 0
WasOrder2: 0
Layer: 2
EndUndoOperation
UndoOperation
Index: 1
Type: 1
WasModified: 0
WasOrder2: 0
Layer: 2
Width: 20
VWidth: 0
LBearingChange: 0
UnicodeEnc: 0
InstructionsLength: 0
SplineSet
2 28 m 4
 2.2958984375 28 2.744140625 27.87890625 3 27.73046875 c 4
 3.255859375 27.87890625 3.7041015625 28 4 28 c 4
 4.2958984375 28 4.744140625 27.87890625 5 27.73046875 c 4
 5.255859375 27.87890625 5.7041015625 28 6 28 c 4
 6.2958984375 28 6.744140625 27.87890625 7 27.73046875 c 4
 7.255859375 27.87890625 7.7041015625 28 8 28 c 4
 8.2958984375 28 8.744140625 27.87890625 9 27.73046875 c 4
 9.255859375 27.87890625 9.7041015625 28 10 28 c 4
 10.2958984375 28 10.744140625 27.87890625 11 27.73046875 c 4
 11.255859375 27.87890625 11.7041015625 28 12 28 c 4
 12.2958984375 28 12.744140625 27.87890625 13 27.73046875 c 4
 13.255859375 27.87890625 13.7041015625 28 14 28 c 4
 15.103515625 28 16 27.103515625 16 26 c 4
 16 24.896484375 15.103515625 24 14 24 c 4
 13.7041015625 24 13.255859375 24.12109375 13 24.26953125 c 4
 12.744140625 24.12109375 12.2958984375 24 12 24 c 4
 11.7041015625 24 11.255859375 24.12109375 11 24.26953125 c 4
 10.744140625 24.12109375 10.2958984375 24 10 24 c 4
 9.7041015625 24 9.255859375 24.12109375 9 24.26953125 c 4
 8.744140625 24.12109375 8.2958984375 24 8 24 c 4
 7.7041015625 24 7.255859375 24.12109375 7 24.26953125 c 4
 6.744140625 24.12109375 6.2958984375 24 6 24 c 4
 5.7041015625 24 5.255859375 24.12109375 5 24.26953125 c 4
 4.744140625 24.12109375 4.2958984375 24 4 24 c 4
 3.7041015625 24 3.255859375 24.12109375 3 24.26953125 c 4
 2.744140625 24.12109375 2.2958984375 24 2 24 c 4
 0.896484375 24 0 24.896484375 0 26 c 4
 0 27.103515625 0.896484375 28 2 28 c 4
2 24 m 4
 3.103515625 24 4 23.103515625 4 22 c 4
 4 20.896484375 3.103515625 20 2 20 c 4
 0.896484375 20 0 20.896484375 0 22 c 4
 0 23.103515625 0.896484375 24 2 24 c 4
2 20 m 4
 3.103515625 20 4 19.103515625 4 18 c 4
 4 16.896484375 3.103515625 16 2 16 c 4
 0.896484375 16 0 16.896484375 0 18 c 4
 0 19.103515625 0.896484375 20 2 20 c 4
2 16 m 4
 2.2958984375 16 2.744140625 15.87890625 3 15.73046875 c 4
 3.255859375 15.87890625 3.7041015625 16 4 16 c 4
 4.2958984375 16 4.744140625 15.87890625 5 15.73046875 c 4
 5.255859375 15.87890625 5.7041015625 16 6 16 c 4
 6.2958984375 16 6.744140625 15.87890625 7 15.73046875 c 4
 7.255859375 15.87890625 7.7041015625 16 8 16 c 4
 8.2958984375 16 8.744140625 15.87890625 9 15.73046875 c 4
 9.255859375 15.87890625 9.7041015625 16 10 16 c 4
 10.2958984375 16 10.744140625 15.87890625 11 15.73046875 c 4
 11.255859375 15.87890625 11.7041015625 16 12 16 c 4
 12.2958984375 16 12.744140625 15.87890625 13 15.73046875 c 4
 13.255859375 15.87890625 13.7041015625 16 14 16 c 4
 15.103515625 16 16 15.103515625 16 14 c 4
 16 12.896484375 15.103515625 12 14 12 c 4
 13.7041015625 12 13.255859375 12.12109375 13 12.26953125 c 4
 12.744140625 12.12109375 12.2958984375 12 12 12 c 4
 11.7041015625 12 11.255859375 12.12109375 11 12.26953125 c 4
 10.744140625 12.12109375 10.2958984375 12 10 12 c 4
 10 12 9.9990234375 12 9.998046875 12 c 4
 9.943359375 12 9.85546875 12.00390625 9.80078125 12.009765625 c 4
 9.564453125 12.0341796875 9.2060546875 12.150390625 9 12.26953125 c 4
 8.744140625 12.12109375 8.2958984375 12 8 12 c 4
 7.7041015625 12 7.255859375 12.12109375 7 12.26953125 c 4
 6.744140625 12.12109375 6.2958984375 12 6 12 c 4
 5.7041015625 12 5.255859375 12.12109375 5 12.26953125 c 4
 4.744140625 12.12109375 4.2958984375 12 4 12 c 4
 3.7041015625 12 3.255859375 12.12109375 3 12.26953125 c 4
 2.744140625 12.12109375 2.2958984375 12 2 12 c 4
 0.896484375 12 0 12.896484375 0 14 c 4
 0 15.103515625 0.896484375 16 2 16 c 4
2 12 m 4
 3.103515625 12 4 11.103515625 4 10 c 4
 4 8.896484375 3.103515625 8 2 8 c 4
 0.896484375 8 0 8.896484375 0 10 c 4
 0 11.103515625 0.896484375 12 2 12 c 4
2 8 m 4
 3.103515625 8 4 7.103515625 4 6 c 4
 4 4.896484375 3.103515625 4 2 4 c 4
 0.896484375 4 0 4.896484375 0 6 c 4
 0 7.103515625 0.896484375 8 2 8 c 4
2 4 m 4
 2.2958984375 4 2.744140625 3.87890625 3 3.73046875 c 4
 3.255859375 3.87890625 3.7041015625 4 4 4 c 4
 4.2958984375 4 4.744140625 3.87890625 5 3.73046875 c 4
 5.255859375 3.87890625 5.7041015625 4 6 4 c 4
 6.2958984375 4 6.744140625 3.87890625 7 3.73046875 c 4
 7.255859375 3.87890625 7.7041015625 4 8 4 c 4
 8.2958984375 4 8.744140625 3.87890625 9 3.73046875 c 4
 9.255859375 3.87890625 9.7041015625 4 10 4 c 4
 10.2958984375 4 10.744140625 3.87890625 11 3.73046875 c 4
 11.255859375 3.87890625 11.7041015625 4 12 4 c 4
 12.2958984375 4 12.744140625 3.87890625 13 3.73046875 c 4
 13.255859375 3.87890625 13.7041015625 4 14 4 c 4
 15.103515625 4 16 3.103515625 16 2 c 4
 16 0.896484375 15.103515625 0 14 0 c 4
 13.7041015625 0 13.255859375 0.12109375 13 0.26953125 c 4
 12.744140625 0.12109375 12.2958984375 0 12 0 c 4
 11.7041015625 0 11.255859375 0.12109375 11 0.26953125 c 4
 10.744140625 0.12109375 10.2958984375 0 10 0 c 4
 9.7041015625 0 9.255859375 0.12109375 9 0.26953125 c 4
 8.744140625 0.12109375 8.2958984375 0 8 0 c 4
 7.7041015625 0 7.255859375 0.12109375 7 0.26953125 c 4
 6.744140625 0.12109375 6.2958984375 0 6 0 c 4
 5.7041015625 0 5.255859375 0.12109375 5 0.26953125 c 4
 4.744140625 0.12109375 4.2958984375 0 4 0 c 4
 3.7041015625 0 3.255859375 0.12109375 3 0.26953125 c 4
 2.744140625 0.12109375 2.2958984375 0 2 0 c 4
 0.896484375 0 0 0.896484375 0 2 c 4
 0 3.103515625 0.896484375 4 2 4 c 4
16 24 m 4
 17.103515625 24 18 23.103515625 18 22 c 4
 18 20.896484375 17.103515625 20 16 20 c 4
 14.896484375 20 14 20.896484375 14 22 c 4
 14 23.103515625 14.896484375 24 16 24 c 4
16 20 m 4
 17.103515625 20 18 19.103515625 18 18 c 4
 18 16.896484375 17.103515625 16 16 16 c 4
 14.896484375 16 14 16.896484375 14 18 c 4
 14 19.103515625 14.896484375 20 16 20 c 4
16 12 m 4
 17.103515625 12 18 11.103515625 18 10 c 4
 18 8.896484375 17.103515625 8 16 8 c 4
 14.896484375 8 14 8.896484375 14 10 c 4
 14 11.103515625 14.896484375 12 16 12 c 4
16 8 m 4
 17.103515625 8 18 7.103515625 18 6 c 4
 18 4.896484375 17.103515625 4 16 4 c 4
 14.896484375 4 14 4.896484375 14 6 c 4
 14 7.103515625 14.896484375 8 16 8 c 4
EndSplineSet
EndUndoOperation
EndUndoes
Redoes
EndRedoes
EndUndoRedoHistory
Fore
SplineSet
30 280 m 4
 33 280 37 278 40 277 c 4
 43 278 47 280 50 280 c 4
 53 280 57 278 60 277 c 4
 63 278 67 280 70 280 c 4
 73 280 77 278 80 277 c 4
 83 278 87 280 90 280 c 4
 93 280 97 278 100 277 c 4
 103 278 107 280 110 280 c 4
 113 280 117 278 120 277 c 4
 123 278 127 280 130 280 c 4
 133 280 137 278 140 277 c 4
 143 278 147 280 150 280 c 4
 161 280 170 271 170 260 c 4
 170 249 161 240 150 240 c 4
 147 240 143 242 140 243 c 4
 137 242 133 240 130 240 c 4
 127 240 123 242 120 243 c 4
 117 242 113 240 110 240 c 4
 107 240 103 242 100 243 c 4
 97 242 93 240 90 240 c 4
 87 240 83 242 80 243 c 4
 77 242 73 240 70 240 c 4
 67 240 63 242 60 243 c 4
 57 242 53 240 50 240 c 4
 47 240 43 242 40 243 c 4
 37 242 33 240 30 240 c 4
 19 240 10 249 10 260 c 4
 10 271 19 280 30 280 c 4
30 240 m 4
 41 240 50 231 50 220 c 4
 50 209 41 200 30 200 c 4
 19 200 10 209 10 220 c 4
 10 231 19 240 30 240 c 4
30 200 m 4
 41 200 50 191 50 180 c 4
 50 169 41 160 30 160 c 4
 19 160 10 169 10 180 c 4
 10 191 19 200 30 200 c 4
30 160 m 4
 33 160 37 158 40 157 c 4
 43 158 47 160 50 160 c 4
 53 160 57 158 60 157 c 4
 63 158 67 160 70 160 c 4
 73 160 77 158 80 157 c 4
 83 158 87 160 90 160 c 4
 93 160 97 158 100 157 c 4
 103 158 107 160 110 160 c 4
 113 160 117 158 120 157 c 4
 123 158 127 160 130 160 c 4
 133 160 137 158 140 157 c 4
 143 158 147 160 150 160 c 4
 161 160 170 151 170 140 c 4
 170 129 161 120 150 120 c 4
 147 120 143 122 140 123 c 4
 137 122 133 120 130 120 c 4
 127 120 123 122 120 123 c 4
 117 122 113 120 110 120 c 4
 110 120 l 4
 109 120 109 120 108 120 c 4
 106 120 102 122 100 123 c 4
 97 122 93 120 90 120 c 4
 87 120 83 122 80 123 c 4
 77 122 73 120 70 120 c 4
 67 120 63 122 60 123 c 4
 57 122 53 120 50 120 c 4
 47 120 43 122 40 123 c 4
 37 122 33 120 30 120 c 4
 19 120 10 129 10 140 c 4
 10 151 19 160 30 160 c 4
30 120 m 4
 41 120 50 111 50 100 c 4
 50 89 41 80 30 80 c 4
 19 80 10 89 10 100 c 4
 10 111 19 120 30 120 c 4
30 80 m 4
 41 80 50 71 50 60 c 4
 50 49 41 40 30 40 c 4
 19 40 10 49 10 60 c 4
 10 71 19 80 30 80 c 4
30 40 m 4
 33 40 37 38 40 37 c 4
 43 38 47 40 50 40 c 4
 53 40 57 38 60 37 c 4
 63 38 67 40 70 40 c 4
 73 40 77 38 80 37 c 4
 83 38 87 40 90 40 c 4
 93 40 97 38 100 37 c 4
 103 38 107 40 110 40 c 4
 113 40 117 38 120 37 c 4
 123 38 127 40 130 40 c 4
 133 40 137 38 140 37 c 4
 143 38 147 40 150 40 c 4
 161 40 170 31 170 20 c 4
 170 9 161 0 150 0 c 4
 147 0 143 2 140 3 c 4
 137 2 133 0 130 0 c 4
 127 0 123 2 120 3 c 4
 117 2 113 0 110 0 c 4
 107 0 103 2 100 3 c 4
 97 2 93 0 90 0 c 4
 87 0 83 2 80 3 c 4
 77 2 73 0 70 0 c 4
 67 0 63 2 60 3 c 4
 57 2 53 0 50 0 c 4
 47 0 43 2 40 3 c 4
 37 2 33 0 30 0 c 4
 19 0 10 9 10 20 c 4
 10 31 19 40 30 40 c 4
170 240 m 4
 181 240 190 231 190 220 c 4
 190 209 181 200 170 200 c 4
 159 200 150 209 150 220 c 4
 150 231 159 240 170 240 c 4
170 200 m 4
 181 200 190 191 190 180 c 4
 190 169 181 160 170 160 c 4
 159 160 150 169 150 180 c 4
 150 191 159 200 170 200 c 4
170 120 m 4
 181 120 190 111 190 100 c 4
 190 89 181 80 170 80 c 4
 159 80 150 89 150 100 c 4
 150 111 159 120 170 120 c 4
170 80 m 4
 181 80 190 71 190 60 c 4
 190 49 181 40 170 40 c 4
 159 40 150 49 150 60 c 4
 150 71 159 80 170 80 c 4
EndSplineSet
EndChar

